<?xml version="1.0" standalone="no"?>
<!DOCTYPE svg PUBLIC "-//W3C//DTD SVG 20010904//EN"
 "http://www.w3.org/TR/2001/REC-SVG-20010904/DTD/svg10.dtd">
<svg version="1.0" xmlns="http://www.w3.org/2000/svg"
 width="300.000000pt" height="300.000000pt" viewBox="0 0 300.000000 300.000000"
 preserveAspectRatio="xMidYMid meet">
<metadata>
Created by potrace 1.11, written by Peter Selinger 2001-2013
</metadata>
<g transform="translate(0.000000,300.000000) scale(0.100000,-0.100000)"
fill="#000000" stroke="none">
<path d="M1444 2717 c-27 -29 -97 -104 -155 -167 -58 -63 -126 -136 -150 -162
-37 -39 -57 -52 -123 -73 -43 -14 -85 -25 -92 -25 -8 0 -14 -4 -14 -10 0 -5
-7 -7 -15 -4 -8 4 -15 1 -15 -6 0 -6 -4 -9 -8 -6 -14 9 -92 -16 -85 -27 3 -6
1 -7 -6 -3 -6 4 -28 2 -49 -5 -43 -15 -46 -16 -68 -18 -8 0 -13 -5 -10 -10 3
-5 0 -8 -7 -8 -27 2 -97 -16 -97 -25 0 -5 -4 -7 -9 -4 -5 3 -57 -10 -117 -29
-60 -20 -122 -38 -139 -41 -16 -3 -35 -10 -42 -16 -7 -6 -13 -8 -13 -5 0 3
-26 -4 -57 -15 -32 -11 -65 -21 -74 -23 -48 -9 -98 -29 -93 -37 3 -4 10 -6 15
-3 5 3 6 0 3 -8 -3 -8 3 -21 14 -28 11 -8 21 -18 22 -24 3 -9 48 -74 60 -85 3
-3 29 -38 59 -77 29 -40 57 -73 62 -73 5 0 8 -3 7 -7 -4 -11 63 -103 74 -103
4 0 8 -5 8 -11 0 -9 31 -53 75 -106 16 -20 41 -53 96 -128 28 -38 56 -71 60
-73 5 -2 9 -9 9 -16 0 -18 35 -48 45 -39 4 5 5 3 1 -4 -8 -14 102 -165 115
-157 5 3 6 -2 3 -10 -3 -9 3 -20 15 -28 12 -7 21 -17 21 -22 0 -5 17 -32 39
-60 21 -28 41 -56 45 -63 3 -6 -15 -56 -40 -110 -26 -54 -60 -127 -76 -163
-34 -74 -60 -130 -117 -251 -46 -97 -48 -102 -23 -95 9 3 33 7 52 10 113 15
130 19 130 30 0 6 4 5 9 -3 5 -7 13 -11 19 -7 6 3 31 9 55 11 25 3 56 8 68 11
28 6 96 15 122 15 9 0 17 3 17 7 0 4 12 7 28 8 25 0 64 5 167 20 22 3 43 8 48
11 5 3 32 7 60 9 29 2 61 6 72 8 11 2 56 9 100 16 44 7 89 14 100 16 11 2 43
7 70 10 28 4 53 12 57 18 5 8 8 7 8 -2 0 -7 4 -11 9 -8 5 3 24 8 42 10 19 3
48 7 64 10 17 2 66 10 110 16 44 6 91 13 105 16 36 6 92 15 113 18 14 2 64 91
181 322 463 912 597 1177 594 1179 -3 2 -128 66 -918 468 -173 88 -375 191
-447 228 -73 38 -134 69 -136 69 -2 0 -26 -24 -53 -53z m-664 -513 c0 -8 -19
-13 -24 -6 -3 5 1 9 9 9 8 0 15 -2 15 -3z m-216 -82 c3 -5 -1 -9 -9 -9 -8 0
-12 4 -9 9 3 4 7 8 9 8 2 0 6 -4 9 -8z m-469 -122 c3 -6 -1 -7 -9 -4 -18 7
-21 14 -7 14 6 0 13 -4 16 -10z m549 -286 c3 -8 2 -12 -4 -9 -6 3 -10 10 -10
16 0 14 7 11 14 -7z m0 -120 c3 -8 2 -12 -4 -9 -6 3 -10 10 -10 16 0 14 7 11
14 -7z m639 -949 c-3 -9 -8 -14 -10 -11 -3 3 -2 9 2 15 9 16 15 13 8 -4z m-73
-29 c0 -2 -8 -10 -17 -17 -16 -13 -17 -12 -4 4 13 16 21 21 21 13z m-239 -93
c13 -16 12 -17 -3 -4 -10 7 -18 15 -18 17 0 8 8 3 21 -13z m44 -83 c3 -6 -1
-7 -9 -4 -18 7 -21 14 -7 14 6 0 13 -4 16 -10z m240 0 c3 -6 -1 -7 -9 -4 -18
7 -21 14 -7 14 6 0 13 -4 16 -10z m159 2 c3 -5 -1 -9 -9 -9 -8 0 -12 4 -9 9 3
4 7 8 9 8 2 0 6 -4 9 -8z m120 0 c3 -5 -1 -9 -9 -9 -8 0 -12 4 -9 9 3 4 7 8 9
8 2 0 6 -4 9 -8z"/>
</g>
</svg>
