<?xml version="1.0" encoding="utf-8"?>
<!-- Generator: Adobe Illustrator 16.0.0, SVG Export Plug-In . SVG Version: 6.00 Build 0)  -->
<!DOCTYPE svg PUBLIC "-//W3C//DTD SVG 1.1//EN" "http://www.w3.org/Graphics/SVG/1.1/DTD/svg11.dtd">
<svg version="1.1" id="Layer_1" xmlns="http://www.w3.org/2000/svg" xmlns:xlink="http://www.w3.org/1999/xlink" x="0px" y="0px"
	 width="489.831px" height="350px" viewBox="0 0 489.831 350" enable-background="new 0 0 489.831 350" xml:space="preserve">
<g>
	<defs>
		<rect id="SVGID_1_" x="672.831" y="-216.202" width="612" height="792"/>
	</defs>
	<clipPath id="SVGID_2_">
		<use xlink:href="#SVGID_1_"  overflow="visible"/>
	</clipPath>
	<g clip-path="url(#SVGID_2_)" enable-background="new    ">
	</g>
</g>
<g>
	<g opacity="0.8" enable-background="new    ">
		<g>
			<defs>
				<rect id="SVGID_3_" x="70.831" width="246" height="245"/>
			</defs>
			<clipPath id="SVGID_4_">
				<use xlink:href="#SVGID_3_"  overflow="visible"/>
			</clipPath>
			<g clip-path="url(#SVGID_4_)">
				<defs>
					<rect id="SVGID_5_" x="70.646" y="-0.976" width="246.724" height="246.724"/>
				</defs>
				<clipPath id="SVGID_6_">
					<use xlink:href="#SVGID_5_"  overflow="visible"/>
				</clipPath>
				<path clip-path="url(#SVGID_6_)" fill="#60C8D3" d="M194.008,244.748c67.578,0,122.361-54.783,122.361-122.362
					c0-67.579-54.783-122.362-122.361-122.362c-67.58,0-122.363,54.783-122.363,122.362
					C71.646,189.965,126.429,244.748,194.008,244.748"/>
			</g>
		</g>
	</g>
	<g opacity="0.7" enable-background="new    ">
		<g>
			<defs>
				<rect id="SVGID_7_" x="240.831" y="101" width="249" height="249"/>
			</defs>
			<clipPath id="SVGID_8_">
				<use xlink:href="#SVGID_7_"  overflow="visible"/>
			</clipPath>
			<g clip-path="url(#SVGID_8_)">
				<defs>
					<rect id="SVGID_9_" x="241.436" y="101.28" width="247.726" height="247.724"/>
				</defs>
				<clipPath id="SVGID_10_">
					<use xlink:href="#SVGID_9_"  overflow="visible"/>
				</clipPath>
				<path clip-path="url(#SVGID_10_)" fill="#D78484" d="M365.299,347.504c67.579,0,122.361-54.783,122.361-122.362
					c0-67.579-54.782-122.362-122.361-122.362s-122.362,54.783-122.362,122.362C242.937,292.721,297.72,347.504,365.299,347.504"/>
				<circle clip-path="url(#SVGID_10_)" fill="none" stroke="#D78484" cx="365.299" cy="225.142" r="122.362"/>
			</g>
		</g>
	</g>
	<g>
		<path fill="#FFFFFF" d="M151.147,120.555v11.568h-1.896v-7.472c0-0.298,0.016-0.621,0.048-0.968l-3.496,6.568
			c-0.165,0.315-0.418,0.472-0.76,0.472h-0.304c-0.341,0-0.595-0.157-0.76-0.472l-3.536-6.592c0.016,0.176,0.029,0.349,0.04,0.52
			c0.011,0.17,0.016,0.328,0.016,0.472v7.472h-1.896v-11.568h1.624c0.096,0,0.179,0.002,0.248,0.008s0.132,0.019,0.188,0.04
			c0.056,0.021,0.106,0.056,0.152,0.104s0.089,0.112,0.132,0.192l3.464,6.424c0.09,0.17,0.174,0.347,0.252,0.528
			c0.077,0.181,0.153,0.368,0.228,0.56c0.074-0.197,0.152-0.388,0.232-0.572c0.08-0.184,0.165-0.361,0.256-0.532l3.416-6.408
			c0.042-0.08,0.088-0.144,0.136-0.192c0.048-0.048,0.1-0.083,0.156-0.104c0.056-0.021,0.119-0.035,0.188-0.04
			s0.152-0.008,0.248-0.008H151.147z"/>
		<path fill="#FFFFFF" d="M165.235,126.338c0,0.848-0.14,1.634-0.42,2.356c-0.28,0.723-0.676,1.348-1.188,1.876
			c-0.512,0.528-1.128,0.94-1.848,1.236c-0.72,0.296-1.52,0.444-2.4,0.444c-0.875,0-1.672-0.148-2.392-0.444
			c-0.72-0.296-1.337-0.708-1.852-1.236c-0.515-0.528-0.914-1.153-1.196-1.876c-0.283-0.722-0.424-1.508-0.424-2.356
			c0-0.848,0.141-1.633,0.424-2.356s0.681-1.348,1.196-1.876c0.515-0.528,1.132-0.94,1.852-1.236
			c0.72-0.296,1.518-0.444,2.392-0.444c0.587,0,1.139,0.068,1.656,0.204c0.517,0.136,0.992,0.328,1.424,0.576
			s0.82,0.549,1.164,0.904c0.344,0.355,0.636,0.751,0.876,1.188c0.24,0.438,0.423,0.912,0.548,1.424
			C165.172,125.234,165.235,125.773,165.235,126.338z M163.035,126.338c0-0.634-0.085-1.204-0.256-1.708
			c-0.17-0.504-0.413-0.932-0.728-1.284c-0.315-0.352-0.698-0.622-1.148-0.808s-0.958-0.28-1.524-0.28s-1.073,0.093-1.524,0.28
			s-0.834,0.456-1.152,0.808s-0.562,0.78-0.732,1.284c-0.171,0.504-0.256,1.074-0.256,1.708c0,0.635,0.085,1.204,0.256,1.708
			c0.17,0.504,0.415,0.931,0.732,1.28s0.701,0.617,1.152,0.804c0.451,0.187,0.958,0.28,1.524,0.28s1.073-0.093,1.524-0.28
			c0.451-0.187,0.833-0.455,1.148-0.804c0.314-0.349,0.557-0.776,0.728-1.28C162.95,127.542,163.035,126.973,163.035,126.338z"/>
		<path fill="#FFFFFF" d="M175.691,122.323h-3.488v9.8h-2.152v-9.8h-3.488v-1.768h9.128V122.323z"/>
		<path fill="#FFFFFF" d="M179.851,132.123h-2.16v-11.568h2.16V132.123z"/>
		<path fill="#FFFFFF" d="M192.827,120.555l-4.672,11.568h-1.944l-4.672-11.568h1.728c0.187,0,0.338,0.045,0.456,0.136
			c0.117,0.091,0.205,0.208,0.264,0.352l2.728,7.056c0.091,0.229,0.177,0.481,0.26,0.756c0.083,0.275,0.161,0.562,0.236,0.86
			c0.064-0.298,0.133-0.585,0.208-0.86c0.075-0.274,0.157-0.526,0.248-0.756l2.712-7.056c0.042-0.123,0.126-0.234,0.252-0.336
			c0.125-0.101,0.279-0.152,0.46-0.152H192.827z"/>
		<path fill="#FFFFFF" d="M204.418,132.123h-1.664c-0.187,0-0.339-0.046-0.456-0.14c-0.118-0.093-0.206-0.209-0.264-0.348
			l-0.864-2.36h-4.792l-0.864,2.36c-0.042,0.123-0.125,0.234-0.248,0.336c-0.123,0.101-0.274,0.152-0.456,0.152h-1.68l4.552-11.568
			h2.192L204.418,132.123z M200.618,127.754l-1.408-3.848c-0.069-0.171-0.142-0.374-0.216-0.608
			c-0.075-0.234-0.149-0.488-0.224-0.76c-0.069,0.272-0.141,0.527-0.216,0.764s-0.146,0.444-0.216,0.62l-1.4,3.832H200.618z"/>
		<path fill="#FFFFFF" d="M214.178,122.323h-3.488v9.8h-2.152v-9.8h-3.488v-1.768h9.128V122.323z"/>
		<path fill="#FFFFFF" d="M227.21,126.338c0,0.848-0.14,1.634-0.42,2.356c-0.28,0.723-0.676,1.348-1.188,1.876
			c-0.512,0.528-1.128,0.94-1.848,1.236c-0.72,0.296-1.52,0.444-2.4,0.444c-0.875,0-1.672-0.148-2.392-0.444
			c-0.72-0.296-1.337-0.708-1.852-1.236c-0.515-0.528-0.914-1.153-1.196-1.876c-0.283-0.722-0.424-1.508-0.424-2.356
			c0-0.848,0.141-1.633,0.424-2.356s0.681-1.348,1.196-1.876c0.515-0.528,1.132-0.94,1.852-1.236
			c0.72-0.296,1.518-0.444,2.392-0.444c0.587,0,1.139,0.068,1.656,0.204c0.517,0.136,0.992,0.328,1.424,0.576
			s0.82,0.549,1.164,0.904c0.344,0.355,0.636,0.751,0.876,1.188c0.24,0.438,0.423,0.912,0.548,1.424
			C227.147,125.234,227.21,125.773,227.21,126.338z M225.01,126.338c0-0.634-0.085-1.204-0.256-1.708
			c-0.17-0.504-0.413-0.932-0.728-1.284c-0.315-0.352-0.698-0.622-1.148-0.808s-0.958-0.28-1.524-0.28s-1.073,0.093-1.524,0.28
			s-0.834,0.456-1.152,0.808s-0.562,0.78-0.732,1.284c-0.171,0.504-0.256,1.074-0.256,1.708c0,0.635,0.085,1.204,0.256,1.708
			c0.17,0.504,0.415,0.931,0.732,1.28s0.701,0.617,1.152,0.804c0.451,0.187,0.958,0.28,1.524,0.28s1.073-0.093,1.524-0.28
			c0.451-0.187,0.833-0.455,1.148-0.804c0.314-0.349,0.557-0.776,0.728-1.28C224.925,127.542,225.01,126.973,225.01,126.338z"/>
		<path fill="#FFFFFF" d="M238.618,132.123h-1.944c-0.368,0-0.635-0.144-0.8-0.432l-2.432-3.704c-0.091-0.138-0.191-0.237-0.3-0.296
			c-0.109-0.059-0.271-0.088-0.484-0.088h-0.92v4.52h-2.152v-11.568h3.528c0.784,0,1.458,0.081,2.02,0.244
			c0.563,0.163,1.024,0.391,1.384,0.684c0.36,0.293,0.625,0.644,0.796,1.052c0.17,0.408,0.256,0.857,0.256,1.348
			c0,0.39-0.057,0.758-0.172,1.104c-0.115,0.347-0.28,0.662-0.496,0.944s-0.483,0.531-0.8,0.744
			c-0.317,0.213-0.679,0.382-1.084,0.504c0.138,0.08,0.267,0.175,0.384,0.284c0.117,0.109,0.224,0.239,0.32,0.388L238.618,132.123z
			 M233.082,126.059c0.405,0,0.758-0.051,1.06-0.152c0.301-0.102,0.549-0.241,0.744-0.42c0.195-0.178,0.34-0.391,0.436-0.636
			c0.096-0.245,0.144-0.515,0.144-0.808c0-0.586-0.193-1.037-0.58-1.352c-0.387-0.314-0.977-0.472-1.772-0.472h-1.376v3.84H233.082z
			"/>
		<path fill="#FFFFFF" d="M246.514,122.659c-0.064,0.112-0.132,0.193-0.204,0.244c-0.072,0.051-0.162,0.076-0.268,0.076
			c-0.112,0-0.233-0.041-0.364-0.124c-0.13-0.083-0.287-0.174-0.468-0.276c-0.182-0.101-0.394-0.193-0.636-0.276
			c-0.243-0.083-0.529-0.124-0.86-0.124c-0.299,0-0.56,0.036-0.784,0.108c-0.224,0.072-0.412,0.172-0.564,0.3
			c-0.152,0.128-0.265,0.282-0.34,0.46c-0.075,0.179-0.112,0.375-0.112,0.588c0,0.272,0.076,0.499,0.228,0.68
			c0.152,0.182,0.353,0.336,0.604,0.464c0.25,0.128,0.536,0.243,0.856,0.344c0.32,0.102,0.648,0.209,0.984,0.324
			s0.664,0.248,0.984,0.4c0.32,0.152,0.605,0.344,0.856,0.576c0.251,0.232,0.452,0.516,0.604,0.852
			c0.152,0.336,0.228,0.744,0.228,1.224c0,0.523-0.089,1.012-0.268,1.468c-0.179,0.456-0.44,0.853-0.784,1.192
			c-0.344,0.338-0.764,0.605-1.26,0.8c-0.496,0.195-1.064,0.292-1.704,0.292c-0.368,0-0.73-0.036-1.088-0.108
			s-0.7-0.175-1.028-0.308s-0.636-0.293-0.924-0.48c-0.288-0.187-0.544-0.395-0.768-0.624l0.632-1.032
			c0.053-0.075,0.123-0.137,0.208-0.188s0.176-0.076,0.272-0.076c0.133,0,0.277,0.055,0.432,0.164
			c0.154,0.109,0.338,0.23,0.552,0.364s0.463,0.255,0.748,0.364s0.628,0.164,1.028,0.164c0.613,0,1.088-0.146,1.424-0.436
			s0.504-0.708,0.504-1.252c0-0.304-0.076-0.552-0.228-0.744s-0.354-0.354-0.604-0.484c-0.25-0.131-0.536-0.241-0.856-0.332
			s-0.646-0.189-0.976-0.296c-0.331-0.107-0.656-0.235-0.976-0.384c-0.32-0.149-0.605-0.344-0.856-0.584
			c-0.25-0.24-0.452-0.54-0.604-0.9c-0.152-0.36-0.228-0.804-0.228-1.332c0-0.421,0.084-0.832,0.252-1.232s0.412-0.755,0.732-1.064
			c0.32-0.31,0.714-0.558,1.184-0.744s1.008-0.28,1.616-0.28c0.683,0,1.312,0.106,1.888,0.32c0.576,0.213,1.066,0.512,1.472,0.896
			L246.514,122.659z"/>
	</g>
	<g>
		<path fill="#FFFFFF" d="M318.64,199.634c0.773,0,1.442,0.091,2.008,0.272s1.032,0.435,1.4,0.76s0.642,0.715,0.82,1.168
			s0.268,0.949,0.268,1.488c0,0.56-0.094,1.073-0.28,1.54s-0.467,0.868-0.84,1.204s-0.841,0.597-1.404,0.784
			c-0.563,0.187-1.22,0.279-1.972,0.279h-1.607v4.072h-2.152v-11.568H318.64z M318.64,205.45c0.395,0,0.739-0.049,1.032-0.148
			c0.293-0.099,0.537-0.239,0.731-0.424c0.195-0.184,0.341-0.408,0.437-0.672s0.144-0.559,0.144-0.884c0-0.31-0.048-0.59-0.144-0.84
			c-0.096-0.251-0.24-0.464-0.432-0.641c-0.192-0.176-0.436-0.311-0.729-0.403c-0.293-0.094-0.64-0.141-1.04-0.141h-1.607v4.152
			H318.64z"/>
		<path fill="#FFFFFF" d="M327.424,201.346v3.208h4.048v1.656h-4.048v3.272h5.136v1.72h-7.296v-11.568h7.296v1.712H327.424z"/>
		<path fill="#FFFFFF" d="M343.976,211.202h-1.944c-0.368,0-0.635-0.144-0.8-0.432l-2.433-3.704c-0.09-0.139-0.19-0.237-0.3-0.296
			s-0.271-0.088-0.483-0.088h-0.92v4.52h-2.152v-11.568h3.528c0.783,0,1.457,0.082,2.02,0.244c0.563,0.163,1.024,0.391,1.384,0.685
			c0.36,0.293,0.626,0.644,0.796,1.052c0.171,0.408,0.257,0.857,0.257,1.348c0,0.39-0.058,0.758-0.173,1.104
			c-0.114,0.347-0.279,0.661-0.496,0.943c-0.216,0.283-0.482,0.531-0.8,0.744c-0.317,0.214-0.679,0.382-1.084,0.504
			c0.139,0.08,0.267,0.175,0.384,0.284c0.118,0.109,0.225,0.239,0.32,0.388L343.976,211.202z M338.439,205.138
			c0.405,0,0.759-0.05,1.06-0.151c0.302-0.102,0.55-0.241,0.744-0.42s0.34-0.391,0.437-0.637c0.096-0.245,0.144-0.515,0.144-0.808
			c0-0.587-0.193-1.037-0.58-1.352c-0.387-0.315-0.978-0.473-1.771-0.473h-1.376v3.84H338.439z"/>
		<path fill="#FFFFFF" d="M353.656,208.475c0.117,0,0.221,0.045,0.312,0.136l0.848,0.92c-0.469,0.581-1.046,1.026-1.731,1.336
			s-1.508,0.464-2.468,0.464c-0.859,0-1.631-0.146-2.316-0.439c-0.686-0.294-1.271-0.702-1.756-1.225s-0.857-1.146-1.116-1.872
			c-0.259-0.725-0.388-1.517-0.388-2.376c0-0.869,0.139-1.665,0.416-2.388s0.668-1.346,1.172-1.868s1.105-0.93,1.804-1.22
			c0.699-0.291,1.473-0.437,2.32-0.437c0.843,0,1.591,0.139,2.244,0.416s1.209,0.641,1.668,1.088l-0.721,1
			c-0.042,0.064-0.097,0.12-0.163,0.168c-0.067,0.049-0.159,0.072-0.276,0.072c-0.08,0-0.163-0.022-0.248-0.067
			c-0.085-0.046-0.179-0.102-0.28-0.169c-0.102-0.066-0.219-0.14-0.352-0.22c-0.134-0.08-0.288-0.153-0.464-0.22
			c-0.177-0.066-0.38-0.123-0.612-0.168s-0.5-0.068-0.804-0.068c-0.518,0-0.991,0.092-1.42,0.276c-0.43,0.184-0.799,0.45-1.108,0.8
			s-0.55,0.776-0.72,1.28c-0.171,0.504-0.256,1.078-0.256,1.724c0,0.651,0.092,1.229,0.275,1.736
			c0.185,0.507,0.434,0.934,0.748,1.28s0.686,0.611,1.112,0.796c0.427,0.184,0.885,0.275,1.376,0.275
			c0.293,0,0.559-0.016,0.796-0.048s0.456-0.082,0.656-0.152c0.2-0.068,0.389-0.158,0.567-0.268s0.356-0.244,0.532-0.404
			c0.054-0.048,0.109-0.086,0.168-0.115S353.592,208.475,353.656,208.475z"/>
		<path fill="#FFFFFF" d="M358.936,201.346v3.208h4.048v1.656h-4.048v3.272h5.136v1.72h-7.296v-11.568h7.296v1.712H358.936z"/>
		<path fill="#FFFFFF" d="M370.215,199.634c0.773,0,1.442,0.091,2.008,0.272s1.032,0.435,1.4,0.76s0.642,0.715,0.82,1.168
			s0.268,0.949,0.268,1.488c0,0.56-0.094,1.073-0.28,1.54s-0.467,0.868-0.84,1.204s-0.841,0.597-1.404,0.784
			c-0.563,0.187-1.22,0.279-1.972,0.279h-1.607v4.072h-2.152v-11.568H370.215z M370.215,205.45c0.395,0,0.739-0.049,1.032-0.148
			c0.293-0.099,0.537-0.239,0.731-0.424c0.195-0.184,0.341-0.408,0.437-0.672s0.144-0.559,0.144-0.884c0-0.31-0.048-0.59-0.144-0.84
			c-0.096-0.251-0.24-0.464-0.432-0.641c-0.192-0.176-0.436-0.311-0.729-0.403c-0.293-0.094-0.64-0.141-1.04-0.141h-1.607v4.152
			H370.215z"/>
		<path fill="#FFFFFF" d="M384.919,201.402h-3.488v9.8h-2.152v-9.8h-3.487v-1.769h9.128V201.402z"/>
		<path fill="#FFFFFF" d="M389.079,211.202h-2.16v-11.568h2.16V211.202z"/>
		<path fill="#FFFFFF" d="M403.175,205.418c0,0.849-0.141,1.634-0.42,2.356c-0.28,0.723-0.677,1.348-1.188,1.876
			c-0.512,0.527-1.128,0.939-1.848,1.235c-0.721,0.297-1.521,0.444-2.4,0.444c-0.875,0-1.672-0.147-2.392-0.444
			c-0.721-0.296-1.338-0.708-1.853-1.235c-0.515-0.528-0.913-1.153-1.195-1.876c-0.283-0.723-0.425-1.508-0.425-2.356
			c0-0.848,0.142-1.633,0.425-2.355c0.282-0.723,0.681-1.349,1.195-1.876c0.515-0.528,1.132-0.94,1.853-1.236
			c0.72-0.296,1.517-0.444,2.392-0.444c0.587,0,1.139,0.068,1.656,0.204s0.992,0.328,1.424,0.576s0.82,0.55,1.164,0.904
			s0.636,0.75,0.876,1.188s0.423,0.912,0.548,1.424C403.111,204.314,403.175,204.853,403.175,205.418z M400.975,205.418
			c0-0.635-0.086-1.204-0.256-1.708c-0.171-0.504-0.414-0.932-0.729-1.284c-0.314-0.352-0.697-0.621-1.147-0.808
			c-0.451-0.187-0.959-0.28-1.524-0.28s-1.073,0.094-1.523,0.28c-0.451,0.187-0.835,0.456-1.152,0.808
			c-0.317,0.353-0.562,0.78-0.732,1.284s-0.256,1.073-0.256,1.708s0.085,1.204,0.256,1.708s0.415,0.931,0.732,1.28
			s0.701,0.617,1.152,0.804c0.45,0.187,0.958,0.28,1.523,0.28s1.073-0.094,1.524-0.28c0.45-0.187,0.833-0.454,1.147-0.804
			s0.558-0.776,0.729-1.28C400.889,206.622,400.975,206.053,400.975,205.418z"/>
		<path fill="#FFFFFF" d="M415.303,199.634v11.568h-1.104c-0.17,0-0.313-0.028-0.428-0.084c-0.114-0.056-0.226-0.15-0.332-0.284
			l-6.04-7.712c0.032,0.353,0.048,0.678,0.048,0.977v7.104h-1.896v-11.568h1.128c0.091,0,0.169,0.004,0.236,0.013
			c0.066,0.008,0.125,0.023,0.176,0.048c0.051,0.023,0.1,0.059,0.147,0.104c0.049,0.046,0.102,0.105,0.16,0.181l6.064,7.743
			c-0.017-0.187-0.029-0.37-0.04-0.552c-0.011-0.181-0.017-0.349-0.017-0.504v-7.032H415.303z"/>
		<path fill="#FFFFFF" d="M321.144,224.618c0,0.849-0.141,1.634-0.42,2.356c-0.28,0.723-0.677,1.348-1.188,1.876
			c-0.512,0.527-1.128,0.939-1.848,1.235c-0.721,0.297-1.521,0.444-2.4,0.444c-0.875,0-1.672-0.147-2.392-0.444
			c-0.721-0.296-1.338-0.708-1.853-1.235c-0.515-0.528-0.913-1.153-1.195-1.876c-0.283-0.723-0.425-1.508-0.425-2.356
			c0-0.848,0.142-1.633,0.425-2.355c0.282-0.723,0.681-1.349,1.195-1.876c0.515-0.528,1.132-0.94,1.853-1.236
			c0.72-0.296,1.517-0.444,2.392-0.444c0.587,0,1.139,0.068,1.656,0.204s0.992,0.328,1.424,0.576s0.82,0.55,1.164,0.904
			s0.636,0.75,0.876,1.188s0.423,0.912,0.548,1.424C321.08,223.515,321.144,224.053,321.144,224.618z M318.943,224.618
			c0-0.635-0.086-1.204-0.256-1.708c-0.171-0.504-0.414-0.932-0.729-1.284c-0.314-0.352-0.697-0.621-1.147-0.808
			c-0.451-0.187-0.959-0.28-1.524-0.28s-1.073,0.094-1.523,0.28c-0.451,0.187-0.835,0.456-1.152,0.808
			c-0.317,0.353-0.562,0.78-0.732,1.284s-0.256,1.073-0.256,1.708s0.085,1.204,0.256,1.708s0.415,0.931,0.732,1.28
			s0.701,0.617,1.152,0.804c0.45,0.187,0.958,0.28,1.523,0.28s1.073-0.094,1.524-0.28c0.45-0.187,0.833-0.454,1.147-0.804
			s0.558-0.776,0.729-1.28C318.857,225.822,318.943,225.253,318.943,224.618z"/>
		<path fill="#FFFFFF" d="M325.68,220.546v3.425h4.336v1.72h-4.336v4.712h-2.16v-11.568h7.296v1.712H325.68z"/>
		<path fill="#FFFFFF" d="M345.367,227.675c0.117,0,0.221,0.045,0.312,0.136l0.848,0.92c-0.469,0.581-1.046,1.026-1.731,1.336
			s-1.508,0.464-2.468,0.464c-0.859,0-1.631-0.146-2.316-0.439c-0.686-0.294-1.271-0.702-1.756-1.225s-0.857-1.146-1.116-1.872
			c-0.259-0.725-0.388-1.517-0.388-2.376c0-0.869,0.139-1.665,0.416-2.388s0.668-1.346,1.172-1.868s1.105-0.93,1.804-1.22
			c0.699-0.291,1.473-0.437,2.32-0.437c0.843,0,1.591,0.139,2.244,0.416s1.209,0.641,1.668,1.088l-0.721,1
			c-0.042,0.064-0.097,0.12-0.163,0.168c-0.067,0.049-0.159,0.072-0.276,0.072c-0.08,0-0.163-0.022-0.248-0.067
			c-0.085-0.046-0.179-0.102-0.28-0.169c-0.102-0.066-0.219-0.14-0.352-0.22c-0.134-0.08-0.288-0.153-0.464-0.22
			c-0.177-0.066-0.38-0.123-0.612-0.168s-0.5-0.068-0.804-0.068c-0.518,0-0.991,0.092-1.42,0.276c-0.43,0.184-0.799,0.45-1.108,0.8
			s-0.55,0.776-0.72,1.28c-0.171,0.504-0.256,1.078-0.256,1.724c0,0.651,0.092,1.229,0.275,1.736
			c0.185,0.507,0.434,0.934,0.748,1.28s0.686,0.611,1.112,0.796c0.427,0.184,0.885,0.275,1.376,0.275
			c0.293,0,0.559-0.016,0.796-0.048s0.456-0.082,0.656-0.152c0.2-0.068,0.389-0.158,0.567-0.268s0.356-0.244,0.532-0.404
			c0.054-0.048,0.109-0.086,0.168-0.115S345.303,227.675,345.367,227.675z"/>
		<path fill="#FFFFFF" d="M359.52,224.618c0,0.849-0.141,1.634-0.42,2.356c-0.28,0.723-0.677,1.348-1.188,1.876
			c-0.512,0.527-1.128,0.939-1.848,1.235c-0.721,0.297-1.521,0.444-2.4,0.444c-0.875,0-1.672-0.147-2.392-0.444
			c-0.721-0.296-1.338-0.708-1.853-1.235c-0.515-0.528-0.913-1.153-1.195-1.876c-0.283-0.723-0.425-1.508-0.425-2.356
			c0-0.848,0.142-1.633,0.425-2.355c0.282-0.723,0.681-1.349,1.195-1.876c0.515-0.528,1.132-0.94,1.853-1.236
			c0.72-0.296,1.517-0.444,2.392-0.444c0.587,0,1.139,0.068,1.656,0.204s0.992,0.328,1.424,0.576s0.82,0.55,1.164,0.904
			s0.636,0.75,0.876,1.188s0.423,0.912,0.548,1.424C359.456,223.515,359.52,224.053,359.52,224.618z M357.319,224.618
			c0-0.635-0.086-1.204-0.256-1.708c-0.171-0.504-0.414-0.932-0.729-1.284c-0.314-0.352-0.697-0.621-1.147-0.808
			c-0.451-0.187-0.959-0.28-1.524-0.28s-1.073,0.094-1.523,0.28c-0.451,0.187-0.835,0.456-1.152,0.808
			c-0.317,0.353-0.562,0.78-0.732,1.284s-0.256,1.073-0.256,1.708s0.085,1.204,0.256,1.708s0.415,0.931,0.732,1.28
			s0.701,0.617,1.152,0.804c0.45,0.187,0.958,0.28,1.523,0.28s1.073-0.094,1.524-0.28c0.45-0.187,0.833-0.454,1.147-0.804
			s0.558-0.776,0.729-1.28C357.233,225.822,357.319,225.253,357.319,224.618z"/>
		<path fill="#FFFFFF" d="M374.439,218.834v11.568h-1.896v-7.472c0-0.299,0.017-0.621,0.049-0.969l-3.496,6.568
			c-0.166,0.314-0.419,0.472-0.761,0.472h-0.304c-0.341,0-0.595-0.157-0.76-0.472l-3.536-6.592c0.016,0.176,0.029,0.35,0.04,0.52
			c0.011,0.171,0.016,0.328,0.016,0.473v7.472h-1.896v-11.568h1.624c0.096,0,0.179,0.003,0.248,0.009
			c0.069,0.005,0.132,0.019,0.188,0.04c0.057,0.021,0.107,0.056,0.152,0.104s0.089,0.112,0.132,0.192l3.464,6.424
			c0.091,0.171,0.175,0.347,0.252,0.527c0.077,0.182,0.153,0.368,0.229,0.561c0.074-0.197,0.151-0.388,0.231-0.572
			c0.08-0.184,0.166-0.361,0.257-0.532l3.416-6.407c0.042-0.08,0.088-0.145,0.136-0.192s0.1-0.083,0.156-0.104
			c0.056-0.021,0.118-0.035,0.188-0.04c0.069-0.006,0.152-0.009,0.248-0.009H374.439z"/>
		<path fill="#FFFFFF" d="M381.255,218.834c0.773,0,1.442,0.091,2.008,0.272s1.032,0.435,1.4,0.76s0.642,0.715,0.82,1.168
			s0.268,0.949,0.268,1.488c0,0.56-0.094,1.073-0.28,1.54s-0.467,0.868-0.84,1.204s-0.841,0.597-1.404,0.784
			c-0.563,0.187-1.22,0.279-1.972,0.279h-1.607v4.072h-2.152v-11.568H381.255z M381.255,224.65c0.395,0,0.739-0.049,1.032-0.148
			c0.293-0.099,0.537-0.239,0.731-0.424c0.195-0.184,0.341-0.408,0.437-0.672s0.144-0.559,0.144-0.884c0-0.31-0.048-0.59-0.144-0.84
			c-0.096-0.251-0.24-0.464-0.432-0.641c-0.192-0.176-0.436-0.311-0.729-0.403c-0.293-0.094-0.64-0.141-1.04-0.141h-1.607v4.152
			H381.255z"/>
		<path fill="#FFFFFF" d="M397.791,230.402h-1.664c-0.187,0-0.339-0.047-0.456-0.14c-0.117-0.094-0.205-0.21-0.264-0.349
			l-0.864-2.359h-4.792l-0.864,2.359c-0.043,0.123-0.125,0.235-0.248,0.336c-0.123,0.102-0.274,0.152-0.456,0.152h-1.68
			l4.552-11.568h2.192L397.791,230.402z M393.991,226.034l-1.408-3.848c-0.069-0.171-0.142-0.373-0.216-0.608
			c-0.075-0.234-0.149-0.487-0.225-0.76c-0.069,0.272-0.142,0.526-0.216,0.764s-0.146,0.444-0.216,0.62l-1.4,3.832H393.991z"/>
		<path fill="#FFFFFF" d="M409.223,218.834v11.568h-1.104c-0.17,0-0.313-0.028-0.428-0.084c-0.114-0.056-0.226-0.15-0.332-0.284
			l-6.04-7.712c0.032,0.353,0.048,0.678,0.048,0.977v7.104h-1.896v-11.568h1.128c0.091,0,0.169,0.004,0.236,0.013
			c0.066,0.008,0.125,0.023,0.176,0.048c0.051,0.023,0.1,0.059,0.147,0.104c0.049,0.046,0.102,0.105,0.16,0.181l6.064,7.743
			c-0.017-0.187-0.029-0.37-0.04-0.552c-0.011-0.181-0.017-0.349-0.017-0.504v-7.032H409.223z"/>
		<path fill="#FFFFFF" d="M417.246,225.922v4.48h-2.144v-4.48l-4.216-7.088h1.896c0.187,0,0.335,0.046,0.444,0.137
			s0.201,0.205,0.275,0.344l2.112,3.864c0.123,0.229,0.23,0.445,0.324,0.647c0.093,0.203,0.177,0.405,0.252,0.608
			c0.069-0.203,0.149-0.405,0.24-0.608c0.09-0.202,0.194-0.418,0.312-0.647l2.104-3.864c0.059-0.117,0.146-0.227,0.264-0.328
			s0.267-0.152,0.448-0.152h1.903L417.246,225.922z"/>
		<path fill="#FFFFFF" d="M337.012,246.875c0.117,0,0.221,0.045,0.312,0.136l0.848,0.92c-0.469,0.581-1.046,1.026-1.731,1.336
			s-1.508,0.464-2.468,0.464c-0.859,0-1.631-0.146-2.316-0.439c-0.686-0.294-1.271-0.702-1.756-1.225s-0.857-1.146-1.116-1.872
			c-0.259-0.725-0.388-1.517-0.388-2.376c0-0.869,0.139-1.665,0.416-2.388s0.668-1.346,1.172-1.868s1.105-0.93,1.804-1.22
			c0.699-0.291,1.473-0.437,2.32-0.437c0.843,0,1.591,0.139,2.244,0.416s1.209,0.641,1.668,1.088l-0.721,1
			c-0.042,0.064-0.097,0.12-0.163,0.168c-0.067,0.049-0.159,0.072-0.276,0.072c-0.08,0-0.163-0.022-0.248-0.067
			c-0.085-0.046-0.179-0.102-0.28-0.169c-0.102-0.066-0.219-0.14-0.352-0.22c-0.134-0.08-0.288-0.153-0.464-0.22
			c-0.177-0.066-0.38-0.123-0.612-0.168s-0.5-0.068-0.804-0.068c-0.518,0-0.991,0.092-1.42,0.276c-0.43,0.184-0.799,0.45-1.108,0.8
			s-0.55,0.776-0.72,1.28c-0.171,0.504-0.256,1.078-0.256,1.724c0,0.651,0.092,1.229,0.275,1.736
			c0.185,0.507,0.434,0.934,0.748,1.28s0.686,0.611,1.112,0.796c0.427,0.184,0.885,0.275,1.376,0.275
			c0.293,0,0.559-0.016,0.796-0.048s0.456-0.082,0.656-0.152c0.2-0.068,0.389-0.158,0.567-0.268s0.356-0.244,0.532-0.404
			c0.054-0.048,0.109-0.086,0.168-0.115S336.947,246.875,337.012,246.875z"/>
		<path fill="#FFFFFF" d="M344.788,247.866c0.416,0,0.788-0.069,1.115-0.208c0.328-0.139,0.604-0.333,0.828-0.584
			c0.225-0.25,0.396-0.555,0.517-0.912c0.12-0.356,0.18-0.757,0.18-1.199v-6.929h2.152v6.929c0,0.688-0.111,1.323-0.332,1.907
			c-0.222,0.584-0.539,1.089-0.952,1.513s-0.916,0.755-1.508,0.992c-0.593,0.236-1.259,0.355-2,0.355
			c-0.747,0-1.416-0.119-2.009-0.355c-0.592-0.237-1.095-0.568-1.508-0.992s-0.73-0.929-0.952-1.513
			c-0.221-0.584-0.332-1.22-0.332-1.907v-6.929h2.152v6.92c0,0.443,0.061,0.843,0.18,1.2c0.12,0.357,0.294,0.663,0.521,0.916
			c0.227,0.254,0.504,0.449,0.832,0.588S344.372,247.866,344.788,247.866z"/>
		<path fill="#FFFFFF" d="M359.268,247.826v1.776h-6.776v-11.568h2.152v9.792H359.268z"/>
		<path fill="#FFFFFF" d="M369.363,239.803h-3.488v9.8h-2.152v-9.8h-3.487v-1.769h9.128V239.803z"/>
		<path fill="#FFFFFF" d="M376.02,247.866c0.416,0,0.788-0.069,1.115-0.208c0.328-0.139,0.604-0.333,0.828-0.584
			c0.225-0.25,0.396-0.555,0.517-0.912c0.12-0.356,0.18-0.757,0.18-1.199v-6.929h2.152v6.929c0,0.688-0.111,1.323-0.332,1.907
			c-0.222,0.584-0.539,1.089-0.952,1.513s-0.916,0.755-1.508,0.992c-0.593,0.236-1.259,0.355-2,0.355
			c-0.747,0-1.416-0.119-2.009-0.355c-0.592-0.237-1.095-0.568-1.508-0.992s-0.73-0.929-0.952-1.513
			c-0.221-0.584-0.332-1.22-0.332-1.907v-6.929h2.152v6.92c0,0.443,0.061,0.843,0.18,1.2c0.12,0.357,0.294,0.663,0.521,0.916
			c0.227,0.254,0.504,0.449,0.832,0.588S375.604,247.866,376.02,247.866z"/>
		<path fill="#FFFFFF" d="M392.755,249.603h-1.944c-0.368,0-0.635-0.144-0.8-0.432l-2.433-3.704c-0.09-0.139-0.19-0.237-0.3-0.296
			s-0.271-0.088-0.483-0.088h-0.92v4.52h-2.152v-11.568h3.528c0.783,0,1.457,0.082,2.02,0.244c0.563,0.163,1.024,0.391,1.384,0.685
			c0.36,0.293,0.626,0.644,0.796,1.052c0.171,0.408,0.257,0.857,0.257,1.348c0,0.39-0.058,0.758-0.173,1.104
			c-0.114,0.347-0.279,0.661-0.496,0.943c-0.216,0.283-0.482,0.531-0.8,0.744c-0.317,0.214-0.679,0.382-1.084,0.504
			c0.139,0.08,0.267,0.175,0.384,0.284c0.118,0.109,0.225,0.239,0.32,0.388L392.755,249.603z M387.219,243.538
			c0.405,0,0.759-0.05,1.06-0.151c0.302-0.102,0.55-0.241,0.744-0.42s0.34-0.391,0.437-0.637c0.096-0.245,0.144-0.515,0.144-0.808
			c0-0.587-0.193-1.037-0.58-1.352c-0.387-0.315-0.978-0.473-1.771-0.473h-1.376v3.84H387.219z"/>
		<path fill="#FFFFFF" d="M396.65,239.746v3.208h4.048v1.656h-4.048v3.272h5.136v1.72h-7.296v-11.568h7.296v1.712H396.65z"/>
	</g>
	<g>
		<path fill="#FFFFFF" d="M346.143,17.486v2.568h3.252v1.29h-3.252v3.534h-1.62v-8.676h5.473v1.284H346.143z"/>
		<path fill="#FFFFFF" d="M356.337,18.723v6.156h-0.906c-0.196,0-0.32-0.09-0.372-0.27l-0.102-0.492
			c-0.252,0.256-0.53,0.463-0.834,0.621c-0.305,0.158-0.662,0.237-1.074,0.237c-0.336,0-0.633-0.057-0.891-0.171
			c-0.259-0.114-0.476-0.275-0.651-0.483s-0.309-0.455-0.399-0.741c-0.09-0.286-0.135-0.601-0.135-0.945v-3.912h1.482v3.912
			c0,0.376,0.087,0.667,0.261,0.873s0.435,0.309,0.783,0.309c0.256,0,0.496-0.057,0.72-0.171c0.224-0.114,0.436-0.271,0.636-0.471
			v-4.452H356.337z"/>
		<path fill="#FFFFFF" d="M359.253,15.962v8.916h-1.482v-8.916H359.253z"/>
		<path fill="#FFFFFF" d="M361.125,24.878v-5.04l-0.534-0.084c-0.116-0.024-0.209-0.065-0.278-0.123
			c-0.07-0.058-0.105-0.141-0.105-0.249v-0.606h0.918v-0.198c0-0.376,0.063-0.725,0.187-1.047c0.123-0.322,0.312-0.601,0.563-0.837
			c0.252-0.236,0.571-0.421,0.957-0.555c0.386-0.134,0.841-0.201,1.365-0.201c0.168,0,0.339,0.009,0.513,0.027
			s0.325,0.047,0.453,0.087l-0.048,0.768c-0.008,0.092-0.059,0.147-0.15,0.165s-0.206,0.027-0.342,0.027
			c-0.388,0-0.713,0.034-0.975,0.102c-0.263,0.068-0.475,0.169-0.637,0.303s-0.277,0.302-0.348,0.504s-0.105,0.437-0.105,0.705v0.15
			h3.816v6.102h-1.481v-5.046h-2.286v5.046H361.125z"/>
		<path fill="#FFFFFF" d="M369.345,15.962v8.916h-1.482v-8.916H369.345z"/>
		<path fill="#FFFFFF" d="M372.279,15.962v8.916h-1.482v-8.916H372.279z"/>
		<path fill="#FFFFFF" d="M374.853,21.986c0.024,0.316,0.08,0.589,0.168,0.819c0.088,0.23,0.204,0.42,0.348,0.57
			c0.145,0.15,0.315,0.262,0.514,0.336c0.197,0.074,0.417,0.111,0.656,0.111c0.24,0,0.447-0.028,0.621-0.084
			c0.174-0.056,0.326-0.118,0.456-0.186c0.13-0.068,0.244-0.13,0.342-0.186c0.099-0.056,0.193-0.084,0.285-0.084
			c0.124,0,0.216,0.046,0.276,0.138l0.426,0.54c-0.164,0.192-0.348,0.353-0.552,0.483s-0.417,0.234-0.639,0.312
			c-0.223,0.078-0.448,0.133-0.679,0.165c-0.229,0.032-0.453,0.048-0.669,0.048c-0.428,0-0.826-0.071-1.193-0.213
			c-0.368-0.142-0.688-0.352-0.96-0.63c-0.272-0.278-0.486-0.622-0.643-1.032c-0.156-0.41-0.233-0.885-0.233-1.425
			c0-0.42,0.067-0.815,0.203-1.185c0.137-0.37,0.331-0.692,0.585-0.966c0.255-0.274,0.564-0.491,0.931-0.651
			c0.366-0.16,0.778-0.24,1.238-0.24c0.389,0,0.746,0.062,1.074,0.186s0.61,0.305,0.847,0.543c0.235,0.238,0.421,0.53,0.555,0.876
			s0.201,0.741,0.201,1.185c0,0.224-0.024,0.375-0.072,0.453c-0.048,0.078-0.14,0.117-0.276,0.117H374.853z M377.679,21.092
			c0-0.192-0.027-0.373-0.081-0.543s-0.135-0.319-0.243-0.447s-0.245-0.229-0.411-0.303c-0.166-0.074-0.359-0.111-0.579-0.111
			c-0.428,0-0.765,0.122-1.011,0.366c-0.246,0.244-0.403,0.59-0.471,1.038H377.679z"/>
		<path fill="#FFFFFF" d="M385.418,15.962v8.916h-0.906c-0.196,0-0.32-0.09-0.372-0.27l-0.126-0.594
			c-0.248,0.284-0.533,0.514-0.854,0.69c-0.322,0.176-0.697,0.264-1.125,0.264c-0.336,0-0.645-0.07-0.925-0.21
			c-0.279-0.14-0.521-0.343-0.723-0.609s-0.357-0.595-0.468-0.987s-0.165-0.84-0.165-1.344c0-0.456,0.062-0.88,0.186-1.272
			s0.303-0.732,0.534-1.02c0.232-0.288,0.51-0.513,0.834-0.675c0.324-0.162,0.688-0.243,1.092-0.243
			c0.345,0,0.639,0.054,0.883,0.162c0.243,0.108,0.462,0.254,0.653,0.438v-3.246H385.418z M383.936,20.294
			c-0.168-0.204-0.351-0.348-0.549-0.432s-0.411-0.126-0.639-0.126c-0.225,0-0.426,0.042-0.606,0.126
			c-0.18,0.084-0.334,0.211-0.462,0.381c-0.128,0.17-0.226,0.386-0.294,0.648c-0.068,0.262-0.102,0.571-0.102,0.927
			c0,0.36,0.028,0.665,0.087,0.915c0.058,0.25,0.141,0.454,0.249,0.612c0.107,0.158,0.239,0.272,0.396,0.342s0.33,0.105,0.522,0.105
			c0.308,0,0.569-0.064,0.786-0.192c0.216-0.128,0.42-0.31,0.611-0.546V20.294z"/>
		<path fill="#FFFFFF" d="M389.703,24.878v-6.156h0.905c0.192,0,0.318,0.09,0.378,0.27l0.097,0.456
			c0.107-0.12,0.221-0.23,0.339-0.33c0.118-0.1,0.244-0.186,0.378-0.258c0.134-0.072,0.278-0.129,0.432-0.171
			c0.154-0.042,0.323-0.063,0.507-0.063c0.389,0,0.707,0.105,0.957,0.315s0.438,0.489,0.562,0.837
			c0.096-0.204,0.216-0.379,0.36-0.525c0.144-0.146,0.302-0.265,0.474-0.357s0.354-0.16,0.549-0.204s0.389-0.066,0.585-0.066
			c0.34,0,0.643,0.052,0.906,0.156c0.264,0.104,0.486,0.256,0.666,0.456c0.18,0.2,0.316,0.444,0.411,0.732
			c0.094,0.288,0.141,0.618,0.141,0.99v3.918h-1.481V20.96c0-0.392-0.087-0.687-0.259-0.885c-0.172-0.198-0.424-0.297-0.756-0.297
			c-0.152,0-0.293,0.026-0.423,0.078c-0.13,0.052-0.244,0.127-0.342,0.225c-0.099,0.098-0.175,0.221-0.231,0.369
			c-0.056,0.148-0.084,0.318-0.084,0.51v3.918h-1.487V20.96c0-0.412-0.084-0.712-0.249-0.9c-0.166-0.188-0.409-0.282-0.729-0.282
			c-0.216,0-0.417,0.053-0.603,0.159c-0.187,0.106-0.359,0.251-0.52,0.435v4.506H389.703z"/>
		<path fill="#FFFFFF" d="M402.428,18.626c0.456,0,0.871,0.074,1.245,0.222s0.693,0.358,0.96,0.63
			c0.266,0.272,0.471,0.604,0.615,0.996c0.144,0.392,0.216,0.83,0.216,1.314c0,0.488-0.072,0.928-0.216,1.32
			c-0.145,0.392-0.35,0.726-0.615,1.002c-0.267,0.276-0.586,0.488-0.96,0.636s-0.789,0.222-1.245,0.222
			c-0.46,0-0.878-0.074-1.254-0.222s-0.697-0.36-0.963-0.636c-0.267-0.276-0.473-0.61-0.618-1.002
			c-0.146-0.392-0.219-0.832-0.219-1.32c0-0.484,0.072-0.922,0.219-1.314c0.146-0.392,0.352-0.724,0.618-0.996
			c0.266-0.272,0.587-0.482,0.963-0.63S401.968,18.626,402.428,18.626z M402.428,23.829c0.512,0,0.891-0.172,1.137-0.516
			c0.246-0.344,0.369-0.848,0.369-1.512c0-0.664-0.123-1.17-0.369-1.518c-0.246-0.348-0.625-0.522-1.137-0.522
			c-0.521,0-0.905,0.175-1.155,0.525c-0.25,0.35-0.375,0.855-0.375,1.515c0,0.66,0.125,1.163,0.375,1.509
			C401.523,23.655,401.908,23.829,402.428,23.829z"/>
		<path fill="#FFFFFF" d="M412.76,24.878h-1.482v-5.046h-2.856v3.336c0,0.192,0.048,0.342,0.142,0.45
			c0.094,0.108,0.223,0.162,0.387,0.162c0.092,0,0.169-0.011,0.231-0.033c0.062-0.022,0.115-0.045,0.162-0.069
			c0.046-0.024,0.087-0.047,0.123-0.069c0.035-0.022,0.071-0.033,0.107-0.033c0.044,0,0.08,0.011,0.108,0.033
			c0.027,0.022,0.058,0.055,0.09,0.099l0.444,0.72c-0.217,0.18-0.465,0.316-0.744,0.408c-0.28,0.092-0.57,0.138-0.87,0.138
			c-0.536,0-0.947-0.151-1.233-0.453c-0.286-0.302-0.429-0.719-0.429-1.251v-3.438h-0.63c-0.08,0-0.148-0.026-0.204-0.078
			c-0.056-0.052-0.084-0.13-0.084-0.234v-0.588l0.99-0.168l0.312-1.674c0.021-0.08,0.058-0.142,0.114-0.186
			c0.056-0.044,0.128-0.066,0.216-0.066h0.768v1.938h4.339V24.878z M413.018,16.904c0,0.128-0.026,0.249-0.078,0.363
			c-0.052,0.114-0.121,0.213-0.207,0.297s-0.188,0.151-0.306,0.201c-0.118,0.05-0.243,0.075-0.375,0.075
			c-0.129,0-0.248-0.025-0.36-0.075c-0.112-0.05-0.21-0.117-0.294-0.201s-0.151-0.183-0.201-0.297
			c-0.05-0.114-0.075-0.235-0.075-0.363c0-0.132,0.025-0.255,0.075-0.369c0.05-0.114,0.117-0.214,0.201-0.3s0.182-0.154,0.294-0.204
			c0.112-0.05,0.231-0.075,0.36-0.075c0.132,0,0.257,0.025,0.375,0.075c0.117,0.05,0.22,0.118,0.306,0.204s0.155,0.186,0.207,0.3
			C412.992,16.649,413.018,16.772,413.018,16.904z"/>
		<path fill="#FFFFFF" d="M419.774,18.723l-2.442,6.156h-1.344l-2.442-6.156h1.225c0.111,0,0.205,0.026,0.278,0.078
			c0.074,0.052,0.123,0.118,0.147,0.198l1.188,3.288c0.064,0.192,0.12,0.38,0.168,0.564c0.049,0.184,0.091,0.368,0.126,0.552
			c0.04-0.184,0.084-0.368,0.133-0.552c0.048-0.184,0.105-0.372,0.174-0.564l1.212-3.288c0.028-0.08,0.078-0.146,0.149-0.198
			c0.072-0.052,0.158-0.078,0.259-0.078H419.774z"/>
		<path fill="#FFFFFF" d="M420.368,19.581c0.708-0.648,1.561-0.972,2.556-0.972c0.36,0,0.683,0.059,0.967,0.177
			c0.283,0.118,0.523,0.282,0.72,0.492s0.345,0.461,0.447,0.753c0.102,0.292,0.152,0.612,0.152,0.96v3.888h-0.672
			c-0.14,0-0.248-0.021-0.324-0.063c-0.075-0.042-0.136-0.127-0.18-0.255l-0.132-0.444c-0.156,0.14-0.309,0.263-0.456,0.369
			c-0.148,0.106-0.302,0.195-0.462,0.267c-0.16,0.072-0.331,0.127-0.513,0.165c-0.183,0.038-0.384,0.057-0.604,0.057
			c-0.26,0-0.5-0.035-0.72-0.105c-0.22-0.07-0.41-0.175-0.57-0.315c-0.16-0.14-0.284-0.314-0.372-0.522
			c-0.088-0.208-0.132-0.45-0.132-0.726c0-0.156,0.026-0.311,0.078-0.465c0.052-0.154,0.137-0.301,0.255-0.441
			s0.271-0.272,0.459-0.396s0.419-0.232,0.693-0.324c0.273-0.092,0.593-0.167,0.957-0.225c0.363-0.058,0.779-0.093,1.248-0.105
			v-0.36c0-0.412-0.089-0.717-0.265-0.915c-0.176-0.198-0.43-0.297-0.762-0.297c-0.24,0-0.439,0.028-0.597,0.084
			c-0.158,0.056-0.297,0.119-0.417,0.189c-0.12,0.07-0.229,0.133-0.327,0.189c-0.099,0.056-0.207,0.084-0.327,0.084
			c-0.104,0-0.192-0.027-0.264-0.081c-0.072-0.054-0.131-0.117-0.175-0.189L420.368,19.581z M423.764,22.25
			c-0.429,0.02-0.788,0.057-1.08,0.111c-0.292,0.054-0.526,0.123-0.702,0.207s-0.302,0.182-0.378,0.294
			c-0.076,0.112-0.114,0.234-0.114,0.366c0,0.26,0.077,0.446,0.231,0.558c0.153,0.112,0.354,0.168,0.603,0.168
			c0.304,0,0.567-0.055,0.789-0.165s0.438-0.277,0.651-0.501V22.25z"/>
		<path fill="#FFFFFF" d="M428.606,24.975c-0.536,0-0.947-0.151-1.233-0.453c-0.286-0.302-0.429-0.719-0.429-1.251v-3.438h-0.63
			c-0.08,0-0.148-0.026-0.204-0.078c-0.056-0.052-0.084-0.13-0.084-0.234v-0.588l0.99-0.162l0.312-1.68
			c0.021-0.08,0.058-0.142,0.114-0.186c0.056-0.044,0.128-0.066,0.216-0.066h0.768v1.938h1.645v1.056h-1.645v3.336
			c0,0.192,0.048,0.342,0.142,0.45c0.094,0.108,0.223,0.162,0.387,0.162c0.092,0,0.169-0.011,0.231-0.033
			c0.062-0.022,0.115-0.045,0.162-0.069c0.046-0.024,0.087-0.047,0.123-0.069c0.035-0.022,0.071-0.033,0.107-0.033
			c0.044,0,0.08,0.011,0.108,0.033c0.027,0.022,0.058,0.055,0.09,0.099l0.444,0.72c-0.217,0.18-0.465,0.316-0.744,0.408
			C429.196,24.928,428.906,24.975,428.606,24.975z"/>
		<path fill="#FFFFFF" d="M433.694,18.626c0.456,0,0.871,0.074,1.245,0.222s0.693,0.358,0.96,0.63
			c0.266,0.272,0.471,0.604,0.615,0.996c0.144,0.392,0.216,0.83,0.216,1.314c0,0.488-0.072,0.928-0.216,1.32
			c-0.145,0.392-0.35,0.726-0.615,1.002c-0.267,0.276-0.586,0.488-0.96,0.636s-0.789,0.222-1.245,0.222
			c-0.46,0-0.878-0.074-1.254-0.222s-0.697-0.36-0.963-0.636c-0.267-0.276-0.473-0.61-0.618-1.002
			c-0.146-0.392-0.219-0.832-0.219-1.32c0-0.484,0.072-0.922,0.219-1.314c0.146-0.392,0.352-0.724,0.618-0.996
			c0.266-0.272,0.587-0.482,0.963-0.63S433.234,18.626,433.694,18.626z M433.694,23.829c0.512,0,0.891-0.172,1.137-0.516
			c0.246-0.344,0.369-0.848,0.369-1.512c0-0.664-0.123-1.17-0.369-1.518c-0.246-0.348-0.625-0.522-1.137-0.522
			c-0.521,0-0.905,0.175-1.155,0.525c-0.25,0.35-0.375,0.855-0.375,1.515c0,0.66,0.125,1.163,0.375,1.509
			C432.789,23.655,433.173,23.829,433.694,23.829z"/>
		<path fill="#FFFFFF" d="M439.213,19.791c0.192-0.368,0.42-0.657,0.685-0.867c0.264-0.21,0.575-0.315,0.936-0.315
			c0.284,0,0.512,0.062,0.684,0.186l-0.096,1.11c-0.02,0.072-0.049,0.123-0.087,0.153c-0.038,0.03-0.089,0.045-0.153,0.045
			c-0.06,0-0.148-0.01-0.267-0.03s-0.233-0.03-0.345-0.03c-0.164,0-0.311,0.024-0.438,0.072c-0.128,0.048-0.243,0.117-0.345,0.207
			c-0.103,0.09-0.192,0.199-0.271,0.327c-0.077,0.128-0.15,0.274-0.219,0.438v3.792h-1.481v-6.156h0.869
			c0.152,0,0.259,0.027,0.318,0.081c0.061,0.054,0.1,0.151,0.12,0.291L439.213,19.791z"/>
		<path fill="#FFFFFF" d="M446,19.922c-0.04,0.064-0.082,0.109-0.126,0.135c-0.044,0.026-0.101,0.039-0.168,0.039
			c-0.072,0-0.149-0.02-0.231-0.06s-0.177-0.085-0.285-0.135c-0.107-0.05-0.23-0.095-0.369-0.135c-0.138-0.04-0.301-0.06-0.488-0.06
			c-0.292,0-0.521,0.062-0.688,0.186s-0.249,0.286-0.249,0.486c0,0.132,0.043,0.243,0.129,0.333s0.2,0.169,0.343,0.237
			c0.142,0.068,0.303,0.129,0.482,0.183c0.18,0.054,0.363,0.113,0.549,0.177c0.187,0.064,0.369,0.137,0.549,0.219
			c0.181,0.082,0.342,0.186,0.483,0.312s0.256,0.277,0.342,0.453c0.086,0.176,0.129,0.388,0.129,0.636
			c0,0.296-0.053,0.569-0.158,0.819c-0.106,0.25-0.264,0.466-0.472,0.648s-0.465,0.324-0.771,0.426
			c-0.307,0.102-0.659,0.153-1.06,0.153c-0.212,0-0.419-0.019-0.621-0.057c-0.201-0.038-0.396-0.091-0.582-0.159
			c-0.186-0.068-0.357-0.148-0.516-0.24c-0.158-0.092-0.297-0.192-0.417-0.3l0.342-0.564c0.044-0.068,0.097-0.12,0.156-0.156
			c0.06-0.036,0.136-0.054,0.228-0.054c0.093,0,0.18,0.026,0.262,0.078s0.177,0.108,0.285,0.168c0.107,0.06,0.234,0.116,0.381,0.168
			c0.146,0.052,0.331,0.078,0.555,0.078c0.176,0,0.327-0.021,0.453-0.063s0.229-0.097,0.312-0.165s0.143-0.147,0.181-0.237
			c0.038-0.09,0.057-0.183,0.057-0.279c0-0.144-0.043-0.262-0.129-0.354c-0.086-0.092-0.2-0.172-0.342-0.24
			c-0.143-0.068-0.305-0.129-0.486-0.183c-0.182-0.054-0.368-0.113-0.558-0.177c-0.19-0.064-0.376-0.139-0.559-0.225
			c-0.182-0.086-0.344-0.195-0.485-0.327c-0.143-0.132-0.256-0.294-0.343-0.486c-0.086-0.192-0.129-0.424-0.129-0.696
			c0-0.252,0.051-0.492,0.15-0.72c0.1-0.228,0.247-0.427,0.441-0.597c0.193-0.17,0.436-0.306,0.726-0.408s0.625-0.153,1.005-0.153
			c0.424,0,0.811,0.07,1.158,0.21s0.638,0.324,0.87,0.552L446,19.922z"/>
		<path fill="#FFFFFF" d="M352.227,34.94c0,0.636-0.105,1.22-0.318,1.752c-0.212,0.532-0.51,0.99-0.894,1.374
			c-0.384,0.384-0.846,0.682-1.386,0.894s-1.141,0.318-1.8,0.318h-3.307v-8.676h3.307c0.659,0,1.26,0.107,1.8,0.321
			s1.002,0.512,1.386,0.894s0.682,0.839,0.894,1.371C352.122,33.72,352.227,34.304,352.227,34.94z M350.571,34.94
			c0-0.476-0.063-0.903-0.188-1.281s-0.309-0.698-0.546-0.96c-0.238-0.262-0.526-0.463-0.864-0.603
			c-0.338-0.14-0.719-0.21-1.143-0.21h-1.687v6.108h1.687c0.424,0,0.805-0.07,1.143-0.21c0.338-0.14,0.626-0.341,0.864-0.603
			c0.237-0.262,0.42-0.582,0.546-0.96S350.571,35.417,350.571,34.94z"/>
		<path fill="#FFFFFF" d="M354.765,34.19c0.192-0.368,0.42-0.657,0.685-0.867c0.264-0.21,0.575-0.315,0.936-0.315
			c0.284,0,0.512,0.062,0.684,0.186l-0.096,1.11c-0.02,0.072-0.049,0.123-0.087,0.153c-0.038,0.03-0.089,0.045-0.153,0.045
			c-0.06,0-0.148-0.01-0.267-0.03s-0.233-0.03-0.345-0.03c-0.164,0-0.311,0.024-0.438,0.072c-0.128,0.048-0.243,0.117-0.345,0.207
			c-0.103,0.09-0.192,0.199-0.271,0.327c-0.077,0.128-0.15,0.274-0.219,0.438v3.792h-1.481v-6.156h0.869
			c0.152,0,0.259,0.027,0.318,0.081c0.061,0.054,0.1,0.151,0.12,0.291L354.765,34.19z"/>
		<path fill="#FFFFFF" d="M359.535,31.328c0,0.128-0.025,0.248-0.078,0.36c-0.052,0.112-0.12,0.21-0.207,0.294
			c-0.086,0.084-0.187,0.151-0.303,0.201c-0.116,0.05-0.24,0.075-0.372,0.075c-0.128,0-0.249-0.025-0.362-0.075
			c-0.114-0.05-0.214-0.117-0.298-0.201s-0.15-0.182-0.2-0.294c-0.051-0.112-0.075-0.232-0.075-0.36
			c0-0.132,0.024-0.256,0.075-0.372c0.05-0.116,0.116-0.216,0.2-0.3s0.184-0.151,0.298-0.201c0.113-0.05,0.234-0.075,0.362-0.075
			c0.132,0,0.256,0.025,0.372,0.075c0.116,0.05,0.217,0.117,0.303,0.201c0.087,0.084,0.155,0.184,0.207,0.3
			C359.509,31.072,359.535,31.196,359.535,31.328z M359.331,33.123v6.156h-1.487v-6.156H359.331z"/>
		<path fill="#FFFFFF" d="M366.345,33.123l-2.442,6.156h-1.344l-2.442-6.156h1.225c0.111,0,0.205,0.026,0.278,0.078
			c0.074,0.052,0.123,0.118,0.147,0.198l1.188,3.288c0.064,0.192,0.12,0.38,0.168,0.564c0.049,0.184,0.091,0.368,0.126,0.552
			c0.04-0.184,0.084-0.368,0.133-0.552c0.048-0.184,0.105-0.372,0.174-0.564l1.212-3.288c0.028-0.08,0.078-0.146,0.149-0.198
			c0.072-0.052,0.158-0.078,0.259-0.078H366.345z"/>
		<path fill="#FFFFFF" d="M368.223,36.386c0.024,0.316,0.08,0.589,0.168,0.819c0.088,0.23,0.204,0.42,0.348,0.57
			c0.145,0.15,0.315,0.262,0.514,0.336c0.197,0.074,0.417,0.111,0.656,0.111c0.24,0,0.447-0.028,0.621-0.084
			c0.174-0.056,0.326-0.118,0.456-0.186c0.13-0.068,0.244-0.13,0.342-0.186c0.099-0.056,0.193-0.084,0.285-0.084
			c0.124,0,0.216,0.046,0.276,0.138l0.426,0.54c-0.164,0.192-0.348,0.353-0.552,0.483s-0.417,0.234-0.639,0.312
			c-0.223,0.078-0.448,0.133-0.679,0.165c-0.229,0.032-0.453,0.048-0.669,0.048c-0.428,0-0.826-0.071-1.193-0.213
			c-0.368-0.142-0.688-0.352-0.96-0.63c-0.272-0.278-0.486-0.622-0.643-1.032c-0.156-0.41-0.233-0.885-0.233-1.425
			c0-0.42,0.067-0.815,0.203-1.185c0.137-0.37,0.331-0.692,0.585-0.966c0.255-0.274,0.564-0.491,0.931-0.651
			c0.366-0.16,0.778-0.24,1.238-0.24c0.389,0,0.746,0.062,1.074,0.186s0.61,0.305,0.847,0.543c0.235,0.238,0.421,0.53,0.555,0.876
			s0.201,0.741,0.201,1.185c0,0.224-0.024,0.375-0.072,0.453c-0.048,0.078-0.14,0.117-0.276,0.117H368.223z M371.049,35.492
			c0-0.192-0.027-0.373-0.081-0.543s-0.135-0.319-0.243-0.447s-0.245-0.229-0.411-0.303c-0.166-0.074-0.359-0.111-0.579-0.111
			c-0.428,0-0.765,0.122-1.011,0.366c-0.246,0.244-0.403,0.59-0.471,1.038H371.049z"/>
		<path fill="#FFFFFF" d="M374.84,34.19c0.192-0.368,0.42-0.657,0.685-0.867c0.264-0.21,0.575-0.315,0.936-0.315
			c0.284,0,0.512,0.062,0.684,0.186l-0.096,1.11c-0.02,0.072-0.049,0.123-0.087,0.153c-0.038,0.03-0.089,0.045-0.153,0.045
			c-0.06,0-0.148-0.01-0.267-0.03s-0.233-0.03-0.345-0.03c-0.164,0-0.311,0.024-0.438,0.072c-0.128,0.048-0.243,0.117-0.345,0.207
			c-0.103,0.09-0.192,0.199-0.271,0.327c-0.077,0.128-0.15,0.274-0.219,0.438v3.792h-1.481v-6.156h0.869
			c0.152,0,0.259,0.027,0.318,0.081c0.061,0.054,0.1,0.151,0.12,0.291L374.84,34.19z"/>
		<path fill="#FFFFFF" d="M381.627,34.322c-0.04,0.064-0.082,0.109-0.126,0.135c-0.044,0.026-0.101,0.039-0.168,0.039
			c-0.072,0-0.149-0.02-0.231-0.06s-0.177-0.085-0.285-0.135c-0.107-0.05-0.23-0.095-0.369-0.135c-0.138-0.04-0.301-0.06-0.488-0.06
			c-0.292,0-0.521,0.062-0.688,0.186s-0.249,0.286-0.249,0.486c0,0.132,0.043,0.243,0.129,0.333s0.2,0.169,0.343,0.237
			c0.142,0.068,0.303,0.129,0.482,0.183c0.18,0.054,0.363,0.113,0.549,0.177c0.187,0.064,0.369,0.137,0.549,0.219
			c0.181,0.082,0.342,0.186,0.483,0.312s0.256,0.277,0.342,0.453c0.086,0.176,0.129,0.388,0.129,0.636
			c0,0.296-0.053,0.569-0.158,0.819c-0.106,0.25-0.264,0.466-0.472,0.648s-0.465,0.324-0.771,0.426
			c-0.307,0.102-0.659,0.153-1.06,0.153c-0.212,0-0.419-0.019-0.621-0.057c-0.201-0.038-0.396-0.091-0.582-0.159
			c-0.186-0.068-0.357-0.148-0.516-0.24c-0.158-0.092-0.297-0.192-0.417-0.3l0.342-0.564c0.044-0.068,0.097-0.12,0.156-0.156
			c0.06-0.036,0.136-0.054,0.228-0.054c0.093,0,0.18,0.026,0.262,0.078s0.177,0.108,0.285,0.168c0.107,0.06,0.234,0.116,0.381,0.168
			c0.146,0.052,0.331,0.078,0.555,0.078c0.176,0,0.327-0.021,0.453-0.063s0.229-0.097,0.312-0.165s0.143-0.147,0.181-0.237
			c0.038-0.09,0.057-0.183,0.057-0.279c0-0.144-0.043-0.262-0.129-0.354c-0.086-0.092-0.2-0.172-0.342-0.24
			c-0.143-0.068-0.305-0.129-0.486-0.183c-0.182-0.054-0.368-0.113-0.558-0.177c-0.19-0.064-0.376-0.139-0.559-0.225
			c-0.182-0.086-0.344-0.195-0.485-0.327c-0.143-0.132-0.256-0.294-0.343-0.486c-0.086-0.192-0.129-0.424-0.129-0.696
			c0-0.252,0.051-0.492,0.15-0.72c0.1-0.228,0.247-0.427,0.441-0.597c0.193-0.17,0.436-0.306,0.726-0.408s0.625-0.153,1.005-0.153
			c0.424,0,0.811,0.07,1.158,0.21s0.638,0.324,0.87,0.552L381.627,34.322z"/>
		<path fill="#FFFFFF" d="M388.689,33.026c0.456,0,0.871,0.074,1.245,0.222s0.693,0.358,0.96,0.63
			c0.266,0.272,0.471,0.604,0.615,0.996c0.144,0.392,0.216,0.83,0.216,1.314c0,0.488-0.072,0.928-0.216,1.32
			c-0.145,0.392-0.35,0.726-0.615,1.002c-0.267,0.276-0.586,0.488-0.96,0.636s-0.789,0.222-1.245,0.222
			c-0.46,0-0.878-0.074-1.254-0.222s-0.697-0.36-0.963-0.636c-0.267-0.276-0.473-0.61-0.618-1.002
			c-0.146-0.392-0.219-0.832-0.219-1.32c0-0.484,0.072-0.922,0.219-1.314c0.146-0.392,0.352-0.724,0.618-0.996
			c0.266-0.272,0.587-0.482,0.963-0.63S388.229,33.026,388.689,33.026z M388.689,38.229c0.512,0,0.891-0.172,1.137-0.516
			c0.246-0.344,0.369-0.848,0.369-1.512c0-0.664-0.123-1.17-0.369-1.518c-0.246-0.348-0.625-0.522-1.137-0.522
			c-0.521,0-0.905,0.175-1.155,0.525c-0.25,0.35-0.375,0.855-0.375,1.515c0,0.66,0.125,1.163,0.375,1.509
			C387.784,38.055,388.168,38.229,388.689,38.229z"/>
		<path fill="#FFFFFF" d="M393.243,39.278v-5.04l-0.534-0.084c-0.116-0.024-0.209-0.065-0.279-0.123
			c-0.069-0.058-0.104-0.141-0.104-0.249v-0.606h0.918V32.72c0-0.352,0.053-0.668,0.159-0.948c0.105-0.28,0.258-0.518,0.456-0.714
			c0.197-0.196,0.438-0.346,0.723-0.45s0.604-0.156,0.96-0.156c0.284,0,0.548,0.038,0.792,0.114l-0.03,0.744
			c-0.004,0.056-0.02,0.101-0.048,0.135c-0.027,0.034-0.064,0.06-0.11,0.078c-0.047,0.018-0.1,0.03-0.159,0.036
			c-0.061,0.006-0.124,0.009-0.192,0.009c-0.176,0-0.333,0.019-0.471,0.057s-0.255,0.104-0.352,0.198
			c-0.096,0.094-0.169,0.218-0.219,0.372s-0.075,0.345-0.075,0.573v0.408h1.603v1.056h-1.554v5.046H393.243z"/>
		<path fill="#FFFFFF" d="M401.073,36.386c0.024,0.316,0.08,0.589,0.168,0.819c0.088,0.23,0.204,0.42,0.348,0.57
			c0.145,0.15,0.315,0.262,0.514,0.336c0.197,0.074,0.417,0.111,0.656,0.111c0.24,0,0.447-0.028,0.621-0.084
			c0.174-0.056,0.326-0.118,0.456-0.186c0.13-0.068,0.244-0.13,0.342-0.186c0.099-0.056,0.193-0.084,0.285-0.084
			c0.124,0,0.216,0.046,0.276,0.138l0.426,0.54c-0.164,0.192-0.348,0.353-0.552,0.483s-0.417,0.234-0.639,0.312
			c-0.223,0.078-0.448,0.133-0.679,0.165c-0.229,0.032-0.453,0.048-0.669,0.048c-0.428,0-0.826-0.071-1.193-0.213
			c-0.368-0.142-0.688-0.352-0.96-0.63c-0.272-0.278-0.486-0.622-0.643-1.032c-0.156-0.41-0.233-0.885-0.233-1.425
			c0-0.42,0.067-0.815,0.203-1.185c0.137-0.37,0.331-0.692,0.585-0.966c0.255-0.274,0.564-0.491,0.931-0.651
			c0.366-0.16,0.778-0.24,1.238-0.24c0.389,0,0.746,0.062,1.074,0.186s0.61,0.305,0.847,0.543c0.235,0.238,0.421,0.53,0.555,0.876
			s0.201,0.741,0.201,1.185c0,0.224-0.024,0.375-0.072,0.453c-0.048,0.078-0.14,0.117-0.276,0.117H401.073z M403.899,35.492
			c0-0.192-0.027-0.373-0.081-0.543s-0.135-0.319-0.243-0.447s-0.245-0.229-0.411-0.303c-0.166-0.074-0.359-0.111-0.579-0.111
			c-0.428,0-0.765,0.122-1.011,0.366c-0.246,0.244-0.403,0.59-0.471,1.038H403.899z"/>
		<path fill="#FFFFFF" d="M407.678,33.878c0.124-0.124,0.255-0.239,0.393-0.345c0.139-0.106,0.284-0.196,0.438-0.27
			c0.153-0.074,0.318-0.132,0.495-0.174c0.176-0.042,0.367-0.063,0.575-0.063c0.337,0,0.635,0.057,0.895,0.171
			c0.26,0.114,0.477,0.274,0.651,0.48c0.174,0.206,0.306,0.452,0.396,0.738c0.09,0.286,0.135,0.601,0.135,0.945v3.918h-1.481V35.36
			c0-0.376-0.086-0.667-0.258-0.873c-0.173-0.206-0.435-0.309-0.786-0.309c-0.256,0-0.496,0.058-0.721,0.174
			c-0.224,0.116-0.436,0.274-0.636,0.474v4.452h-1.481v-6.156h0.905c0.192,0,0.318,0.09,0.378,0.27L407.678,33.878z"/>
		<path fill="#FFFFFF" d="M418.413,33.333v0.552c0,0.176-0.105,0.284-0.317,0.324l-0.553,0.102c0.084,0.212,0.126,0.444,0.126,0.696
			c0,0.304-0.061,0.579-0.183,0.825c-0.122,0.246-0.291,0.455-0.507,0.627s-0.472,0.305-0.766,0.399
			c-0.294,0.094-0.61,0.141-0.95,0.141c-0.12,0-0.236-0.006-0.349-0.018c-0.112-0.012-0.222-0.028-0.33-0.048
			c-0.191,0.116-0.288,0.246-0.288,0.39c0,0.124,0.058,0.215,0.171,0.273c0.114,0.058,0.266,0.099,0.453,0.123
			c0.188,0.024,0.402,0.039,0.643,0.045c0.24,0.006,0.485,0.019,0.737,0.039c0.253,0.02,0.498,0.055,0.738,0.105
			c0.24,0.05,0.454,0.129,0.643,0.237c0.188,0.108,0.339,0.255,0.452,0.441c0.114,0.186,0.172,0.425,0.172,0.717
			c0,0.272-0.067,0.536-0.201,0.792c-0.135,0.256-0.328,0.484-0.582,0.684s-0.566,0.361-0.937,0.483s-0.791,0.183-1.263,0.183
			c-0.464,0-0.868-0.045-1.212-0.135c-0.344-0.09-0.63-0.21-0.858-0.36c-0.228-0.15-0.397-0.323-0.51-0.519
			c-0.112-0.196-0.168-0.4-0.168-0.612c0-0.288,0.087-0.529,0.261-0.723s0.413-0.349,0.718-0.465
			c-0.164-0.084-0.295-0.196-0.391-0.336s-0.144-0.324-0.144-0.552c0-0.092,0.017-0.187,0.051-0.285
			c0.034-0.098,0.084-0.195,0.15-0.291c0.065-0.096,0.148-0.187,0.249-0.273c0.1-0.086,0.218-0.163,0.354-0.231
			c-0.312-0.168-0.557-0.392-0.735-0.672c-0.178-0.28-0.267-0.608-0.267-0.984c0-0.304,0.061-0.579,0.183-0.825
			c0.122-0.246,0.292-0.456,0.511-0.63c0.218-0.174,0.476-0.307,0.773-0.399s0.623-0.138,0.976-0.138
			c0.264,0,0.512,0.027,0.743,0.081c0.232,0.054,0.444,0.133,0.637,0.237H418.413z M416.937,39.554c0-0.12-0.036-0.218-0.108-0.294
			c-0.072-0.076-0.17-0.135-0.294-0.177s-0.269-0.073-0.435-0.093s-0.343-0.035-0.528-0.045c-0.186-0.01-0.378-0.019-0.576-0.027
			c-0.198-0.008-0.391-0.024-0.579-0.048c-0.164,0.092-0.297,0.2-0.398,0.324c-0.103,0.124-0.153,0.268-0.153,0.432
			c0,0.108,0.027,0.209,0.081,0.303c0.054,0.094,0.14,0.175,0.258,0.243s0.271,0.121,0.459,0.159
			c0.188,0.038,0.418,0.057,0.69,0.057c0.275,0,0.514-0.021,0.714-0.063s0.365-0.1,0.495-0.174c0.13-0.074,0.225-0.162,0.285-0.264
			C416.907,39.785,416.937,39.674,416.937,39.554z M415.263,36.05c0.184,0,0.344-0.025,0.479-0.075
			c0.136-0.05,0.249-0.119,0.339-0.207c0.09-0.088,0.158-0.194,0.204-0.318s0.069-0.26,0.069-0.408c0-0.304-0.091-0.545-0.273-0.723
			c-0.182-0.178-0.455-0.267-0.818-0.267c-0.364,0-0.638,0.089-0.819,0.267c-0.183,0.178-0.273,0.419-0.273,0.723
			c0,0.144,0.023,0.278,0.069,0.402s0.114,0.231,0.204,0.321c0.09,0.09,0.204,0.16,0.342,0.21
			C414.923,36.025,415.083,36.05,415.263,36.05z"/>
		<path fill="#FFFFFF" d="M419.156,33.98c0.708-0.648,1.561-0.972,2.556-0.972c0.36,0,0.683,0.059,0.967,0.177
			c0.283,0.118,0.523,0.282,0.72,0.492s0.345,0.461,0.447,0.753c0.102,0.292,0.152,0.612,0.152,0.96v3.888h-0.672
			c-0.14,0-0.248-0.021-0.324-0.063c-0.075-0.042-0.136-0.127-0.18-0.255l-0.132-0.444c-0.156,0.14-0.309,0.263-0.456,0.369
			c-0.148,0.106-0.302,0.195-0.462,0.267c-0.16,0.072-0.331,0.127-0.513,0.165c-0.183,0.038-0.384,0.057-0.604,0.057
			c-0.26,0-0.5-0.035-0.72-0.105c-0.22-0.07-0.41-0.175-0.57-0.315c-0.16-0.14-0.284-0.314-0.372-0.522
			c-0.088-0.208-0.132-0.45-0.132-0.726c0-0.156,0.026-0.311,0.078-0.465c0.052-0.154,0.137-0.301,0.255-0.441
			s0.271-0.272,0.459-0.396s0.419-0.232,0.693-0.324c0.273-0.092,0.593-0.167,0.957-0.225c0.363-0.058,0.779-0.093,1.248-0.105
			v-0.36c0-0.412-0.089-0.717-0.265-0.915c-0.176-0.198-0.43-0.297-0.762-0.297c-0.24,0-0.439,0.028-0.597,0.084
			c-0.158,0.056-0.297,0.119-0.417,0.189c-0.12,0.07-0.229,0.133-0.327,0.189c-0.099,0.056-0.207,0.084-0.327,0.084
			c-0.104,0-0.192-0.027-0.264-0.081c-0.072-0.054-0.131-0.117-0.175-0.189L419.156,33.98z M422.552,36.65
			c-0.429,0.02-0.788,0.057-1.08,0.111c-0.292,0.054-0.526,0.123-0.702,0.207s-0.302,0.182-0.378,0.294
			c-0.076,0.112-0.114,0.234-0.114,0.366c0,0.26,0.077,0.446,0.231,0.558c0.153,0.112,0.354,0.168,0.603,0.168
			c0.304,0,0.567-0.055,0.789-0.165s0.438-0.277,0.651-0.501V36.65z"/>
		<path fill="#FFFFFF" d="M430.742,33.333v0.552c0,0.176-0.105,0.284-0.317,0.324l-0.553,0.102c0.084,0.212,0.126,0.444,0.126,0.696
			c0,0.304-0.061,0.579-0.183,0.825c-0.122,0.246-0.291,0.455-0.507,0.627s-0.472,0.305-0.766,0.399
			c-0.294,0.094-0.61,0.141-0.95,0.141c-0.12,0-0.236-0.006-0.349-0.018c-0.112-0.012-0.222-0.028-0.33-0.048
			c-0.191,0.116-0.288,0.246-0.288,0.39c0,0.124,0.058,0.215,0.171,0.273c0.114,0.058,0.266,0.099,0.453,0.123
			c0.188,0.024,0.402,0.039,0.643,0.045c0.24,0.006,0.485,0.019,0.737,0.039c0.253,0.02,0.498,0.055,0.738,0.105
			c0.24,0.05,0.454,0.129,0.643,0.237c0.188,0.108,0.339,0.255,0.452,0.441c0.114,0.186,0.172,0.425,0.172,0.717
			c0,0.272-0.067,0.536-0.201,0.792c-0.135,0.256-0.328,0.484-0.582,0.684s-0.566,0.361-0.937,0.483s-0.791,0.183-1.263,0.183
			c-0.464,0-0.868-0.045-1.212-0.135c-0.344-0.09-0.63-0.21-0.858-0.36c-0.228-0.15-0.397-0.323-0.51-0.519
			c-0.112-0.196-0.168-0.4-0.168-0.612c0-0.288,0.087-0.529,0.261-0.723s0.413-0.349,0.718-0.465
			c-0.164-0.084-0.295-0.196-0.391-0.336s-0.144-0.324-0.144-0.552c0-0.092,0.017-0.187,0.051-0.285
			c0.034-0.098,0.084-0.195,0.15-0.291c0.065-0.096,0.148-0.187,0.249-0.273c0.1-0.086,0.218-0.163,0.354-0.231
			c-0.312-0.168-0.557-0.392-0.735-0.672c-0.178-0.28-0.267-0.608-0.267-0.984c0-0.304,0.061-0.579,0.183-0.825
			c0.122-0.246,0.292-0.456,0.511-0.63c0.218-0.174,0.476-0.307,0.773-0.399s0.623-0.138,0.976-0.138
			c0.264,0,0.512,0.027,0.743,0.081c0.232,0.054,0.444,0.133,0.637,0.237H430.742z M429.266,39.554c0-0.12-0.036-0.218-0.108-0.294
			c-0.072-0.076-0.17-0.135-0.294-0.177s-0.269-0.073-0.435-0.093s-0.343-0.035-0.528-0.045c-0.186-0.01-0.378-0.019-0.576-0.027
			c-0.198-0.008-0.391-0.024-0.579-0.048c-0.164,0.092-0.297,0.2-0.398,0.324c-0.103,0.124-0.153,0.268-0.153,0.432
			c0,0.108,0.027,0.209,0.081,0.303c0.054,0.094,0.14,0.175,0.258,0.243s0.271,0.121,0.459,0.159
			c0.188,0.038,0.418,0.057,0.69,0.057c0.275,0,0.514-0.021,0.714-0.063s0.365-0.1,0.495-0.174c0.13-0.074,0.225-0.162,0.285-0.264
			C429.236,39.785,429.266,39.674,429.266,39.554z M427.592,36.05c0.184,0,0.344-0.025,0.479-0.075
			c0.136-0.05,0.249-0.119,0.339-0.207c0.09-0.088,0.158-0.194,0.204-0.318s0.069-0.26,0.069-0.408c0-0.304-0.091-0.545-0.273-0.723
			c-0.182-0.178-0.455-0.267-0.818-0.267c-0.364,0-0.638,0.089-0.819,0.267c-0.183,0.178-0.273,0.419-0.273,0.723
			c0,0.144,0.023,0.278,0.069,0.402s0.114,0.231,0.204,0.321c0.09,0.09,0.204,0.16,0.342,0.21
			C427.252,36.025,427.412,36.05,427.592,36.05z"/>
		<path fill="#FFFFFF" d="M432.77,36.386c0.024,0.316,0.08,0.589,0.168,0.819c0.088,0.23,0.204,0.42,0.348,0.57
			c0.145,0.15,0.315,0.262,0.514,0.336c0.197,0.074,0.417,0.111,0.656,0.111c0.24,0,0.447-0.028,0.621-0.084
			c0.174-0.056,0.326-0.118,0.456-0.186c0.13-0.068,0.244-0.13,0.342-0.186c0.099-0.056,0.193-0.084,0.285-0.084
			c0.124,0,0.216,0.046,0.276,0.138l0.426,0.54c-0.164,0.192-0.348,0.353-0.552,0.483s-0.417,0.234-0.639,0.312
			c-0.223,0.078-0.448,0.133-0.679,0.165c-0.229,0.032-0.453,0.048-0.669,0.048c-0.428,0-0.826-0.071-1.193-0.213
			c-0.368-0.142-0.688-0.352-0.96-0.63c-0.272-0.278-0.486-0.622-0.643-1.032c-0.156-0.41-0.233-0.885-0.233-1.425
			c0-0.42,0.067-0.815,0.203-1.185c0.137-0.37,0.331-0.692,0.585-0.966c0.255-0.274,0.564-0.491,0.931-0.651
			c0.366-0.16,0.778-0.24,1.238-0.24c0.389,0,0.746,0.062,1.074,0.186s0.61,0.305,0.847,0.543c0.235,0.238,0.421,0.53,0.555,0.876
			s0.201,0.741,0.201,1.185c0,0.224-0.024,0.375-0.072,0.453c-0.048,0.078-0.14,0.117-0.276,0.117H432.77z M435.596,35.492
			c0-0.192-0.027-0.373-0.081-0.543s-0.135-0.319-0.243-0.447s-0.245-0.229-0.411-0.303c-0.166-0.074-0.359-0.111-0.579-0.111
			c-0.428,0-0.765,0.122-1.011,0.366c-0.246,0.244-0.403,0.59-0.471,1.038H435.596z"/>
		<path fill="#FFFFFF" d="M437.991,39.278v-6.156h0.905c0.192,0,0.318,0.09,0.378,0.27l0.097,0.456
			c0.107-0.12,0.221-0.23,0.339-0.33c0.118-0.1,0.244-0.186,0.378-0.258c0.134-0.072,0.278-0.129,0.432-0.171
			c0.154-0.042,0.323-0.063,0.507-0.063c0.389,0,0.707,0.105,0.957,0.315s0.438,0.489,0.562,0.837
			c0.096-0.204,0.216-0.379,0.36-0.525c0.144-0.146,0.302-0.265,0.474-0.357s0.354-0.16,0.549-0.204s0.389-0.066,0.585-0.066
			c0.34,0,0.643,0.052,0.906,0.156c0.264,0.104,0.486,0.256,0.666,0.456c0.18,0.2,0.316,0.444,0.411,0.732
			c0.094,0.288,0.141,0.618,0.141,0.99v3.918h-1.481V35.36c0-0.392-0.087-0.687-0.259-0.885c-0.172-0.198-0.424-0.297-0.756-0.297
			c-0.152,0-0.293,0.026-0.423,0.078c-0.13,0.052-0.244,0.127-0.342,0.225c-0.099,0.098-0.175,0.221-0.231,0.369
			c-0.056,0.148-0.084,0.318-0.084,0.51v3.918h-1.487V35.36c0-0.412-0.084-0.712-0.249-0.9c-0.166-0.188-0.409-0.282-0.729-0.282
			c-0.216,0-0.417,0.053-0.603,0.159c-0.187,0.106-0.359,0.251-0.52,0.435v4.506H437.991z"/>
		<path fill="#FFFFFF" d="M449.132,36.386c0.024,0.316,0.08,0.589,0.168,0.819c0.088,0.23,0.204,0.42,0.348,0.57
			c0.145,0.15,0.315,0.262,0.514,0.336c0.197,0.074,0.417,0.111,0.656,0.111c0.24,0,0.447-0.028,0.621-0.084
			c0.174-0.056,0.326-0.118,0.456-0.186c0.13-0.068,0.244-0.13,0.342-0.186c0.099-0.056,0.193-0.084,0.285-0.084
			c0.124,0,0.216,0.046,0.276,0.138l0.426,0.54c-0.164,0.192-0.348,0.353-0.552,0.483s-0.417,0.234-0.639,0.312
			c-0.223,0.078-0.448,0.133-0.679,0.165c-0.229,0.032-0.453,0.048-0.669,0.048c-0.428,0-0.826-0.071-1.193-0.213
			c-0.368-0.142-0.688-0.352-0.96-0.63c-0.272-0.278-0.486-0.622-0.643-1.032c-0.156-0.41-0.233-0.885-0.233-1.425
			c0-0.42,0.067-0.815,0.203-1.185c0.137-0.37,0.331-0.692,0.585-0.966c0.255-0.274,0.564-0.491,0.931-0.651
			c0.366-0.16,0.778-0.24,1.238-0.24c0.389,0,0.746,0.062,1.074,0.186s0.61,0.305,0.847,0.543c0.235,0.238,0.421,0.53,0.555,0.876
			s0.201,0.741,0.201,1.185c0,0.224-0.024,0.375-0.072,0.453c-0.048,0.078-0.14,0.117-0.276,0.117H449.132z M451.958,35.492
			c0-0.192-0.027-0.373-0.081-0.543s-0.135-0.319-0.243-0.447s-0.245-0.229-0.411-0.303c-0.166-0.074-0.359-0.111-0.579-0.111
			c-0.428,0-0.765,0.122-1.011,0.366c-0.246,0.244-0.403,0.59-0.471,1.038H451.958z"/>
		<path fill="#FFFFFF" d="M455.738,33.878c0.124-0.124,0.255-0.239,0.393-0.345c0.139-0.106,0.284-0.196,0.438-0.27
			c0.153-0.074,0.318-0.132,0.495-0.174c0.176-0.042,0.367-0.063,0.575-0.063c0.337,0,0.635,0.057,0.895,0.171
			c0.26,0.114,0.477,0.274,0.651,0.48c0.174,0.206,0.306,0.452,0.396,0.738c0.09,0.286,0.135,0.601,0.135,0.945v3.918h-1.481V35.36
			c0-0.376-0.086-0.667-0.258-0.873c-0.173-0.206-0.435-0.309-0.786-0.309c-0.256,0-0.496,0.058-0.721,0.174
			c-0.224,0.116-0.436,0.274-0.636,0.474v4.452h-1.481v-6.156h0.905c0.192,0,0.318,0.09,0.378,0.27L455.738,33.878z"/>
		<path fill="#FFFFFF" d="M463.125,39.375c-0.536,0-0.947-0.151-1.233-0.453c-0.286-0.302-0.429-0.719-0.429-1.251v-3.438h-0.63
			c-0.08,0-0.148-0.026-0.204-0.078c-0.056-0.052-0.084-0.13-0.084-0.234v-0.588l0.99-0.162l0.312-1.68
			c0.021-0.08,0.058-0.142,0.114-0.186c0.056-0.044,0.128-0.066,0.216-0.066h0.768v1.938h1.645v1.056h-1.645v3.336
			c0,0.192,0.048,0.342,0.142,0.45c0.094,0.108,0.223,0.162,0.387,0.162c0.092,0,0.169-0.011,0.231-0.033
			c0.062-0.022,0.115-0.045,0.162-0.069c0.046-0.024,0.087-0.047,0.123-0.069c0.035-0.022,0.071-0.033,0.107-0.033
			c0.044,0,0.08,0.011,0.108,0.033c0.027,0.022,0.058,0.055,0.09,0.099l0.444,0.72c-0.217,0.18-0.465,0.316-0.744,0.408
			C463.714,39.328,463.424,39.375,463.125,39.375z"/>
	</g>
	<g>
		<path fill="#FFFFFF" d="M4.458,314.742c0.312,0,0.591-0.052,0.837-0.156c0.246-0.104,0.453-0.25,0.621-0.438
			c0.168-0.188,0.297-0.415,0.387-0.684c0.09-0.268,0.135-0.567,0.135-0.9v-5.195h1.614v5.195c0,0.517-0.083,0.993-0.249,1.432
			c-0.166,0.438-0.404,0.815-0.714,1.134s-0.687,0.566-1.131,0.744s-0.944,0.267-1.5,0.267c-0.56,0-1.062-0.089-1.506-0.267
			c-0.444-0.178-0.821-0.426-1.131-0.744s-0.548-0.696-0.714-1.134c-0.166-0.438-0.249-0.915-0.249-1.432v-5.195h1.614v5.189
			c0,0.332,0.045,0.633,0.135,0.9s0.22,0.497,0.39,0.687c0.17,0.19,0.378,0.338,0.624,0.441
			C3.867,314.69,4.146,314.742,4.458,314.742z"/>
		<path fill="#FFFFFF" d="M11.184,310.644c0.124-0.124,0.255-0.238,0.393-0.345c0.138-0.105,0.284-0.196,0.438-0.27
			c0.154-0.074,0.319-0.133,0.495-0.175c0.176-0.042,0.368-0.063,0.576-0.063c0.336,0,0.634,0.057,0.894,0.171
			c0.26,0.114,0.477,0.274,0.651,0.48s0.306,0.451,0.396,0.737s0.135,0.602,0.135,0.945v3.918H13.68v-3.918
			c0-0.376-0.086-0.667-0.258-0.873s-0.434-0.309-0.786-0.309c-0.256,0-0.496,0.058-0.72,0.174
			c-0.224,0.116-0.436,0.273-0.636,0.474v4.452H9.798v-6.156h0.906c0.192,0,0.318,0.09,0.378,0.271L11.184,310.644z"/>
		<path fill="#FFFFFF" d="M17.154,316.044v-5.04l-0.534-0.084c-0.116-0.024-0.209-0.065-0.279-0.123
			c-0.07-0.058-0.105-0.141-0.105-0.249v-0.605h0.918v-0.456c0-0.353,0.053-0.668,0.159-0.948c0.105-0.28,0.258-0.519,0.456-0.714
			c0.198-0.196,0.439-0.347,0.723-0.45c0.284-0.104,0.604-0.156,0.96-0.156c0.284,0,0.548,0.038,0.792,0.114l-0.03,0.744
			c-0.004,0.056-0.02,0.101-0.048,0.135c-0.028,0.034-0.065,0.06-0.111,0.078c-0.046,0.018-0.099,0.03-0.159,0.036
			c-0.06,0.006-0.124,0.009-0.192,0.009c-0.176,0-0.333,0.019-0.471,0.057c-0.138,0.038-0.255,0.104-0.351,0.198
			c-0.096,0.094-0.169,0.218-0.219,0.372c-0.05,0.154-0.075,0.345-0.075,0.573v0.408h1.602v1.056h-1.554v5.046H17.154z"/>
		<path fill="#FFFFFF" d="M26.484,309.888v6.156h-0.906c-0.196,0-0.32-0.09-0.372-0.27l-0.102-0.492
			c-0.252,0.256-0.53,0.463-0.834,0.621c-0.304,0.157-0.662,0.236-1.074,0.236c-0.336,0-0.633-0.057-0.891-0.171
			c-0.258-0.114-0.475-0.274-0.651-0.482c-0.176-0.208-0.309-0.455-0.399-0.741c-0.09-0.286-0.135-0.602-0.135-0.945v-3.912h1.482
			v3.912c0,0.376,0.087,0.667,0.261,0.873s0.435,0.31,0.783,0.31c0.256,0,0.496-0.058,0.72-0.172
			c0.224-0.113,0.436-0.271,0.636-0.471v-4.452H26.484z"/>
		<path fill="#FFFFFF" d="M29.604,307.128v8.916h-1.482v-8.916H29.604z"/>
		<path fill="#FFFFFF" d="M31.68,316.044v-5.04l-0.534-0.084c-0.116-0.024-0.209-0.065-0.279-0.123s-0.105-0.141-0.105-0.249v-0.605
			h0.918v-0.198c0-0.376,0.062-0.726,0.186-1.047c0.124-0.322,0.312-0.602,0.564-0.837c0.252-0.236,0.571-0.421,0.957-0.556
			c0.386-0.134,0.841-0.201,1.365-0.201c0.168,0,0.339,0.01,0.513,0.027c0.174,0.019,0.325,0.047,0.453,0.087l-0.048,0.769
			c-0.008,0.092-0.058,0.146-0.15,0.165c-0.092,0.018-0.206,0.026-0.342,0.026c-0.388,0-0.713,0.034-0.975,0.103
			c-0.262,0.067-0.474,0.169-0.636,0.303s-0.278,0.302-0.348,0.504s-0.105,0.438-0.105,0.705v0.15h3.816v6.102h-1.482v-5.046h-2.286
			v5.046H31.68z"/>
		<path fill="#FFFFFF" d="M40.104,307.128v8.916h-1.482v-8.916H40.104z"/>
		<path fill="#FFFFFF" d="M43.241,307.128v8.916h-1.482v-8.916H43.241z"/>
		<path fill="#FFFFFF" d="M46.02,313.152c0.024,0.315,0.08,0.589,0.168,0.818c0.088,0.23,0.204,0.42,0.348,0.57
			s0.315,0.262,0.513,0.336c0.198,0.074,0.417,0.111,0.657,0.111c0.24,0,0.447-0.028,0.621-0.084
			c0.174-0.057,0.326-0.118,0.456-0.187c0.13-0.067,0.244-0.13,0.342-0.186c0.098-0.057,0.193-0.084,0.285-0.084
			c0.124,0,0.216,0.046,0.276,0.138l0.426,0.54c-0.164,0.192-0.348,0.354-0.552,0.483s-0.417,0.233-0.639,0.312
			s-0.448,0.133-0.678,0.165c-0.23,0.032-0.453,0.048-0.669,0.048c-0.428,0-0.826-0.071-1.194-0.213s-0.688-0.352-0.96-0.63
			s-0.486-0.622-0.642-1.032c-0.156-0.41-0.234-0.885-0.234-1.425c0-0.42,0.068-0.815,0.204-1.185
			c0.136-0.37,0.331-0.692,0.585-0.967c0.254-0.273,0.564-0.49,0.93-0.65c0.366-0.16,0.779-0.24,1.239-0.24
			c0.388,0,0.746,0.063,1.074,0.186c0.328,0.124,0.61,0.306,0.846,0.543c0.236,0.238,0.421,0.53,0.555,0.876
			c0.134,0.347,0.201,0.741,0.201,1.186c0,0.224-0.024,0.375-0.072,0.453s-0.14,0.117-0.276,0.117H46.02z M48.846,312.258
			c0-0.191-0.027-0.373-0.081-0.543c-0.054-0.17-0.135-0.318-0.243-0.447c-0.108-0.128-0.245-0.229-0.411-0.303
			s-0.359-0.111-0.579-0.111c-0.428,0-0.765,0.122-1.011,0.366s-0.403,0.59-0.471,1.038H48.846z"/>
		<path fill="#FFFFFF" d="M56.79,307.128v8.916h-0.906c-0.196,0-0.32-0.09-0.372-0.27l-0.126-0.595
			c-0.248,0.284-0.533,0.515-0.855,0.69c-0.322,0.176-0.697,0.264-1.125,0.264c-0.336,0-0.644-0.07-0.924-0.21
			c-0.28-0.14-0.521-0.343-0.723-0.608c-0.202-0.267-0.358-0.596-0.468-0.987c-0.11-0.393-0.165-0.84-0.165-1.344
			c0-0.456,0.062-0.88,0.186-1.272c0.124-0.392,0.302-0.732,0.534-1.02c0.232-0.288,0.51-0.514,0.834-0.676
			c0.324-0.162,0.688-0.242,1.092-0.242c0.344,0,0.638,0.054,0.882,0.161c0.244,0.108,0.462,0.255,0.654,0.438v-3.246H56.79z
			 M55.308,311.46c-0.168-0.204-0.351-0.348-0.549-0.432c-0.198-0.084-0.411-0.126-0.639-0.126c-0.224,0-0.426,0.042-0.606,0.126
			c-0.18,0.084-0.334,0.211-0.462,0.381s-0.226,0.386-0.294,0.647c-0.068,0.263-0.102,0.571-0.102,0.928
			c0,0.359,0.029,0.665,0.087,0.915c0.058,0.25,0.141,0.453,0.249,0.611c0.108,0.158,0.24,0.272,0.396,0.342
			c0.156,0.07,0.33,0.105,0.522,0.105c0.308,0,0.57-0.064,0.786-0.192c0.216-0.128,0.42-0.31,0.612-0.546V311.46z"/>
		<path fill="#FFFFFF" d="M61.481,316.044v-6.156h0.906c0.192,0,0.318,0.09,0.378,0.271l0.096,0.456
			c0.108-0.12,0.221-0.23,0.339-0.33c0.118-0.101,0.244-0.187,0.378-0.258c0.134-0.072,0.278-0.13,0.432-0.172
			c0.154-0.042,0.323-0.063,0.507-0.063c0.388,0,0.707,0.104,0.957,0.315c0.25,0.21,0.437,0.488,0.561,0.837
			c0.096-0.204,0.216-0.379,0.36-0.525c0.144-0.146,0.302-0.265,0.474-0.357c0.172-0.092,0.355-0.159,0.549-0.203
			s0.389-0.066,0.585-0.066c0.34,0,0.642,0.052,0.906,0.156c0.264,0.104,0.486,0.256,0.666,0.456c0.18,0.2,0.317,0.443,0.411,0.731
			c0.094,0.288,0.141,0.618,0.141,0.99v3.918h-1.482v-3.918c0-0.392-0.086-0.688-0.258-0.885c-0.172-0.198-0.424-0.297-0.756-0.297
			c-0.152,0-0.293,0.025-0.423,0.077c-0.13,0.053-0.244,0.128-0.342,0.226c-0.098,0.098-0.175,0.221-0.231,0.369
			c-0.056,0.147-0.084,0.317-0.084,0.51v3.918h-1.488v-3.918c0-0.412-0.083-0.712-0.249-0.9c-0.166-0.188-0.409-0.281-0.729-0.281
			c-0.216,0-0.417,0.053-0.603,0.158c-0.186,0.106-0.359,0.252-0.519,0.436v4.506H61.481z"/>
		<path fill="#FFFFFF" d="M74.411,309.792c0.456,0,0.871,0.074,1.245,0.222c0.374,0.148,0.694,0.358,0.96,0.63
			c0.266,0.272,0.471,0.604,0.615,0.996c0.144,0.393,0.216,0.83,0.216,1.314c0,0.488-0.072,0.928-0.216,1.32
			c-0.144,0.392-0.349,0.726-0.615,1.002c-0.266,0.275-0.586,0.487-0.96,0.636c-0.374,0.147-0.789,0.222-1.245,0.222
			c-0.46,0-0.878-0.074-1.254-0.222c-0.376-0.148-0.697-0.36-0.963-0.636c-0.266-0.276-0.472-0.61-0.618-1.002
			c-0.146-0.393-0.219-0.832-0.219-1.32c0-0.484,0.073-0.922,0.219-1.314c0.146-0.392,0.352-0.724,0.618-0.996
			c0.266-0.271,0.587-0.481,0.963-0.63C73.533,309.866,73.951,309.792,74.411,309.792z M74.411,314.994
			c0.512,0,0.891-0.172,1.137-0.517c0.246-0.344,0.369-0.848,0.369-1.512s-0.123-1.17-0.369-1.518
			c-0.246-0.349-0.625-0.522-1.137-0.522c-0.52,0-0.905,0.175-1.155,0.525c-0.25,0.35-0.375,0.854-0.375,1.515
			s0.125,1.163,0.375,1.509C73.506,314.821,73.891,314.994,74.411,314.994z"/>
		<path fill="#FFFFFF" d="M84.947,316.044h-1.482v-5.046h-2.856v3.336c0,0.192,0.047,0.342,0.141,0.45
			c0.094,0.107,0.223,0.162,0.387,0.162c0.092,0,0.169-0.012,0.231-0.033c0.062-0.022,0.116-0.045,0.162-0.069
			c0.046-0.023,0.087-0.047,0.123-0.068c0.036-0.022,0.072-0.033,0.108-0.033c0.044,0,0.08,0.011,0.108,0.033
			c0.028,0.021,0.058,0.055,0.09,0.099l0.444,0.72c-0.216,0.181-0.464,0.316-0.744,0.408c-0.28,0.092-0.57,0.138-0.87,0.138
			c-0.536,0-0.947-0.15-1.233-0.453c-0.286-0.302-0.429-0.719-0.429-1.251v-3.438h-0.63c-0.08,0-0.148-0.026-0.204-0.078
			c-0.056-0.052-0.084-0.13-0.084-0.234v-0.588l0.99-0.168l0.312-1.674c0.02-0.08,0.058-0.142,0.114-0.186
			c0.056-0.044,0.128-0.066,0.216-0.066h0.768v1.938h4.338V316.044z M85.205,308.07c0,0.128-0.026,0.249-0.078,0.362
			c-0.052,0.114-0.121,0.213-0.207,0.297s-0.188,0.151-0.306,0.201c-0.118,0.051-0.243,0.075-0.375,0.075
			c-0.128,0-0.248-0.024-0.36-0.075c-0.112-0.05-0.21-0.117-0.294-0.201s-0.151-0.183-0.201-0.297
			c-0.05-0.113-0.075-0.234-0.075-0.362c0-0.133,0.025-0.255,0.075-0.369c0.05-0.114,0.117-0.214,0.201-0.3s0.182-0.154,0.294-0.204
			s0.232-0.075,0.36-0.075c0.132,0,0.257,0.025,0.375,0.075c0.118,0.05,0.22,0.118,0.306,0.204s0.155,0.186,0.207,0.3
			C85.179,307.815,85.205,307.938,85.205,308.07z"/>
		<path fill="#FFFFFF" d="M92.165,309.888l-2.442,6.156h-1.344l-2.442-6.156h1.224c0.112,0,0.205,0.026,0.279,0.078
			c0.074,0.052,0.123,0.118,0.147,0.198l1.188,3.288c0.064,0.191,0.12,0.38,0.168,0.563c0.048,0.185,0.09,0.368,0.126,0.553
			c0.04-0.185,0.084-0.368,0.132-0.553c0.048-0.184,0.106-0.372,0.174-0.563l1.212-3.288c0.028-0.08,0.078-0.146,0.15-0.198
			s0.158-0.078,0.258-0.078H92.165z"/>
		<path fill="#FFFFFF" d="M92.963,310.746c0.708-0.648,1.56-0.972,2.556-0.972c0.36,0,0.682,0.059,0.966,0.177
			c0.284,0.118,0.524,0.282,0.72,0.492c0.196,0.21,0.345,0.461,0.447,0.753s0.153,0.611,0.153,0.96v3.888h-0.672
			c-0.14,0-0.248-0.021-0.324-0.063c-0.076-0.042-0.136-0.126-0.18-0.255l-0.132-0.443c-0.156,0.14-0.308,0.263-0.456,0.369
			c-0.148,0.105-0.302,0.194-0.462,0.267c-0.16,0.072-0.331,0.127-0.513,0.165s-0.383,0.057-0.603,0.057
			c-0.26,0-0.5-0.035-0.72-0.104c-0.22-0.07-0.41-0.175-0.57-0.315c-0.16-0.14-0.284-0.313-0.372-0.521
			c-0.088-0.208-0.132-0.45-0.132-0.727c0-0.155,0.026-0.311,0.078-0.465c0.052-0.154,0.137-0.301,0.255-0.44
			c0.118-0.141,0.271-0.272,0.459-0.396s0.419-0.231,0.693-0.324c0.274-0.092,0.593-0.167,0.957-0.225
			c0.364-0.058,0.78-0.093,1.248-0.105v-0.359c0-0.412-0.088-0.718-0.264-0.915c-0.176-0.198-0.43-0.297-0.762-0.297
			c-0.24,0-0.439,0.027-0.597,0.084c-0.158,0.056-0.297,0.119-0.417,0.188c-0.12,0.07-0.229,0.133-0.327,0.189
			c-0.098,0.056-0.207,0.084-0.327,0.084c-0.104,0-0.192-0.027-0.264-0.081c-0.072-0.055-0.13-0.117-0.174-0.189L92.963,310.746z
			 M96.359,313.416c-0.428,0.02-0.788,0.057-1.08,0.111c-0.292,0.054-0.526,0.123-0.702,0.207c-0.176,0.084-0.302,0.182-0.378,0.294
			c-0.076,0.111-0.114,0.233-0.114,0.365c0,0.261,0.077,0.446,0.231,0.559s0.355,0.168,0.603,0.168c0.304,0,0.567-0.055,0.789-0.165
			s0.439-0.277,0.651-0.501V313.416z"/>
		<path fill="#FFFFFF" d="M101.405,316.14c-0.536,0-0.947-0.15-1.233-0.453c-0.286-0.302-0.429-0.719-0.429-1.251v-3.438h-0.63
			c-0.08,0-0.148-0.026-0.204-0.078c-0.056-0.052-0.084-0.13-0.084-0.234v-0.588l0.99-0.162l0.312-1.68
			c0.02-0.08,0.058-0.142,0.114-0.186c0.056-0.044,0.128-0.066,0.216-0.066h0.768v1.938h1.644v1.056h-1.644v3.336
			c0,0.192,0.047,0.342,0.141,0.45c0.094,0.107,0.223,0.162,0.387,0.162c0.092,0,0.169-0.012,0.231-0.033
			c0.062-0.022,0.116-0.045,0.162-0.069c0.046-0.023,0.087-0.047,0.123-0.068c0.036-0.022,0.072-0.033,0.108-0.033
			c0.044,0,0.08,0.011,0.108,0.033c0.028,0.021,0.058,0.055,0.09,0.099l0.444,0.72c-0.216,0.181-0.464,0.316-0.744,0.408
			C101.995,316.094,101.705,316.14,101.405,316.14z"/>
		<path fill="#FFFFFF" d="M106.697,309.792c0.456,0,0.871,0.074,1.245,0.222c0.374,0.148,0.694,0.358,0.96,0.63
			c0.266,0.272,0.471,0.604,0.615,0.996c0.144,0.393,0.216,0.83,0.216,1.314c0,0.488-0.072,0.928-0.216,1.32
			c-0.144,0.392-0.349,0.726-0.615,1.002c-0.266,0.275-0.586,0.487-0.96,0.636c-0.374,0.147-0.789,0.222-1.245,0.222
			c-0.46,0-0.878-0.074-1.254-0.222c-0.376-0.148-0.697-0.36-0.963-0.636c-0.266-0.276-0.472-0.61-0.618-1.002
			c-0.146-0.393-0.219-0.832-0.219-1.32c0-0.484,0.073-0.922,0.219-1.314c0.146-0.392,0.352-0.724,0.618-0.996
			c0.266-0.271,0.587-0.481,0.963-0.63C105.819,309.866,106.237,309.792,106.697,309.792z M106.697,314.994
			c0.512,0,0.891-0.172,1.137-0.517c0.246-0.344,0.369-0.848,0.369-1.512s-0.123-1.17-0.369-1.518
			c-0.246-0.349-0.625-0.522-1.137-0.522c-0.52,0-0.905,0.175-1.155,0.525c-0.25,0.35-0.375,0.854-0.375,1.515
			s0.125,1.163,0.375,1.509C105.792,314.821,106.177,314.994,106.697,314.994z"/>
		<path fill="#FFFFFF" d="M112.42,310.956c0.192-0.368,0.42-0.657,0.684-0.867s0.576-0.314,0.936-0.314
			c0.284,0,0.512,0.062,0.684,0.186l-0.096,1.11c-0.02,0.071-0.049,0.123-0.087,0.152c-0.038,0.03-0.089,0.045-0.153,0.045
			c-0.06,0-0.149-0.01-0.267-0.029c-0.118-0.021-0.233-0.03-0.345-0.03c-0.164,0-0.31,0.024-0.438,0.072s-0.243,0.116-0.345,0.207
			c-0.102,0.09-0.192,0.198-0.27,0.326c-0.078,0.129-0.151,0.274-0.219,0.438v3.792h-1.482v-6.156h0.87
			c0.152,0,0.258,0.027,0.318,0.081s0.1,0.151,0.12,0.291L112.42,310.956z"/>
		<path fill="#FFFFFF" d="M119.41,311.088c-0.04,0.064-0.082,0.109-0.126,0.135c-0.044,0.026-0.1,0.039-0.168,0.039
			c-0.072,0-0.149-0.02-0.231-0.06s-0.177-0.085-0.285-0.135c-0.108-0.051-0.231-0.096-0.369-0.136
			c-0.138-0.04-0.301-0.06-0.489-0.06c-0.292,0-0.521,0.062-0.687,0.186s-0.249,0.286-0.249,0.486c0,0.132,0.043,0.243,0.129,0.333
			c0.086,0.09,0.2,0.169,0.342,0.237c0.142,0.067,0.303,0.129,0.483,0.183c0.18,0.054,0.363,0.113,0.549,0.177
			c0.186,0.064,0.369,0.138,0.549,0.22s0.341,0.186,0.483,0.312s0.256,0.277,0.342,0.453c0.086,0.176,0.129,0.388,0.129,0.636
			c0,0.296-0.053,0.569-0.159,0.819s-0.263,0.466-0.471,0.647c-0.208,0.183-0.465,0.324-0.771,0.427
			c-0.306,0.102-0.659,0.152-1.059,0.152c-0.212,0-0.419-0.019-0.621-0.057c-0.202-0.038-0.396-0.091-0.582-0.159
			c-0.186-0.067-0.358-0.147-0.516-0.24c-0.158-0.092-0.297-0.191-0.417-0.3l0.342-0.563c0.044-0.068,0.096-0.12,0.156-0.156
			s0.136-0.054,0.228-0.054c0.092,0,0.179,0.025,0.261,0.077c0.082,0.053,0.177,0.108,0.285,0.168
			c0.108,0.061,0.235,0.116,0.381,0.169c0.146,0.052,0.331,0.077,0.555,0.077c0.176,0,0.327-0.021,0.453-0.063
			s0.23-0.097,0.312-0.165s0.142-0.147,0.18-0.237c0.038-0.09,0.057-0.183,0.057-0.278c0-0.145-0.043-0.263-0.129-0.354
			s-0.2-0.172-0.342-0.24c-0.142-0.067-0.304-0.129-0.486-0.183s-0.368-0.113-0.558-0.177c-0.19-0.064-0.376-0.14-0.558-0.226
			c-0.182-0.086-0.344-0.194-0.486-0.327c-0.142-0.132-0.256-0.294-0.342-0.485c-0.086-0.192-0.129-0.424-0.129-0.696
			c0-0.252,0.05-0.492,0.15-0.72c0.1-0.229,0.247-0.427,0.441-0.598c0.194-0.17,0.436-0.306,0.726-0.407
			c0.29-0.103,0.625-0.153,1.005-0.153c0.424,0,0.81,0.07,1.158,0.21c0.348,0.14,0.638,0.324,0.87,0.552L119.41,311.088z"/>
		<path fill="#FFFFFF" d="M8.67,326.106c0,0.636-0.106,1.22-0.318,1.752s-0.51,0.99-0.894,1.374s-0.846,0.682-1.386,0.894
			c-0.54,0.213-1.14,0.318-1.8,0.318H0.966v-8.676h3.306c0.66,0,1.26,0.106,1.8,0.32c0.54,0.215,1.002,0.513,1.386,0.895
			s0.682,0.839,0.894,1.371S8.67,325.471,8.67,326.106z M7.014,326.106c0-0.477-0.063-0.903-0.189-1.281s-0.308-0.698-0.546-0.96
			c-0.238-0.262-0.526-0.463-0.864-0.603c-0.338-0.141-0.719-0.21-1.143-0.21H2.586v6.107h1.686c0.424,0,0.805-0.069,1.143-0.21
			c0.338-0.14,0.626-0.341,0.864-0.603c0.238-0.263,0.42-0.582,0.546-0.96S7.014,326.582,7.014,326.106z"/>
		<path fill="#FFFFFF" d="M11.412,325.356c0.192-0.368,0.42-0.657,0.684-0.867s0.576-0.314,0.936-0.314
			c0.284,0,0.512,0.062,0.684,0.186l-0.096,1.11c-0.02,0.071-0.049,0.123-0.087,0.152c-0.038,0.03-0.089,0.045-0.153,0.045
			c-0.06,0-0.149-0.01-0.267-0.029c-0.118-0.021-0.233-0.03-0.345-0.03c-0.164,0-0.31,0.024-0.438,0.072s-0.243,0.116-0.345,0.207
			c-0.102,0.09-0.192,0.198-0.27,0.326c-0.078,0.129-0.151,0.274-0.219,0.438v3.792h-1.482v-6.156h0.87
			c0.152,0,0.258,0.027,0.318,0.081s0.1,0.151,0.12,0.291L11.412,325.356z"/>
		<path fill="#FFFFFF" d="M16.386,322.494c0,0.128-0.026,0.248-0.078,0.36c-0.052,0.112-0.121,0.21-0.207,0.294
			s-0.187,0.151-0.303,0.201c-0.116,0.05-0.24,0.075-0.372,0.075c-0.128,0-0.249-0.025-0.363-0.075
			c-0.114-0.05-0.213-0.117-0.297-0.201s-0.151-0.182-0.201-0.294c-0.05-0.112-0.075-0.232-0.075-0.36
			c0-0.132,0.025-0.256,0.075-0.372c0.05-0.115,0.117-0.216,0.201-0.3s0.183-0.15,0.297-0.201c0.114-0.05,0.235-0.075,0.363-0.075
			c0.132,0,0.256,0.025,0.372,0.075c0.116,0.051,0.217,0.117,0.303,0.201s0.155,0.185,0.207,0.3
			C16.359,322.238,16.386,322.362,16.386,322.494z M16.182,324.288v6.156h-1.488v-6.156H16.182z"/>
		<path fill="#FFFFFF" d="M23.4,324.288l-2.442,6.156h-1.344l-2.442-6.156h1.224c0.112,0,0.205,0.026,0.279,0.078
			c0.074,0.052,0.123,0.118,0.147,0.198l1.188,3.288c0.064,0.191,0.12,0.38,0.168,0.563c0.048,0.185,0.09,0.368,0.126,0.553
			c0.04-0.185,0.084-0.368,0.132-0.553c0.048-0.184,0.106-0.372,0.174-0.563l1.212-3.288c0.028-0.08,0.078-0.146,0.15-0.198
			s0.158-0.078,0.258-0.078H23.4z"/>
		<path fill="#FFFFFF" d="M25.482,327.553c0.024,0.315,0.08,0.589,0.168,0.818c0.088,0.23,0.204,0.42,0.348,0.57
			s0.315,0.262,0.513,0.336c0.198,0.074,0.417,0.111,0.657,0.111c0.24,0,0.447-0.028,0.621-0.084
			c0.174-0.057,0.326-0.118,0.456-0.187c0.13-0.067,0.244-0.13,0.342-0.186c0.098-0.057,0.193-0.084,0.285-0.084
			c0.124,0,0.216,0.046,0.276,0.138l0.426,0.54c-0.164,0.192-0.348,0.354-0.552,0.483s-0.417,0.233-0.639,0.312
			s-0.448,0.133-0.678,0.165c-0.23,0.032-0.453,0.048-0.669,0.048c-0.428,0-0.826-0.071-1.194-0.213s-0.688-0.352-0.96-0.63
			s-0.486-0.622-0.642-1.032c-0.156-0.41-0.234-0.885-0.234-1.425c0-0.42,0.068-0.815,0.204-1.185
			c0.136-0.37,0.331-0.692,0.585-0.967c0.254-0.273,0.564-0.49,0.93-0.65c0.366-0.16,0.779-0.24,1.239-0.24
			c0.388,0,0.746,0.063,1.074,0.186c0.328,0.124,0.61,0.306,0.846,0.543c0.236,0.238,0.421,0.53,0.555,0.876
			c0.134,0.347,0.201,0.741,0.201,1.186c0,0.224-0.024,0.375-0.072,0.453s-0.14,0.117-0.276,0.117H25.482z M28.308,326.658
			c0-0.191-0.027-0.373-0.081-0.543c-0.054-0.17-0.135-0.318-0.243-0.447c-0.108-0.128-0.245-0.229-0.411-0.303
			s-0.359-0.111-0.579-0.111c-0.428,0-0.765,0.122-1.011,0.366s-0.403,0.59-0.471,1.038H28.308z"/>
		<path fill="#FFFFFF" d="M32.304,325.356c0.192-0.368,0.42-0.657,0.684-0.867s0.576-0.314,0.936-0.314
			c0.284,0,0.512,0.062,0.684,0.186l-0.096,1.11c-0.02,0.071-0.049,0.123-0.087,0.152c-0.038,0.03-0.089,0.045-0.153,0.045
			c-0.06,0-0.149-0.01-0.267-0.029c-0.118-0.021-0.233-0.03-0.345-0.03c-0.164,0-0.31,0.024-0.438,0.072s-0.243,0.116-0.345,0.207
			c-0.102,0.09-0.192,0.198-0.27,0.326c-0.078,0.129-0.151,0.274-0.219,0.438v3.792h-1.482v-6.156h0.87
			c0.152,0,0.258,0.027,0.318,0.081s0.1,0.151,0.12,0.291L32.304,325.356z"/>
		<path fill="#FFFFFF" d="M39.293,325.488c-0.04,0.064-0.082,0.109-0.126,0.135c-0.044,0.026-0.1,0.039-0.168,0.039
			c-0.072,0-0.149-0.02-0.231-0.06s-0.177-0.085-0.285-0.135c-0.108-0.051-0.231-0.096-0.369-0.136
			c-0.138-0.04-0.301-0.06-0.489-0.06c-0.292,0-0.521,0.062-0.687,0.186s-0.249,0.286-0.249,0.486c0,0.132,0.043,0.243,0.129,0.333
			c0.086,0.09,0.2,0.169,0.342,0.237c0.142,0.067,0.303,0.129,0.483,0.183c0.18,0.054,0.363,0.113,0.549,0.177
			c0.186,0.064,0.369,0.138,0.549,0.22s0.341,0.186,0.483,0.312s0.256,0.277,0.342,0.453c0.086,0.176,0.129,0.388,0.129,0.636
			c0,0.296-0.053,0.569-0.159,0.819s-0.263,0.466-0.471,0.647c-0.208,0.183-0.465,0.324-0.771,0.427
			c-0.306,0.102-0.659,0.152-1.059,0.152c-0.212,0-0.419-0.019-0.621-0.057c-0.202-0.038-0.396-0.091-0.582-0.159
			c-0.186-0.067-0.358-0.147-0.516-0.24c-0.158-0.092-0.297-0.191-0.417-0.3l0.342-0.563c0.044-0.068,0.096-0.12,0.156-0.156
			s0.136-0.054,0.228-0.054c0.092,0,0.179,0.025,0.261,0.077c0.082,0.053,0.177,0.108,0.285,0.168
			c0.108,0.061,0.235,0.116,0.381,0.169c0.146,0.052,0.331,0.077,0.555,0.077c0.176,0,0.327-0.021,0.453-0.063
			s0.23-0.097,0.312-0.165s0.142-0.147,0.18-0.237c0.038-0.09,0.057-0.183,0.057-0.278c0-0.145-0.043-0.263-0.129-0.354
			s-0.2-0.172-0.342-0.24c-0.142-0.067-0.304-0.129-0.486-0.183s-0.368-0.113-0.558-0.177c-0.19-0.064-0.376-0.14-0.558-0.226
			c-0.182-0.086-0.344-0.194-0.486-0.327c-0.142-0.132-0.256-0.294-0.342-0.485c-0.086-0.192-0.129-0.424-0.129-0.696
			c0-0.252,0.05-0.492,0.15-0.72c0.1-0.229,0.247-0.427,0.441-0.598c0.194-0.17,0.436-0.306,0.726-0.407
			c0.29-0.103,0.625-0.153,1.005-0.153c0.424,0,0.81,0.07,1.158,0.21c0.348,0.14,0.638,0.324,0.87,0.552L39.293,325.488z"/>
		<path fill="#FFFFFF" d="M46.764,324.192c0.456,0,0.871,0.074,1.245,0.222c0.374,0.148,0.694,0.358,0.96,0.63
			c0.266,0.272,0.471,0.604,0.615,0.996c0.144,0.393,0.216,0.83,0.216,1.314c0,0.488-0.072,0.928-0.216,1.32
			c-0.144,0.392-0.349,0.726-0.615,1.002c-0.266,0.275-0.586,0.487-0.96,0.636c-0.374,0.147-0.789,0.222-1.245,0.222
			c-0.46,0-0.878-0.074-1.254-0.222c-0.376-0.148-0.697-0.36-0.963-0.636c-0.266-0.276-0.472-0.61-0.618-1.002
			c-0.146-0.393-0.219-0.832-0.219-1.32c0-0.484,0.073-0.922,0.219-1.314c0.146-0.392,0.352-0.724,0.618-0.996
			c0.266-0.271,0.587-0.481,0.963-0.63C45.886,324.267,46.304,324.192,46.764,324.192z M46.764,329.395
			c0.512,0,0.891-0.172,1.137-0.517c0.246-0.344,0.369-0.848,0.369-1.512s-0.123-1.17-0.369-1.518
			c-0.246-0.349-0.625-0.522-1.137-0.522c-0.52,0-0.905,0.175-1.155,0.525c-0.25,0.35-0.375,0.854-0.375,1.515
			s0.125,1.163,0.375,1.509C45.858,329.222,46.244,329.395,46.764,329.395z"/>
		<path fill="#FFFFFF" d="M51.521,330.444v-5.04l-0.534-0.084c-0.116-0.024-0.209-0.065-0.279-0.123
			c-0.07-0.058-0.105-0.141-0.105-0.249v-0.605h0.918v-0.456c0-0.353,0.053-0.668,0.159-0.948c0.105-0.28,0.258-0.519,0.456-0.714
			c0.198-0.196,0.439-0.347,0.723-0.45c0.284-0.104,0.604-0.156,0.96-0.156c0.284,0,0.548,0.038,0.792,0.114l-0.03,0.744
			c-0.004,0.056-0.02,0.101-0.048,0.135c-0.028,0.034-0.065,0.06-0.111,0.078c-0.046,0.018-0.099,0.03-0.159,0.036
			c-0.06,0.006-0.124,0.009-0.192,0.009c-0.176,0-0.333,0.019-0.471,0.057c-0.138,0.038-0.255,0.104-0.351,0.198
			c-0.096,0.094-0.169,0.218-0.219,0.372c-0.05,0.154-0.075,0.345-0.075,0.573v0.408h1.602v1.056h-1.554v5.046H51.521z"/>
		<path fill="#FFFFFF" d="M63.965,321.528v8.916h-0.906c-0.196,0-0.32-0.09-0.372-0.27l-0.126-0.595
			c-0.248,0.284-0.533,0.515-0.855,0.69c-0.322,0.176-0.697,0.264-1.125,0.264c-0.336,0-0.644-0.07-0.924-0.21
			c-0.28-0.14-0.521-0.343-0.723-0.608c-0.202-0.267-0.358-0.596-0.468-0.987c-0.11-0.393-0.165-0.84-0.165-1.344
			c0-0.456,0.062-0.88,0.186-1.272c0.124-0.392,0.302-0.732,0.534-1.02c0.232-0.288,0.51-0.514,0.834-0.676
			c0.324-0.162,0.688-0.242,1.092-0.242c0.344,0,0.638,0.054,0.882,0.161c0.244,0.108,0.462,0.255,0.654,0.438v-3.246H63.965z
			 M62.483,325.86c-0.168-0.204-0.351-0.348-0.549-0.432c-0.198-0.084-0.411-0.126-0.639-0.126c-0.224,0-0.426,0.042-0.606,0.126
			c-0.18,0.084-0.334,0.211-0.462,0.381s-0.226,0.386-0.294,0.647c-0.068,0.263-0.102,0.571-0.102,0.928
			c0,0.359,0.029,0.665,0.087,0.915c0.058,0.25,0.141,0.453,0.249,0.611c0.108,0.158,0.24,0.272,0.396,0.342
			c0.156,0.07,0.33,0.105,0.522,0.105c0.308,0,0.57-0.064,0.786-0.192c0.216-0.128,0.42-0.31,0.612-0.546V325.86z"/>
		<path fill="#FFFFFF" d="M67.325,322.494c0,0.128-0.026,0.248-0.078,0.36c-0.052,0.112-0.121,0.21-0.207,0.294
			s-0.187,0.151-0.303,0.201c-0.116,0.05-0.24,0.075-0.372,0.075c-0.128,0-0.249-0.025-0.363-0.075
			c-0.114-0.05-0.213-0.117-0.297-0.201s-0.151-0.182-0.201-0.294c-0.05-0.112-0.075-0.232-0.075-0.36
			c0-0.132,0.025-0.256,0.075-0.372c0.05-0.115,0.117-0.216,0.201-0.3s0.183-0.15,0.297-0.201c0.114-0.05,0.235-0.075,0.363-0.075
			c0.132,0,0.256,0.025,0.372,0.075c0.116,0.051,0.217,0.117,0.303,0.201s0.155,0.185,0.207,0.3
			C67.299,322.238,67.325,322.362,67.325,322.494z M67.121,324.288v6.156h-1.488v-6.156H67.121z"/>
		<path fill="#FFFFFF" d="M72.545,325.488c-0.04,0.064-0.082,0.109-0.126,0.135c-0.044,0.026-0.1,0.039-0.168,0.039
			c-0.072,0-0.149-0.02-0.231-0.06s-0.177-0.085-0.285-0.135c-0.108-0.051-0.231-0.096-0.369-0.136
			c-0.138-0.04-0.301-0.06-0.489-0.06c-0.292,0-0.521,0.062-0.687,0.186s-0.249,0.286-0.249,0.486c0,0.132,0.043,0.243,0.129,0.333
			c0.086,0.09,0.2,0.169,0.342,0.237c0.142,0.067,0.303,0.129,0.483,0.183c0.18,0.054,0.363,0.113,0.549,0.177
			c0.186,0.064,0.369,0.138,0.549,0.22s0.341,0.186,0.483,0.312s0.256,0.277,0.342,0.453c0.086,0.176,0.129,0.388,0.129,0.636
			c0,0.296-0.053,0.569-0.159,0.819s-0.263,0.466-0.471,0.647c-0.208,0.183-0.465,0.324-0.771,0.427
			c-0.306,0.102-0.659,0.152-1.059,0.152c-0.212,0-0.419-0.019-0.621-0.057c-0.202-0.038-0.396-0.091-0.582-0.159
			c-0.186-0.067-0.358-0.147-0.516-0.24c-0.158-0.092-0.297-0.191-0.417-0.3l0.342-0.563c0.044-0.068,0.096-0.12,0.156-0.156
			s0.136-0.054,0.228-0.054c0.092,0,0.179,0.025,0.261,0.077c0.082,0.053,0.177,0.108,0.285,0.168
			c0.108,0.061,0.235,0.116,0.381,0.169c0.146,0.052,0.331,0.077,0.555,0.077c0.176,0,0.327-0.021,0.453-0.063
			s0.23-0.097,0.312-0.165s0.142-0.147,0.18-0.237c0.038-0.09,0.057-0.183,0.057-0.278c0-0.145-0.043-0.263-0.129-0.354
			s-0.2-0.172-0.342-0.24c-0.142-0.067-0.304-0.129-0.486-0.183s-0.368-0.113-0.558-0.177c-0.19-0.064-0.376-0.14-0.558-0.226
			c-0.182-0.086-0.344-0.194-0.486-0.327c-0.142-0.132-0.256-0.294-0.342-0.485c-0.086-0.192-0.129-0.424-0.129-0.696
			c0-0.252,0.05-0.492,0.15-0.72c0.1-0.229,0.247-0.427,0.441-0.598c0.194-0.17,0.436-0.306,0.726-0.407
			c0.29-0.103,0.625-0.153,1.005-0.153c0.424,0,0.81,0.07,1.158,0.21c0.348,0.14,0.638,0.324,0.87,0.552L72.545,325.488z"/>
		<path fill="#FFFFFF" d="M75.359,327.553c0.024,0.315,0.08,0.589,0.168,0.818c0.088,0.23,0.204,0.42,0.348,0.57
			s0.315,0.262,0.513,0.336c0.198,0.074,0.417,0.111,0.657,0.111c0.24,0,0.447-0.028,0.621-0.084
			c0.174-0.057,0.326-0.118,0.456-0.187c0.13-0.067,0.244-0.13,0.342-0.186c0.098-0.057,0.193-0.084,0.285-0.084
			c0.124,0,0.216,0.046,0.276,0.138l0.426,0.54c-0.164,0.192-0.348,0.354-0.552,0.483s-0.417,0.233-0.639,0.312
			s-0.448,0.133-0.678,0.165c-0.23,0.032-0.453,0.048-0.669,0.048c-0.428,0-0.826-0.071-1.194-0.213s-0.688-0.352-0.96-0.63
			s-0.486-0.622-0.642-1.032c-0.156-0.41-0.234-0.885-0.234-1.425c0-0.42,0.068-0.815,0.204-1.185
			c0.136-0.37,0.331-0.692,0.585-0.967c0.254-0.273,0.564-0.49,0.93-0.65c0.366-0.16,0.779-0.24,1.239-0.24
			c0.388,0,0.746,0.063,1.074,0.186c0.328,0.124,0.61,0.306,0.846,0.543c0.236,0.238,0.421,0.53,0.555,0.876
			c0.134,0.347,0.201,0.741,0.201,1.186c0,0.224-0.024,0.375-0.072,0.453s-0.14,0.117-0.276,0.117H75.359z M78.186,326.658
			c0-0.191-0.027-0.373-0.081-0.543c-0.054-0.17-0.135-0.318-0.243-0.447c-0.108-0.128-0.245-0.229-0.411-0.303
			s-0.359-0.111-0.579-0.111c-0.428,0-0.765,0.122-1.011,0.366s-0.403,0.59-0.471,1.038H78.186z"/>
		<path fill="#FFFFFF" d="M82.169,325.044c0.124-0.124,0.255-0.238,0.393-0.345c0.138-0.105,0.284-0.196,0.438-0.27
			c0.154-0.074,0.319-0.133,0.495-0.175c0.176-0.042,0.368-0.063,0.576-0.063c0.336,0,0.634,0.057,0.894,0.171
			c0.26,0.114,0.477,0.274,0.651,0.48s0.306,0.451,0.396,0.737s0.135,0.602,0.135,0.945v3.918h-1.482v-3.918
			c0-0.376-0.086-0.667-0.258-0.873s-0.434-0.309-0.786-0.309c-0.256,0-0.496,0.058-0.72,0.174
			c-0.224,0.116-0.436,0.273-0.636,0.474v4.452h-1.482v-6.156h0.906c0.192,0,0.318,0.09,0.378,0.271L82.169,325.044z"/>
		<path fill="#FFFFFF" d="M93.107,324.498v0.553c0,0.176-0.106,0.283-0.318,0.323l-0.552,0.103c0.084,0.212,0.126,0.443,0.126,0.695
			c0,0.305-0.061,0.579-0.183,0.825s-0.291,0.455-0.507,0.627c-0.216,0.172-0.471,0.306-0.765,0.399s-0.611,0.141-0.951,0.141
			c-0.12,0-0.236-0.006-0.348-0.018c-0.112-0.012-0.222-0.028-0.33-0.048c-0.192,0.116-0.288,0.246-0.288,0.39
			c0,0.124,0.057,0.215,0.171,0.273c0.114,0.058,0.265,0.099,0.453,0.123c0.188,0.023,0.402,0.038,0.642,0.045
			c0.24,0.006,0.486,0.019,0.738,0.039c0.252,0.02,0.498,0.055,0.738,0.104c0.24,0.05,0.454,0.129,0.642,0.237
			c0.188,0.107,0.339,0.255,0.453,0.44c0.114,0.187,0.171,0.426,0.171,0.718c0,0.271-0.067,0.535-0.201,0.792
			c-0.134,0.256-0.328,0.483-0.582,0.684c-0.254,0.2-0.566,0.361-0.936,0.483c-0.37,0.121-0.791,0.183-1.263,0.183
			c-0.464,0-0.868-0.045-1.212-0.135c-0.344-0.09-0.63-0.21-0.858-0.36c-0.228-0.149-0.398-0.323-0.51-0.519
			c-0.112-0.196-0.168-0.4-0.168-0.612c0-0.288,0.087-0.529,0.261-0.723c0.174-0.194,0.413-0.35,0.717-0.466
			c-0.164-0.084-0.294-0.195-0.39-0.336c-0.096-0.14-0.144-0.323-0.144-0.552c0-0.092,0.017-0.187,0.051-0.285
			c0.034-0.098,0.084-0.194,0.15-0.291c0.066-0.096,0.149-0.187,0.249-0.272s0.218-0.163,0.354-0.231
			c-0.312-0.168-0.557-0.392-0.735-0.672c-0.178-0.28-0.267-0.607-0.267-0.984c0-0.304,0.061-0.578,0.183-0.824
			c0.122-0.246,0.292-0.456,0.51-0.63c0.218-0.175,0.476-0.308,0.774-0.399c0.298-0.092,0.623-0.138,0.975-0.138
			c0.264,0,0.512,0.026,0.744,0.081c0.232,0.054,0.444,0.133,0.636,0.236H93.107z M91.631,330.721c0-0.12-0.036-0.219-0.108-0.294
			c-0.072-0.076-0.17-0.136-0.294-0.178s-0.269-0.072-0.435-0.093c-0.166-0.02-0.342-0.035-0.528-0.045s-0.378-0.019-0.576-0.027
			c-0.198-0.008-0.391-0.023-0.579-0.048c-0.164,0.092-0.297,0.2-0.399,0.324s-0.153,0.268-0.153,0.432
			c0,0.108,0.027,0.209,0.081,0.304c0.054,0.094,0.14,0.175,0.258,0.242c0.118,0.068,0.271,0.121,0.459,0.159
			s0.418,0.058,0.69,0.058c0.276,0,0.514-0.021,0.714-0.063c0.2-0.042,0.365-0.1,0.495-0.174c0.13-0.074,0.225-0.162,0.285-0.264
			C91.601,330.951,91.631,330.841,91.631,330.721z M89.957,327.217c0.184,0,0.344-0.025,0.48-0.075
			c0.136-0.05,0.249-0.119,0.339-0.207c0.09-0.088,0.158-0.194,0.204-0.318s0.069-0.26,0.069-0.408c0-0.304-0.091-0.545-0.273-0.723
			c-0.182-0.178-0.455-0.267-0.819-0.267s-0.637,0.089-0.819,0.267c-0.182,0.178-0.273,0.419-0.273,0.723
			c0,0.145,0.023,0.278,0.069,0.402s0.114,0.231,0.204,0.321s0.204,0.16,0.342,0.21C89.618,327.191,89.777,327.217,89.957,327.217z"
			/>
		<path fill="#FFFFFF" d="M94.055,325.146c0.708-0.648,1.56-0.972,2.556-0.972c0.36,0,0.682,0.059,0.966,0.177
			c0.284,0.118,0.524,0.282,0.72,0.492c0.196,0.21,0.345,0.461,0.447,0.753s0.153,0.611,0.153,0.96v3.888h-0.672
			c-0.14,0-0.248-0.021-0.324-0.063c-0.076-0.042-0.136-0.126-0.18-0.255l-0.132-0.443c-0.156,0.14-0.308,0.263-0.456,0.369
			c-0.148,0.105-0.302,0.194-0.462,0.267c-0.16,0.072-0.331,0.127-0.513,0.165s-0.383,0.057-0.603,0.057
			c-0.26,0-0.5-0.035-0.72-0.104c-0.22-0.07-0.41-0.175-0.57-0.315c-0.16-0.14-0.284-0.313-0.372-0.521
			c-0.088-0.208-0.132-0.45-0.132-0.727c0-0.155,0.026-0.311,0.078-0.465c0.052-0.154,0.137-0.301,0.255-0.44
			c0.118-0.141,0.271-0.272,0.459-0.396s0.419-0.231,0.693-0.324c0.274-0.092,0.593-0.167,0.957-0.225
			c0.364-0.058,0.78-0.093,1.248-0.105v-0.359c0-0.412-0.088-0.718-0.264-0.915c-0.176-0.198-0.43-0.297-0.762-0.297
			c-0.24,0-0.439,0.027-0.597,0.084c-0.158,0.056-0.297,0.119-0.417,0.188c-0.12,0.07-0.229,0.133-0.327,0.189
			c-0.098,0.056-0.207,0.084-0.327,0.084c-0.104,0-0.192-0.027-0.264-0.081c-0.072-0.055-0.13-0.117-0.174-0.189L94.055,325.146z
			 M97.451,327.816c-0.428,0.02-0.788,0.057-1.08,0.111c-0.292,0.054-0.526,0.123-0.702,0.207c-0.176,0.084-0.302,0.182-0.378,0.294
			c-0.076,0.111-0.114,0.233-0.114,0.365c0,0.261,0.077,0.446,0.231,0.559s0.355,0.168,0.603,0.168c0.304,0,0.567-0.055,0.789-0.165
			s0.439-0.277,0.651-0.501V327.816z"/>
		<path fill="#FFFFFF" d="M105.845,324.498v0.553c0,0.176-0.106,0.283-0.318,0.323l-0.552,0.103
			c0.084,0.212,0.126,0.443,0.126,0.695c0,0.305-0.061,0.579-0.183,0.825s-0.291,0.455-0.507,0.627
			c-0.216,0.172-0.471,0.306-0.765,0.399s-0.611,0.141-0.951,0.141c-0.12,0-0.236-0.006-0.348-0.018
			c-0.112-0.012-0.222-0.028-0.33-0.048c-0.192,0.116-0.288,0.246-0.288,0.39c0,0.124,0.057,0.215,0.171,0.273
			c0.114,0.058,0.265,0.099,0.453,0.123c0.188,0.023,0.402,0.038,0.642,0.045c0.24,0.006,0.486,0.019,0.738,0.039
			c0.252,0.02,0.498,0.055,0.738,0.104c0.24,0.05,0.454,0.129,0.642,0.237c0.188,0.107,0.339,0.255,0.453,0.44
			c0.114,0.187,0.171,0.426,0.171,0.718c0,0.271-0.067,0.535-0.201,0.792c-0.134,0.256-0.328,0.483-0.582,0.684
			c-0.254,0.2-0.566,0.361-0.936,0.483c-0.37,0.121-0.791,0.183-1.263,0.183c-0.464,0-0.868-0.045-1.212-0.135
			c-0.344-0.09-0.63-0.21-0.858-0.36c-0.228-0.149-0.398-0.323-0.51-0.519c-0.112-0.196-0.168-0.4-0.168-0.612
			c0-0.288,0.087-0.529,0.261-0.723c0.174-0.194,0.413-0.35,0.717-0.466c-0.164-0.084-0.294-0.195-0.39-0.336
			c-0.096-0.14-0.144-0.323-0.144-0.552c0-0.092,0.017-0.187,0.051-0.285c0.034-0.098,0.084-0.194,0.15-0.291
			c0.066-0.096,0.149-0.187,0.249-0.272s0.218-0.163,0.354-0.231c-0.312-0.168-0.557-0.392-0.735-0.672
			c-0.178-0.28-0.267-0.607-0.267-0.984c0-0.304,0.061-0.578,0.183-0.824c0.122-0.246,0.292-0.456,0.51-0.63
			c0.218-0.175,0.476-0.308,0.774-0.399c0.298-0.092,0.623-0.138,0.975-0.138c0.264,0,0.512,0.026,0.744,0.081
			c0.232,0.054,0.444,0.133,0.636,0.236H105.845z M104.369,330.721c0-0.12-0.036-0.219-0.108-0.294
			c-0.072-0.076-0.17-0.136-0.294-0.178s-0.269-0.072-0.435-0.093c-0.166-0.02-0.342-0.035-0.528-0.045s-0.378-0.019-0.576-0.027
			c-0.198-0.008-0.391-0.023-0.579-0.048c-0.164,0.092-0.297,0.2-0.399,0.324s-0.153,0.268-0.153,0.432
			c0,0.108,0.027,0.209,0.081,0.304c0.054,0.094,0.14,0.175,0.258,0.242c0.118,0.068,0.271,0.121,0.459,0.159
			s0.418,0.058,0.69,0.058c0.276,0,0.514-0.021,0.714-0.063c0.2-0.042,0.365-0.1,0.495-0.174c0.13-0.074,0.225-0.162,0.285-0.264
			C104.339,330.951,104.369,330.841,104.369,330.721z M102.695,327.217c0.184,0,0.344-0.025,0.48-0.075
			c0.136-0.05,0.249-0.119,0.339-0.207c0.09-0.088,0.158-0.194,0.204-0.318s0.069-0.26,0.069-0.408c0-0.304-0.091-0.545-0.273-0.723
			c-0.182-0.178-0.455-0.267-0.819-0.267s-0.637,0.089-0.819,0.267c-0.182,0.178-0.273,0.419-0.273,0.723
			c0,0.145,0.023,0.278,0.069,0.402s0.114,0.231,0.204,0.321s0.204,0.16,0.342,0.21
			C102.356,327.191,102.515,327.217,102.695,327.217z"/>
		<path fill="#FFFFFF" d="M108.077,327.553c0.024,0.315,0.08,0.589,0.168,0.818c0.088,0.23,0.204,0.42,0.348,0.57
			s0.315,0.262,0.513,0.336c0.198,0.074,0.417,0.111,0.657,0.111c0.24,0,0.447-0.028,0.621-0.084
			c0.174-0.057,0.326-0.118,0.456-0.187c0.13-0.067,0.244-0.13,0.342-0.186c0.098-0.057,0.193-0.084,0.285-0.084
			c0.124,0,0.216,0.046,0.276,0.138l0.426,0.54c-0.164,0.192-0.348,0.354-0.552,0.483s-0.417,0.233-0.639,0.312
			s-0.448,0.133-0.678,0.165c-0.23,0.032-0.453,0.048-0.669,0.048c-0.428,0-0.826-0.071-1.194-0.213s-0.688-0.352-0.96-0.63
			s-0.486-0.622-0.642-1.032c-0.156-0.41-0.234-0.885-0.234-1.425c0-0.42,0.068-0.815,0.204-1.185
			c0.136-0.37,0.331-0.692,0.585-0.967c0.254-0.273,0.564-0.49,0.93-0.65c0.366-0.16,0.779-0.24,1.239-0.24
			c0.388,0,0.746,0.063,1.074,0.186c0.328,0.124,0.61,0.306,0.846,0.543c0.236,0.238,0.421,0.53,0.555,0.876
			c0.134,0.347,0.201,0.741,0.201,1.186c0,0.224-0.024,0.375-0.072,0.453s-0.14,0.117-0.276,0.117H108.077z M110.903,326.658
			c0-0.191-0.027-0.373-0.081-0.543c-0.054-0.17-0.135-0.318-0.243-0.447c-0.108-0.128-0.245-0.229-0.411-0.303
			s-0.359-0.111-0.579-0.111c-0.428,0-0.765,0.122-1.011,0.366s-0.403,0.59-0.471,1.038H110.903z"/>
		<path fill="#FFFFFF" d="M113.501,330.444v-6.156h0.906c0.192,0,0.318,0.09,0.378,0.271l0.096,0.456
			c0.108-0.12,0.221-0.23,0.339-0.33c0.118-0.101,0.244-0.187,0.378-0.258c0.134-0.072,0.278-0.13,0.432-0.172
			c0.154-0.042,0.323-0.063,0.507-0.063c0.388,0,0.707,0.104,0.957,0.315c0.25,0.21,0.437,0.488,0.561,0.837
			c0.096-0.204,0.216-0.379,0.36-0.525c0.144-0.146,0.302-0.265,0.474-0.357c0.172-0.092,0.355-0.159,0.549-0.203
			s0.389-0.066,0.585-0.066c0.34,0,0.642,0.052,0.906,0.156c0.264,0.104,0.486,0.256,0.666,0.456c0.18,0.2,0.317,0.443,0.411,0.731
			c0.094,0.288,0.141,0.618,0.141,0.99v3.918h-1.482v-3.918c0-0.392-0.086-0.688-0.258-0.885c-0.172-0.198-0.424-0.297-0.756-0.297
			c-0.152,0-0.293,0.025-0.423,0.077c-0.13,0.053-0.244,0.128-0.342,0.226c-0.098,0.098-0.175,0.221-0.231,0.369
			c-0.056,0.147-0.084,0.317-0.084,0.51v3.918h-1.488v-3.918c0-0.412-0.083-0.712-0.249-0.9c-0.166-0.188-0.409-0.281-0.729-0.281
			c-0.216,0-0.417,0.053-0.603,0.158c-0.186,0.106-0.359,0.252-0.519,0.436v4.506H113.501z"/>
		<path fill="#FFFFFF" d="M124.847,327.553c0.024,0.315,0.08,0.589,0.168,0.818c0.088,0.23,0.204,0.42,0.348,0.57
			s0.315,0.262,0.513,0.336c0.198,0.074,0.417,0.111,0.657,0.111c0.24,0,0.447-0.028,0.621-0.084
			c0.174-0.057,0.326-0.118,0.456-0.187c0.13-0.067,0.244-0.13,0.342-0.186c0.098-0.057,0.193-0.084,0.285-0.084
			c0.124,0,0.216,0.046,0.276,0.138l0.426,0.54c-0.164,0.192-0.348,0.354-0.552,0.483s-0.417,0.233-0.639,0.312
			s-0.448,0.133-0.678,0.165c-0.23,0.032-0.453,0.048-0.669,0.048c-0.428,0-0.826-0.071-1.194-0.213s-0.688-0.352-0.96-0.63
			s-0.486-0.622-0.642-1.032c-0.156-0.41-0.234-0.885-0.234-1.425c0-0.42,0.068-0.815,0.204-1.185
			c0.136-0.37,0.331-0.692,0.585-0.967c0.254-0.273,0.564-0.49,0.93-0.65c0.366-0.16,0.779-0.24,1.239-0.24
			c0.388,0,0.746,0.063,1.074,0.186c0.328,0.124,0.61,0.306,0.846,0.543c0.236,0.238,0.421,0.53,0.555,0.876
			c0.134,0.347,0.201,0.741,0.201,1.186c0,0.224-0.024,0.375-0.072,0.453s-0.14,0.117-0.276,0.117H124.847z M127.673,326.658
			c0-0.191-0.027-0.373-0.081-0.543c-0.054-0.17-0.135-0.318-0.243-0.447c-0.108-0.128-0.245-0.229-0.411-0.303
			s-0.359-0.111-0.579-0.111c-0.428,0-0.765,0.122-1.011,0.366s-0.403,0.59-0.471,1.038H127.673z"/>
		<path fill="#FFFFFF" d="M131.657,325.044c0.124-0.124,0.255-0.238,0.393-0.345c0.138-0.105,0.284-0.196,0.438-0.27
			c0.154-0.074,0.319-0.133,0.495-0.175c0.176-0.042,0.368-0.063,0.576-0.063c0.336,0,0.634,0.057,0.894,0.171
			c0.26,0.114,0.477,0.274,0.651,0.48s0.306,0.451,0.396,0.737s0.135,0.602,0.135,0.945v3.918h-1.482v-3.918
			c0-0.376-0.086-0.667-0.258-0.873s-0.434-0.309-0.786-0.309c-0.256,0-0.496,0.058-0.72,0.174
			c-0.224,0.116-0.436,0.273-0.636,0.474v4.452h-1.482v-6.156h0.906c0.192,0,0.318,0.09,0.378,0.271L131.657,325.044z"/>
		<path fill="#FFFFFF" d="M139.247,330.54c-0.536,0-0.947-0.15-1.233-0.453c-0.286-0.302-0.429-0.719-0.429-1.251v-3.438h-0.63
			c-0.08,0-0.148-0.026-0.204-0.078c-0.056-0.052-0.084-0.13-0.084-0.234v-0.588l0.99-0.162l0.312-1.68
			c0.02-0.08,0.058-0.142,0.114-0.186c0.056-0.044,0.128-0.066,0.216-0.066h0.768v1.938h1.644v1.056h-1.644v3.336
			c0,0.192,0.047,0.342,0.141,0.45c0.094,0.107,0.223,0.162,0.387,0.162c0.092,0,0.169-0.012,0.231-0.033
			c0.062-0.022,0.116-0.045,0.162-0.069c0.046-0.023,0.087-0.047,0.123-0.068c0.036-0.022,0.072-0.033,0.108-0.033
			c0.044,0,0.08,0.011,0.108,0.033c0.028,0.021,0.058,0.055,0.09,0.099l0.444,0.72c-0.216,0.181-0.464,0.316-0.744,0.408
			C139.837,330.494,139.547,330.54,139.247,330.54z"/>
	</g>
	<line fill="none" stroke="#FFFFFF" stroke-miterlimit="10" x1="283.751" y1="160.997" x2="384.973" y2="59.775"/>
	<line fill="none" stroke="#FFFFFF" stroke-miterlimit="10" x1="68.432" y1="288.753" x2="169.654" y2="187.53"/>
</g>
</svg>
