<?xml version="1.0" encoding="utf-8"?>
<!-- Generator: Adobe Illustrator 16.0.0, SVG Export Plug-In . SVG Version: 6.00 Build 0)  -->
<!DOCTYPE svg PUBLIC "-//W3C//DTD SVG 1.1//EN" "http://www.w3.org/Graphics/SVG/1.1/DTD/svg11.dtd">
<svg version="1.1" id="Layer_1" xmlns="http://www.w3.org/2000/svg" xmlns:xlink="http://www.w3.org/1999/xlink" x="0px" y="0px"
	 width="24px" height="20px" viewBox="29.633 7.528 24 20" enable-background="new 29.633 7.528 24 20" xml:space="preserve">
<path d="M48.138,17.529c0,0.272-0.101,0.506-0.304,0.7l-8.494,8.506c-0.202,0.194-0.439,0.292-0.711,0.292
	c-0.272,0-0.506-0.097-0.7-0.292s-0.292-0.428-0.292-0.7v-4.504h-7c-0.272,0-0.51-0.101-0.712-0.303s-0.299-0.436-0.292-0.7V14.53
	c0-0.272,0.097-0.506,0.292-0.7s0.432-0.295,0.712-0.303h7V9.023c0-0.265,0.097-0.498,0.292-0.7s0.428-0.299,0.7-0.292
	c0.272,0.008,0.509,0.105,0.711,0.292l8.494,8.506C48.037,17.023,48.138,17.257,48.138,17.529L48.138,17.529 M53.633,12.033v10.991
	c0,1.245-0.439,2.307-1.318,3.186s-1.941,1.318-3.185,1.318h-4.994c-0.14,0-0.257-0.051-0.35-0.152s-0.144-0.218-0.152-0.35
	c0-0.039-0.004-0.144-0.012-0.315c-0.007-0.171-0.011-0.307-0.011-0.408s0.015-0.222,0.046-0.362s0.082-0.245,0.152-0.315
	c0.07-0.07,0.179-0.101,0.327-0.093h4.994c0.692,0,1.283-0.245,1.773-0.735c0.49-0.49,0.735-1.081,0.735-1.773V12.033
	c0-0.692-0.245-1.283-0.735-1.773c-0.49-0.49-1.082-0.735-1.773-0.735h-4.492h-0.175h-0.198c0,0-0.063-0.004-0.187-0.012
	c-0.125-0.007-0.183-0.023-0.175-0.046s-0.035-0.051-0.128-0.082c-0.093-0.031-0.128-0.078-0.105-0.14s0.012-0.136-0.035-0.222
	c0-0.039-0.004-0.14-0.012-0.303c-0.007-0.164-0.011-0.304-0.011-0.42s0.015-0.237,0.046-0.362c0.031-0.124,0.082-0.226,0.152-0.303
	c0.07-0.078,0.179-0.113,0.327-0.105h4.994c1.244,0,2.306,0.439,3.185,1.318C53.194,9.727,53.633,10.789,53.633,12.033
	L53.633,12.033"/>
</svg>
