<?xml version="1.0" encoding="utf-8"?>
<!-- Generator: Adobe Illustrator 16.0.0, SVG Export Plug-In . SVG Version: 6.00 Build 0)  -->
<!DOCTYPE svg PUBLIC "-//W3C//DTD SVG 1.1//EN" "http://www.w3.org/Graphics/SVG/1.1/DTD/svg11.dtd">
<svg version="1.1" id="Layer_2" xmlns="http://www.w3.org/2000/svg" xmlns:xlink="http://www.w3.org/1999/xlink" x="0px" y="0px"
	 width="207.589px" height="64.98px" viewBox="-104.527 98.443 207.589 64.98"
	 enable-background="new -104.527 98.443 207.589 64.98" xml:space="preserve">
<g>
	<g>
		<polygon fill="#1E3C4D" points="-66.089,98.443 -89.011,123.301 -75.498,143.572 -46.886,156.836 -27.366,118.213 		"/>
		<polygon opacity="0.85" fill="#D06F6E" enable-background="new    " points="-104.527,118.129 -80.336,150.246 -51.724,150.246 
			-42.883,123.134 -66.089,106.368 		"/>
		<polygon opacity="0.85" fill="#9DC3CC" enable-background="new    " points="-89.762,163.424 -73.413,128.224 -66.089,114.458 
			-42.883,123.134 -46.886,156.836 		"/>
	</g>
	<g>
		<path fill="#1E424D" d="M-9.512,118.714v11.175l12.65-0.081v1.924l-12.65-0.083v13.265h-3.274v-27.96H3.669v2.006L-9.512,118.714z
			"/>
		<path fill="#1E424D" d="M12.349,144.912v-27.958h3.15v26.199l13.306-0.246v2.006H12.349z"/>
		<path fill="#1E424D" d="M47.718,145.24c-7.941,0-14.326-6.386-14.326-14.287c0-7.942,6.385-14.328,14.326-14.328
			c7.939,0,14.326,6.386,14.326,14.328C62.044,138.854,55.658,145.24,47.718,145.24z M47.718,118.347
			c-6.1,0-10.93,5.566-10.93,12.607c0,7.042,4.83,12.568,10.93,12.568c6.099,0,10.929-5.525,10.929-12.568
			C58.646,123.913,53.816,118.347,47.718,118.347z"/>
		<path fill="#1E424D" d="M70.682,116.954l6.836,21.737l8.106-22.678l8.391,22.596l6.715-21.655h2.332l-9.537,28.9l-8.393-22.474
			l-8.434,22.474l-9.537-28.9H70.682z"/>
	</g>
</g>
</svg>
