<?xml version="1.0" encoding="utf-8"?>
<!-- Generator: Adobe Illustrator 16.0.0, SVG Export Plug-In . SVG Version: 6.00 Build 0)  -->
<!DOCTYPE svg PUBLIC "-//W3C//DTD SVG 1.1//EN" "http://www.w3.org/Graphics/SVG/1.1/DTD/svg11.dtd">
<svg version="1.1" id="Layer_1" xmlns="http://www.w3.org/2000/svg" xmlns:xlink="http://www.w3.org/1999/xlink" x="0px" y="0px"
	 width="36px" height="36px" viewBox="44.049 20.106 36 36" enable-background="new 44.049 20.106 36 36" xml:space="preserve">
<rect width="36" height="36"/>
<path fill="#D06F6E" d="M62.049,20.106c2.44,0,4.77,0.475,6.99,1.425c2.22,0.95,4.135,2.23,5.745,3.84
	c1.61,1.61,2.89,3.525,3.84,5.745c0.95,2.22,1.425,4.55,1.425,6.99s-0.475,4.77-1.425,6.99c-0.95,2.22-2.23,4.135-3.84,5.745
	c-1.61,1.61-3.525,2.89-5.745,3.84c-2.22,0.95-4.55,1.425-6.99,1.425s-4.77-0.475-6.99-1.425c-2.22-0.95-4.135-2.23-5.745-3.84
	c-1.61-1.61-2.89-3.525-3.84-5.745c-0.95-2.22-1.425-4.55-1.425-6.99s0.475-4.77,1.425-6.99c0.95-2.22,2.23-4.135,3.84-5.745
	c1.61-1.61,3.525-2.89,5.745-3.84C57.279,20.581,59.609,20.106,62.049,20.106L62.049,20.106 M62.049,22.671
	c-2.54,0-4.955,0.605-7.245,1.815l3.885,3.9c1.1-0.38,2.22-0.57,3.36-0.57s2.26,0.19,3.36,0.57l3.885-3.9
	C67.004,23.276,64.589,22.671,62.049,22.671L62.049,22.671 M48.429,45.351l3.9-3.885c-0.38-1.1-0.57-2.22-0.57-3.36
	s0.19-2.26,0.57-3.36l-3.9-3.885c-1.21,2.29-1.815,4.705-1.815,7.245S47.219,43.061,48.429,45.351L48.429,45.351 M62.049,53.541
	c2.54,0,4.955-0.605,7.245-1.815l-3.885-3.9c-1.1,0.38-2.22,0.57-3.36,0.57s-2.26-0.19-3.36-0.57l-3.885,3.9
	C57.094,52.936,59.509,53.541,62.049,53.541L62.049,53.541 M62.049,45.816c2.13,0,3.95-0.75,5.46-2.25c1.51-1.5,2.26-3.32,2.25-5.46
	c-0.01-2.14-0.76-3.96-2.25-5.46c-1.49-1.5-3.31-2.25-5.46-2.25s-3.97,0.75-5.46,2.25c-1.49,1.5-2.24,3.32-2.25,5.46
	c-0.01,2.14,0.74,3.96,2.25,5.46C58.099,45.066,59.919,45.816,62.049,45.816L62.049,45.816 M71.769,41.466l3.9,3.885
	c1.21-2.29,1.815-4.705,1.815-7.245s-0.605-4.955-1.815-7.245l-3.9,3.885c0.38,1.1,0.57,2.22,0.57,3.36S72.149,40.366,71.769,41.466
	L71.769,41.466"/>
</svg>
