<?xml version="1.0" encoding="utf-8"?>
<!-- Generator: Adobe Illustrator 16.0.0, SVG Export Plug-In . SVG Version: 6.00 Build 0)  -->
<!DOCTYPE svg PUBLIC "-//W3C//DTD SVG 1.1//EN" "http://www.w3.org/Graphics/SVG/1.1/DTD/svg11.dtd">
<svg version="1.1" id="Layer_1" xmlns="http://www.w3.org/2000/svg" xmlns:xlink="http://www.w3.org/1999/xlink" x="0px" y="0px"
	 width="36px" height="34.113px" viewBox="39.732 14.443 36 34.113" enable-background="new 39.732 14.443 36 34.113"
	 xml:space="preserve">
<path fill="#D06F6E" d="M75.732,46.301v2.256h-36v-27h2.244v24.744H75.732L75.732,46.301 M73.477,24.378v7.636
	c0,0.244-0.115,0.42-0.342,0.524s-0.433,0.062-0.617-0.132l-2.125-2.125L59.262,41.395c-0.113,0.121-0.248,0.184-0.406,0.184
	s-0.293-0.063-0.408-0.184l-4.094-4.094l-7.312,7.32l-3.373-3.385l10.276-10.272c0.121-0.114,0.258-0.17,0.406-0.17
	s0.285,0.058,0.407,0.17l4.095,4.093l8.164-8.146l-2.125-2.125c-0.192-0.191-0.24-0.402-0.145-0.631
	c0.096-0.227,0.271-0.34,0.525-0.34h7.65c0.158,0,0.289,0.053,0.395,0.158C73.423,24.077,73.477,24.211,73.477,24.378L73.477,24.378
	"/>
</svg>
