<?xml version="1.0" encoding="utf-8"?>
<!-- Generator: Adobe Illustrator 16.0.0, SVG Export Plug-In . SVG Version: 6.00 Build 0)  -->
<!DOCTYPE svg PUBLIC "-//W3C//DTD SVG 1.1//EN" "http://www.w3.org/Graphics/SVG/1.1/DTD/svg11.dtd">
<svg version="1.1" id="Layer_1" xmlns="http://www.w3.org/2000/svg" xmlns:xlink="http://www.w3.org/1999/xlink" x="0px" y="0px"
	 width="36px" height="34.5px" viewBox="-94.575 3.896 36 34.5" enable-background="new -94.575 3.896 36 34.5"
	 xml:space="preserve">
<rect width="36" height="34.5"/>
<path fill="#D06F6E" d="M-58.575,28.004c0,1.18-0.323,2.164-0.969,2.95s-1.534,1.186-2.665,1.196c-0.592,0-1.152-0.131-1.68-0.393
	c-0.528-0.262-0.953-0.541-1.276-0.836c-0.323-0.295-0.732-0.574-1.228-0.836c-0.496-0.262-1.007-0.388-1.534-0.377
	c-1.583,0-2.375,0.907-2.375,2.721c0,0.568,0.113,1.41,0.339,2.524c0.226,1.115,0.333,1.956,0.323,2.524v0.115
	c-0.312,0-0.549,0.005-0.71,0.017c-0.495,0.043-1.201,0.131-2.116,0.262c-0.915,0.131-1.744,0.229-2.487,0.295
	c-0.743,0.065-1.454,0.099-2.132,0.099c-0.872,0-1.61-0.191-2.212-0.574c-0.603-0.382-0.91-0.995-0.921-1.836
	c0-0.546,0.129-1.065,0.388-1.557c0.258-0.491,0.533-0.907,0.824-1.245c0.291-0.339,0.565-0.771,0.824-1.295
	s0.382-1.093,0.372-1.705c0-1.147-0.388-2.049-1.163-2.704c-0.775-0.656-1.75-0.983-2.923-0.983c-1.217,0-2.25,0.333-3.101,1
	c-0.851,0.667-1.276,1.601-1.276,2.803c0,0.634,0.108,1.24,0.323,1.819s0.458,1.054,0.727,1.426c0.27,0.372,0.512,0.759,0.727,1.164
	s0.323,0.771,0.323,1.098c0,0.667-0.328,1.316-0.985,1.95c-0.539,0.514-1.384,0.771-2.536,0.771c-1.368,0-3.133-0.175-5.297-0.524
	c-0.129-0.022-0.329-0.049-0.598-0.082c-0.27-0.033-0.469-0.065-0.598-0.098l-0.274-0.033c-0.022,0-0.043-0.011-0.065-0.033
	c-0.032,0-0.048-0.005-0.048-0.016v-22.47c0.032,0.011,0.156,0.033,0.372,0.065c0.215,0.033,0.463,0.071,0.743,0.115
	c0.28,0.044,0.436,0.071,0.469,0.082c2.164,0.35,3.93,0.524,5.297,0.524c1.152,0,1.997-0.257,2.536-0.77
	c0.657-0.645,0.985-1.295,0.985-1.951c0-0.328-0.107-0.699-0.323-1.114s-0.458-0.803-0.727-1.164
	c-0.269-0.361-0.511-0.831-0.727-1.41s-0.323-1.186-0.323-1.819c0-1.202,0.425-2.136,1.276-2.802c0.851-0.667,1.89-1,3.117-1
	c1.152,0,2.121,0.328,2.907,0.983s1.174,1.557,1.163,2.704c0,0.601-0.124,1.169-0.372,1.705c-0.248,0.536-0.522,0.967-0.824,1.295
	s-0.576,0.737-0.824,1.229s-0.377,1.016-0.388,1.574c0,0.83,0.307,1.437,0.921,1.819c0.614,0.383,1.351,0.579,2.212,0.59
	c0.926,0,2.229-0.109,3.909-0.328c1.68-0.219,2.853-0.344,3.521-0.377v0.049c-0.011,0.022-0.038,0.147-0.081,0.377
	s-0.081,0.481-0.113,0.754c-0.032,0.273-0.054,0.426-0.064,0.459c-0.345,2.196-0.517,3.994-0.517,5.392
	c0,1.169,0.253,2.021,0.759,2.557c0.625,0.678,1.265,1.016,1.922,1.016c0.313,0,0.673-0.109,1.083-0.328
	c0.409-0.218,0.791-0.464,1.146-0.737c0.355-0.273,0.824-0.519,1.405-0.738c0.581-0.218,1.179-0.328,1.792-0.328
	c1.185,0,2.105,0.432,2.762,1.295C-58.904,25.721-58.575,26.77-58.575,28.004L-58.575,28.004"/>
</svg>
