<?xml version="1.0" encoding="utf-8"?>
<!-- Generator: Adobe Illustrator 16.0.0, SVG Export Plug-In . SVG Version: 6.00 Build 0)  -->
<!DOCTYPE svg PUBLIC "-//W3C//DTD SVG 1.1//EN" "http://www.w3.org/Graphics/SVG/1.1/DTD/svg11.dtd">
<svg version="1.1" id="Layer_1" xmlns="http://www.w3.org/2000/svg" xmlns:xlink="http://www.w3.org/1999/xlink" x="0px" y="0px"
	 width="20px" height="20px" viewBox="38.171 18.932 20 20" enable-background="new 38.171 18.932 20 20" xml:space="preserve">
<rect width="20" height="20"/>
<path fill="#993D2E" d="M58.171,35.035c0,0.444-0.155,0.826-0.465,1.144l-2.288,2.288c-0.318,0.31-0.7,0.465-1.144,0.465
	s-0.825-0.155-1.144-0.465l-4.953-4.953l-4.953,4.953c-0.31,0.31-0.691,0.465-1.144,0.465c-0.453,0-0.834-0.155-1.144-0.465
	l-2.288-2.288c-0.318-0.318-0.478-0.7-0.478-1.144c0-0.444,0.159-0.83,0.478-1.156l4.953-4.94l-4.953-4.953
	c-0.318-0.318-0.478-0.7-0.478-1.144c0-0.444,0.159-0.826,0.478-1.144l2.288-2.288c0.31-0.318,0.691-0.478,1.144-0.478
	c0.452,0,0.833,0.159,1.144,0.478l4.953,4.94l4.953-4.94c0.31-0.318,0.691-0.478,1.144-0.478s0.834,0.159,1.144,0.478l2.288,2.288
	c0.31,0.31,0.465,0.691,0.465,1.144s-0.155,0.833-0.465,1.144l-4.953,4.953l4.953,4.94C58.016,34.197,58.171,34.583,58.171,35.035
	L58.171,35.035"/>
</svg>
