<?xml version="1.0" encoding="utf-8"?>
<!-- Generator: Adobe Illustrator 16.0.0, SVG Export Plug-In . SVG Version: 6.00 Build 0)  -->
<!DOCTYPE svg PUBLIC "-//W3C//DTD SVG 1.1//EN" "http://www.w3.org/Graphics/SVG/1.1/DTD/svg11.dtd">
<svg version="1.1" id="Layer_1" xmlns="http://www.w3.org/2000/svg" xmlns:xlink="http://www.w3.org/1999/xlink" x="0px" y="0px"
	 width="50px" height="50px" viewBox="72.409 33.568 50 50" enable-background="new 72.409 33.568 50 50" xml:space="preserve">
<rect width="50" height="50"/>
<path fill="#D06F6E" d="M97.421,33.568c4.521,0,8.702,1.118,12.542,3.353c3.84,2.235,6.871,5.272,9.091,9.111
	c2.22,3.839,3.338,8.018,3.354,12.537c0.016,4.519-1.102,8.698-3.354,12.537c-2.252,3.838-5.283,6.875-9.091,9.111
	c-3.808,2.235-7.989,3.353-12.542,3.353c-4.554,0-8.743-1.118-12.567-3.353C81.03,77.98,78,74.943,75.764,71.105
	c-2.236-3.839-3.354-8.018-3.354-12.537s1.118-8.698,3.354-12.537c2.236-3.838,5.267-6.875,9.091-9.111
	C88.679,34.686,92.868,33.568,97.421,33.568L97.421,33.568 M109.915,60.366c0.697-0.389,1.045-0.988,1.045-1.798
	s-0.349-1.409-1.045-1.798l-17.72-10.398c-0.665-0.421-1.353-0.438-2.066-0.049c-0.697,0.421-1.045,1.029-1.045,1.822v20.846
	c0,0.793,0.348,1.401,1.045,1.822c0.34,0.162,0.681,0.243,1.021,0.243c0.373,0,0.721-0.097,1.045-0.292L109.915,60.366"/>
</svg>
