<?xml version="1.0" encoding="utf-8"?>
<!-- Generator: Adobe Illustrator 16.0.0, SVG Export Plug-In . SVG Version: 6.00 Build 0)  -->
<!DOCTYPE svg PUBLIC "-//W3C//DTD SVG 1.1//EN" "http://www.w3.org/Graphics/SVG/1.1/DTD/svg11.dtd">
<svg version="1.1" id="Layer_1" xmlns="http://www.w3.org/2000/svg" xmlns:xlink="http://www.w3.org/1999/xlink" x="0px" y="0px"
	 width="24px" height="20px" viewBox="15.833 10.417 24 20" enable-background="new 15.833 10.417 24 20" xml:space="preserve">
<path d="M39.833,27.417v1.995c0,0.272-0.097,0.51-0.292,0.712s-0.432,0.299-0.712,0.292H16.837c-0.272,0-0.51-0.097-0.712-0.292
	s-0.299-0.432-0.292-0.712v-1.995c0-0.272,0.097-0.506,0.292-0.7s0.432-0.295,0.712-0.303h21.992c0.272,0,0.51,0.101,0.712,0.303
	S39.84,27.153,39.833,27.417L39.833,27.417 M39.833,19.413v2.007c0,0.272-0.097,0.506-0.292,0.7s-0.432,0.292-0.712,0.292H16.837
	c-0.272,0-0.51-0.097-0.712-0.292s-0.299-0.428-0.292-0.7v-2.007c0-0.272,0.097-0.506,0.292-0.7s0.432-0.292,0.712-0.292h21.992
	c0.272,0,0.51,0.097,0.712,0.292S39.84,19.141,39.833,19.413L39.833,19.413 M39.833,11.42v1.995c0,0.272-0.097,0.506-0.292,0.7
	s-0.432,0.295-0.712,0.303H16.837c-0.272,0-0.51-0.101-0.712-0.303s-0.299-0.436-0.292-0.7V11.42c0-0.272,0.097-0.51,0.292-0.712
	s0.432-0.299,0.712-0.292h21.992c0.272,0,0.51,0.097,0.712,0.292C39.743,10.903,39.84,11.14,39.833,11.42L39.833,11.42"/>
</svg>
