<?xml version="1.0" encoding="utf-8"?>
<!-- Generator: Adobe Illustrator 16.0.0, SVG Export Plug-In . SVG Version: 6.00 Build 0)  -->
<!DOCTYPE svg PUBLIC "-//W3C//DTD SVG 1.1//EN" "http://www.w3.org/Graphics/SVG/1.1/DTD/svg11.dtd">
<svg version="1.1" id="Layer_1" xmlns="http://www.w3.org/2000/svg" xmlns:xlink="http://www.w3.org/1999/xlink" x="0px" y="0px"
	 width="376.535px" height="379.673px" viewBox="0 0 376.535 379.673" enable-background="new 0 0 376.535 379.673"
	 xml:space="preserve">
<g>
	<polygon fill="#5C8299" points="250.585,125.673 125.95,125.673 63.471,251.673 313.064,251.673 	"/>
	<polygon fill="#0D1D25" points="0,379.673 376.535,379.673 314.056,253.673 62.479,253.673 	"/>
	<polygon fill="#87B7C2" points="188.268,0 126.942,123.673 249.593,123.673 	"/>
	<g>
		<path fill="#FFFFFF" d="M160.918,77.72c0.521,0,0.967,0.05,1.337,0.148c0.37,0.099,0.674,0.24,0.91,0.424
			c0.236,0.183,0.41,0.405,0.52,0.666c0.11,0.26,0.165,0.554,0.165,0.88c0,0.187-0.027,0.366-0.082,0.536s-0.141,0.33-0.256,0.479
			s-0.263,0.283-0.44,0.404s-0.39,0.224-0.635,0.308c1.093,0.246,1.639,0.836,1.639,1.771c0,0.337-0.063,0.649-0.192,0.935
			c-0.128,0.286-0.315,0.533-0.561,0.74c-0.246,0.207-0.549,0.369-0.908,0.487c-0.359,0.117-0.77,0.176-1.231,0.176h-3.003V77.72
			H160.918z M159.66,78.864v2.299h1.177c0.506,0,0.889-0.092,1.146-0.275c0.259-0.183,0.388-0.475,0.388-0.875
			c0-0.414-0.117-0.709-0.352-0.885c-0.234-0.176-0.602-0.264-1.101-0.264H159.66z M161.156,84.518c0.274,0,0.506-0.033,0.692-0.099
			c0.188-0.066,0.337-0.154,0.448-0.264c0.112-0.11,0.192-0.238,0.242-0.385c0.05-0.147,0.074-0.303,0.074-0.468
			c0-0.172-0.027-0.327-0.082-0.465c-0.056-0.137-0.142-0.254-0.259-0.352s-0.269-0.171-0.454-0.223
			c-0.185-0.051-0.407-0.077-0.668-0.077h-1.49v2.332H161.156z"/>
		<path fill="#FFFFFF" d="M166.908,78.897v2.206h2.783v1.138h-2.783v2.25h3.531v1.183h-5.016V77.72h5.016v1.177H166.908z"/>
		<path fill="#FFFFFF" d="M178.453,77.72v7.953h-1.484v-3.476h-3.735v3.476h-1.484V77.72h1.484v3.421h3.735V77.72H178.453z"/>
		<path fill="#FFFFFF" d="M187.039,85.673h-1.145c-0.128,0-0.232-0.032-0.313-0.096c-0.08-0.064-0.141-0.144-0.182-0.239
			l-0.594-1.623h-3.294l-0.595,1.623c-0.029,0.084-0.086,0.161-0.17,0.231c-0.085,0.07-0.189,0.104-0.313,0.104h-1.155l3.13-7.953
			h1.507L187.039,85.673z M184.426,82.67l-0.969-2.646c-0.047-0.117-0.097-0.257-0.148-0.418c-0.051-0.162-0.103-0.335-0.153-0.522
			c-0.048,0.187-0.098,0.362-0.148,0.525c-0.052,0.164-0.102,0.306-0.149,0.426l-0.962,2.635H184.426z"/>
		<path fill="#FFFFFF" d="M194.045,77.72l-3.212,7.953h-1.337l-3.212-7.953h1.188c0.128,0,0.232,0.031,0.313,0.094
			c0.08,0.063,0.141,0.143,0.181,0.242l1.876,4.851c0.063,0.158,0.122,0.331,0.179,0.52s0.111,0.386,0.162,0.591
			c0.044-0.206,0.092-0.402,0.144-0.591c0.051-0.189,0.107-0.362,0.17-0.52l1.864-4.851c0.029-0.084,0.088-0.161,0.174-0.231
			c0.086-0.069,0.191-0.104,0.316-0.104H194.045z"/>
		<path fill="#FFFFFF" d="M196.355,85.673h-1.484V77.72h1.484V85.673z"/>
		<path fill="#FFFFFF" d="M205.715,81.696c0,0.583-0.096,1.123-0.288,1.62c-0.193,0.497-0.465,0.927-0.817,1.29
			c-0.352,0.363-0.775,0.646-1.271,0.85s-1.045,0.305-1.649,0.305c-0.602,0-1.149-0.102-1.645-0.305s-0.92-0.487-1.273-0.85
			c-0.354-0.363-0.628-0.793-0.822-1.29c-0.194-0.497-0.292-1.037-0.292-1.62s0.098-1.123,0.292-1.62s0.468-0.927,0.822-1.29
			c0.354-0.363,0.778-0.646,1.273-0.85s1.043-0.305,1.645-0.305c0.403,0,0.782,0.047,1.138,0.14
			c0.356,0.094,0.683,0.226,0.979,0.396s0.563,0.378,0.8,0.622c0.237,0.244,0.438,0.516,0.603,0.817s0.291,0.627,0.377,0.979
			S205.715,81.308,205.715,81.696z M204.203,81.696c0-0.436-0.059-0.828-0.176-1.174c-0.117-0.346-0.284-0.641-0.5-0.883
			c-0.217-0.242-0.479-0.427-0.789-0.555c-0.311-0.128-0.659-0.193-1.048-0.193s-0.738,0.064-1.048,0.193
			c-0.311,0.128-0.574,0.313-0.792,0.555c-0.219,0.242-0.386,0.537-0.504,0.883c-0.117,0.347-0.176,0.738-0.176,1.174
			c0,0.437,0.059,0.828,0.176,1.174c0.118,0.347,0.285,0.64,0.504,0.88c0.218,0.24,0.481,0.424,0.792,0.553
			c0.31,0.128,0.659,0.193,1.048,0.193s0.737-0.064,1.048-0.193c0.31-0.128,0.572-0.313,0.789-0.553
			c0.216-0.24,0.383-0.533,0.5-0.88S204.203,82.133,204.203,81.696z"/>
		<path fill="#FFFFFF" d="M213.229,85.673h-1.336c-0.253,0-0.437-0.099-0.55-0.297l-1.673-2.546
			c-0.063-0.096-0.131-0.164-0.206-0.204c-0.075-0.041-0.186-0.061-0.333-0.061H208.5v3.107h-1.479V77.72h2.425
			c0.539,0,1.002,0.056,1.39,0.168c0.387,0.112,0.703,0.269,0.951,0.47c0.247,0.202,0.43,0.443,0.547,0.723
			c0.117,0.281,0.176,0.589,0.176,0.927c0,0.268-0.039,0.521-0.118,0.759c-0.078,0.238-0.192,0.455-0.341,0.649
			s-0.332,0.365-0.55,0.511c-0.218,0.147-0.467,0.262-0.745,0.347c0.095,0.055,0.184,0.12,0.264,0.195
			c0.081,0.075,0.154,0.164,0.22,0.267L213.229,85.673z M209.423,81.504c0.278,0,0.521-0.035,0.729-0.104s0.378-0.166,0.512-0.289
			c0.134-0.123,0.233-0.269,0.3-0.438c0.065-0.168,0.099-0.354,0.099-0.556c0-0.403-0.133-0.713-0.398-0.929
			s-0.672-0.325-1.219-0.325H208.5v2.64H209.423z"/>
		<path fill="#FFFFFF" d="M218.327,79.167c-0.044,0.077-0.091,0.133-0.14,0.167c-0.05,0.035-0.111,0.052-0.185,0.052
			c-0.077,0-0.16-0.028-0.25-0.085c-0.09-0.057-0.197-0.12-0.322-0.19c-0.124-0.07-0.271-0.133-0.437-0.19
			c-0.167-0.057-0.364-0.085-0.592-0.085c-0.205,0-0.385,0.025-0.539,0.074c-0.153,0.049-0.283,0.118-0.388,0.206
			c-0.104,0.088-0.183,0.193-0.233,0.316c-0.052,0.123-0.077,0.258-0.077,0.404c0,0.187,0.052,0.343,0.157,0.467
			c0.104,0.125,0.242,0.231,0.415,0.319c0.172,0.088,0.368,0.167,0.588,0.236c0.221,0.07,0.446,0.144,0.677,0.223
			c0.231,0.079,0.457,0.17,0.677,0.275s0.416,0.237,0.588,0.396c0.173,0.16,0.312,0.355,0.416,0.586s0.156,0.512,0.156,0.841
			c0,0.359-0.062,0.696-0.185,1.009c-0.122,0.313-0.302,0.587-0.538,0.82c-0.237,0.233-0.525,0.416-0.866,0.55
			c-0.342,0.134-0.732,0.201-1.172,0.201c-0.253,0-0.503-0.024-0.748-0.074c-0.246-0.049-0.481-0.12-0.707-0.212
			c-0.226-0.091-0.438-0.201-0.635-0.33c-0.198-0.128-0.374-0.271-0.528-0.429l0.435-0.709c0.036-0.051,0.084-0.094,0.143-0.129
			c0.059-0.035,0.121-0.052,0.188-0.052c0.092,0,0.19,0.038,0.297,0.113s0.232,0.159,0.38,0.25c0.146,0.092,0.317,0.175,0.514,0.25
			s0.432,0.113,0.707,0.113c0.422,0,0.748-0.1,0.979-0.3c0.231-0.2,0.347-0.487,0.347-0.861c0-0.209-0.052-0.379-0.156-0.511
			s-0.243-0.243-0.415-0.333c-0.173-0.09-0.369-0.166-0.589-0.228s-0.443-0.13-0.671-0.204s-0.451-0.161-0.671-0.264
			c-0.221-0.103-0.416-0.237-0.589-0.402c-0.172-0.165-0.311-0.371-0.415-0.619s-0.157-0.553-0.157-0.916
			c0-0.29,0.058-0.572,0.174-0.847c0.115-0.275,0.283-0.519,0.503-0.731c0.22-0.213,0.491-0.383,0.814-0.512
			c0.322-0.128,0.692-0.192,1.11-0.192c0.47,0,0.902,0.073,1.298,0.22c0.396,0.146,0.733,0.352,1.013,0.616L218.327,79.167z"/>
	</g>
	<g>
		<path fill="#FFFFFF" d="M154.729,184.719c0.531,0,0.991,0.063,1.38,0.187c0.389,0.125,0.71,0.299,0.963,0.522
			s0.44,0.492,0.563,0.803s0.185,0.653,0.185,1.023c0,0.385-0.064,0.738-0.192,1.059c-0.129,0.321-0.321,0.597-0.578,0.828
			c-0.256,0.231-0.578,0.411-0.965,0.539c-0.387,0.128-0.839,0.193-1.355,0.193h-1.105v2.8h-1.479v-7.954H154.729z M154.729,188.718
			c0.271,0,0.508-0.034,0.709-0.102c0.202-0.068,0.37-0.165,0.504-0.292s0.233-0.281,0.3-0.462c0.065-0.182,0.099-0.384,0.099-0.608
			c0-0.212-0.033-0.405-0.099-0.578c-0.066-0.172-0.165-0.319-0.298-0.44c-0.132-0.121-0.299-0.213-0.5-0.278
			c-0.202-0.064-0.44-0.096-0.715-0.096h-1.105v2.854H154.729z"/>
		<path fill="#FFFFFF" d="M160.438,185.896v2.206h2.783v1.138h-2.783v2.25h3.531v1.183h-5.016v-7.954h5.016v1.177H160.438z"/>
		<path fill="#FFFFFF" d="M171.487,192.673h-1.336c-0.253,0-0.437-0.1-0.55-0.297l-1.673-2.547
			c-0.063-0.096-0.131-0.164-0.206-0.204c-0.075-0.041-0.186-0.061-0.333-0.061h-0.632v3.108h-1.479v-7.954h2.425
			c0.539,0,1.002,0.056,1.39,0.168c0.387,0.112,0.703,0.269,0.951,0.47c0.247,0.202,0.43,0.443,0.547,0.723
			c0.117,0.281,0.176,0.589,0.176,0.927c0,0.268-0.039,0.521-0.118,0.759c-0.078,0.238-0.192,0.455-0.341,0.649
			s-0.332,0.365-0.55,0.511c-0.218,0.147-0.467,0.262-0.745,0.347c0.095,0.055,0.184,0.12,0.264,0.195
			c0.081,0.075,0.154,0.164,0.22,0.267L171.487,192.673z M167.682,188.503c0.278,0,0.521-0.035,0.729-0.104s0.378-0.166,0.512-0.289
			c0.134-0.123,0.233-0.269,0.3-0.438c0.065-0.168,0.099-0.354,0.099-0.556c0-0.403-0.133-0.713-0.398-0.929
			s-0.672-0.325-1.219-0.325h-0.945v2.64H167.682z"/>
		<path fill="#FFFFFF" d="M176.586,186.166c-0.044,0.077-0.091,0.133-0.14,0.167c-0.05,0.035-0.111,0.052-0.185,0.052
			c-0.077,0-0.16-0.028-0.25-0.085c-0.09-0.057-0.197-0.12-0.322-0.19c-0.124-0.07-0.271-0.133-0.437-0.19
			c-0.167-0.057-0.364-0.085-0.592-0.085c-0.205,0-0.385,0.025-0.539,0.074c-0.153,0.049-0.283,0.118-0.388,0.206
			c-0.104,0.088-0.183,0.193-0.233,0.316c-0.052,0.123-0.077,0.258-0.077,0.404c0,0.187,0.052,0.343,0.157,0.467
			c0.104,0.125,0.242,0.231,0.415,0.319c0.172,0.088,0.368,0.167,0.588,0.236c0.221,0.07,0.446,0.144,0.677,0.223
			c0.231,0.079,0.457,0.17,0.677,0.275s0.416,0.237,0.588,0.396c0.173,0.16,0.312,0.355,0.416,0.586s0.156,0.512,0.156,0.841
			c0,0.359-0.062,0.696-0.185,1.01c-0.122,0.313-0.302,0.587-0.538,0.819c-0.237,0.233-0.525,0.416-0.866,0.55
			c-0.342,0.134-0.732,0.201-1.172,0.201c-0.253,0-0.503-0.024-0.748-0.074c-0.246-0.05-0.481-0.12-0.707-0.212
			s-0.438-0.201-0.635-0.33c-0.198-0.128-0.374-0.271-0.528-0.429l0.435-0.71c0.036-0.051,0.084-0.094,0.143-0.129
			s0.121-0.053,0.188-0.053c0.092,0,0.19,0.038,0.297,0.113s0.232,0.158,0.38,0.25c0.146,0.092,0.317,0.175,0.514,0.25
			s0.432,0.113,0.707,0.113c0.422,0,0.748-0.1,0.979-0.3c0.231-0.2,0.347-0.487,0.347-0.861c0-0.209-0.052-0.379-0.156-0.511
			s-0.243-0.243-0.415-0.333c-0.173-0.09-0.369-0.166-0.589-0.228s-0.443-0.13-0.671-0.204s-0.451-0.161-0.671-0.264
			c-0.221-0.103-0.416-0.237-0.589-0.402c-0.172-0.165-0.311-0.371-0.415-0.619s-0.157-0.553-0.157-0.916
			c0-0.29,0.058-0.572,0.174-0.847c0.115-0.275,0.283-0.519,0.503-0.731c0.22-0.213,0.491-0.383,0.814-0.512
			c0.322-0.128,0.692-0.192,1.11-0.192c0.47,0,0.902,0.073,1.298,0.22c0.396,0.146,0.733,0.352,1.013,0.616L176.586,186.166z"/>
		<path fill="#FFFFFF" d="M185.969,188.696c0,0.583-0.096,1.123-0.288,1.62c-0.193,0.497-0.465,0.927-0.817,1.29
			c-0.352,0.363-0.775,0.646-1.271,0.85c-0.495,0.204-1.045,0.306-1.649,0.306c-0.602,0-1.149-0.102-1.645-0.306
			c-0.495-0.203-0.92-0.486-1.273-0.85c-0.354-0.363-0.628-0.793-0.822-1.29c-0.194-0.497-0.292-1.037-0.292-1.62
			s0.098-1.123,0.292-1.62s0.468-0.927,0.822-1.29c0.354-0.363,0.778-0.646,1.273-0.85s1.043-0.305,1.645-0.305
			c0.403,0,0.782,0.047,1.138,0.14c0.356,0.094,0.683,0.226,0.979,0.396s0.563,0.378,0.8,0.622c0.237,0.244,0.438,0.516,0.603,0.817
			s0.291,0.627,0.377,0.979S185.969,188.307,185.969,188.696z M184.456,188.696c0-0.436-0.059-0.828-0.176-1.174
			c-0.117-0.346-0.284-0.641-0.5-0.883c-0.217-0.242-0.479-0.427-0.789-0.555c-0.311-0.128-0.659-0.193-1.048-0.193
			s-0.738,0.064-1.048,0.193c-0.311,0.128-0.574,0.313-0.792,0.555c-0.219,0.242-0.386,0.537-0.504,0.883
			c-0.117,0.347-0.176,0.738-0.176,1.174c0,0.437,0.059,0.828,0.176,1.174c0.118,0.347,0.285,0.64,0.504,0.88
			c0.218,0.24,0.481,0.425,0.792,0.553c0.31,0.129,0.659,0.193,1.048,0.193s0.737-0.064,1.048-0.193
			c0.31-0.128,0.572-0.313,0.789-0.553c0.216-0.24,0.383-0.533,0.5-0.88S184.456,189.132,184.456,188.696z"/>
		<path fill="#FFFFFF" d="M193.977,184.719v7.954h-0.759c-0.117,0-0.216-0.02-0.294-0.058c-0.079-0.039-0.155-0.104-0.229-0.195
			l-4.152-5.303c0.021,0.242,0.033,0.466,0.033,0.671v4.884h-1.304v-7.954h0.775c0.063,0,0.116,0.003,0.162,0.008
			s0.086,0.017,0.121,0.033s0.068,0.04,0.102,0.071s0.069,0.073,0.11,0.124l4.169,5.324c-0.011-0.128-0.021-0.255-0.027-0.379
			c-0.008-0.125-0.012-0.24-0.012-0.347v-4.834H193.977z"/>
		<path fill="#FFFFFF" d="M202.563,192.673h-1.145c-0.128,0-0.232-0.032-0.313-0.097c-0.08-0.063-0.141-0.144-0.182-0.239
			l-0.594-1.622h-3.294l-0.595,1.622c-0.029,0.085-0.086,0.161-0.17,0.231c-0.085,0.069-0.189,0.104-0.313,0.104h-1.155l3.13-7.954
			h1.507L202.563,192.673z M199.95,189.669l-0.969-2.646c-0.047-0.117-0.097-0.257-0.148-0.418
			c-0.051-0.162-0.103-0.335-0.153-0.522c-0.048,0.187-0.098,0.362-0.148,0.525c-0.052,0.164-0.102,0.306-0.149,0.426l-0.962,2.635
			H199.95z"/>
		<path fill="#FFFFFF" d="M208.046,191.451v1.222h-4.658v-7.954h1.479v6.732H208.046z"/>
		<path fill="#FFFFFF" d="M210.586,192.673h-1.484v-7.954h1.484V192.673z"/>
		<path fill="#FFFFFF" d="M217.918,185.935h-2.397v6.738h-1.479v-6.738h-2.398v-1.216h6.275V185.935z"/>
		<path fill="#FFFFFF" d="M222.378,189.592v3.081h-1.474v-3.081l-2.898-4.873h1.304c0.128,0,0.229,0.031,0.305,0.094
			s0.139,0.141,0.189,0.236l1.452,2.657c0.085,0.158,0.159,0.306,0.223,0.445c0.064,0.139,0.122,0.279,0.174,0.418
			c0.048-0.139,0.103-0.279,0.165-0.418s0.134-0.288,0.214-0.445l1.447-2.657c0.04-0.081,0.101-0.156,0.181-0.226
			c0.081-0.069,0.184-0.104,0.309-0.104h1.309L222.378,189.592z"/>
	</g>
	<g>
		<path fill="#FFFFFF" d="M125.398,313.72l-3.212,7.953h-1.337l-3.212-7.953h1.188c0.128,0,0.232,0.031,0.313,0.094
			c0.08,0.063,0.141,0.143,0.181,0.241l1.876,4.852c0.063,0.157,0.122,0.331,0.179,0.52c0.057,0.189,0.111,0.386,0.162,0.592
			c0.044-0.206,0.092-0.402,0.144-0.592c0.051-0.188,0.107-0.362,0.17-0.52l1.864-4.852c0.029-0.084,0.088-0.161,0.174-0.23
			s0.191-0.104,0.316-0.104H125.398z"/>
		<path fill="#FFFFFF" d="M132.405,321.673h-1.145c-0.128,0-0.232-0.032-0.313-0.097c-0.08-0.063-0.141-0.144-0.182-0.239
			l-0.594-1.622h-3.294l-0.595,1.622c-0.029,0.085-0.086,0.161-0.17,0.231c-0.085,0.069-0.189,0.104-0.313,0.104h-1.155l3.13-7.953
			h1.507L132.405,321.673z M129.792,318.67l-0.969-2.646c-0.047-0.117-0.097-0.257-0.148-0.418
			c-0.051-0.162-0.103-0.336-0.153-0.522c-0.048,0.187-0.098,0.361-0.148,0.524c-0.052,0.164-0.102,0.306-0.149,0.427l-0.962,2.635
			H129.792z"/>
		<path fill="#FFFFFF" d="M137.888,320.451v1.222h-4.658v-7.953h1.479v6.731H137.888z"/>
		<path fill="#FFFFFF" d="M141.925,320.479c0.285,0,0.541-0.048,0.767-0.144c0.226-0.095,0.415-0.229,0.569-0.401
			c0.154-0.172,0.272-0.381,0.354-0.627c0.083-0.246,0.124-0.521,0.124-0.825v-4.763h1.479v4.763c0,0.474-0.076,0.91-0.229,1.312
			c-0.151,0.402-0.37,0.748-0.654,1.04c-0.284,0.291-0.63,0.519-1.036,0.682c-0.407,0.163-0.866,0.245-1.375,0.245
			c-0.514,0-0.974-0.082-1.381-0.245s-0.753-0.391-1.037-0.682c-0.284-0.292-0.502-0.638-0.654-1.04
			c-0.152-0.401-0.229-0.838-0.229-1.312v-4.763h1.479v4.758c0,0.304,0.042,0.579,0.124,0.824c0.083,0.246,0.202,0.456,0.357,0.63
			c0.156,0.175,0.347,0.31,0.572,0.404C141.383,320.432,141.639,320.479,141.925,320.479z"/>
		<path fill="#FFFFFF" d="M148.376,314.896v2.206h2.783v1.138h-2.783v2.25h3.531v1.183h-5.016v-7.953h5.016v1.177H148.376z"/>
		<path fill="#FFFFFF" d="M157.451,315.166c-0.044,0.077-0.091,0.133-0.14,0.168c-0.05,0.035-0.111,0.052-0.185,0.052
			c-0.077,0-0.16-0.028-0.25-0.085s-0.197-0.12-0.322-0.189c-0.124-0.07-0.271-0.133-0.437-0.19
			c-0.167-0.057-0.364-0.085-0.592-0.085c-0.205,0-0.385,0.025-0.539,0.074c-0.153,0.05-0.283,0.118-0.388,0.206
			c-0.104,0.089-0.183,0.193-0.233,0.316c-0.052,0.123-0.077,0.258-0.077,0.404c0,0.188,0.052,0.343,0.157,0.468
			c0.104,0.125,0.242,0.23,0.415,0.319c0.172,0.088,0.368,0.166,0.588,0.236c0.221,0.069,0.446,0.144,0.677,0.223
			c0.231,0.079,0.457,0.17,0.677,0.274s0.416,0.237,0.588,0.396c0.173,0.159,0.312,0.354,0.416,0.586
			c0.104,0.23,0.156,0.512,0.156,0.841c0,0.359-0.062,0.696-0.185,1.01c-0.122,0.313-0.302,0.587-0.538,0.819
			c-0.237,0.233-0.525,0.416-0.866,0.55c-0.342,0.134-0.732,0.201-1.172,0.201c-0.253,0-0.503-0.024-0.748-0.074
			c-0.246-0.05-0.481-0.12-0.707-0.212s-0.438-0.201-0.635-0.33c-0.198-0.128-0.374-0.271-0.528-0.429l0.435-0.71
			c0.036-0.051,0.084-0.094,0.143-0.129s0.121-0.053,0.188-0.053c0.092,0,0.19,0.038,0.297,0.113s0.232,0.158,0.38,0.25
			c0.146,0.092,0.317,0.175,0.514,0.25s0.432,0.113,0.707,0.113c0.422,0,0.748-0.1,0.979-0.3c0.231-0.2,0.347-0.487,0.347-0.861
			c0-0.209-0.052-0.379-0.156-0.511s-0.243-0.243-0.415-0.333c-0.173-0.09-0.369-0.166-0.589-0.229s-0.443-0.13-0.671-0.203
			s-0.451-0.161-0.671-0.264c-0.221-0.104-0.416-0.237-0.589-0.402c-0.172-0.165-0.311-0.371-0.415-0.618
			c-0.104-0.248-0.157-0.553-0.157-0.916c0-0.29,0.058-0.572,0.174-0.847c0.115-0.275,0.283-0.52,0.503-0.731
			c0.22-0.213,0.491-0.384,0.814-0.512c0.322-0.128,0.692-0.192,1.11-0.192c0.47,0,0.902,0.073,1.298,0.22
			c0.396,0.146,0.733,0.352,1.013,0.616L157.451,315.166z"/>
		<path fill="#FFFFFF" d="M168.369,321.673h-1.145c-0.128,0-0.232-0.032-0.313-0.097c-0.08-0.063-0.141-0.144-0.182-0.239
			l-0.594-1.622h-3.294l-0.595,1.622c-0.029,0.085-0.086,0.161-0.17,0.231c-0.085,0.069-0.189,0.104-0.313,0.104h-1.155l3.13-7.953
			h1.507L168.369,321.673z M165.756,318.67l-0.969-2.646c-0.047-0.117-0.097-0.257-0.148-0.418
			c-0.051-0.162-0.103-0.336-0.153-0.522c-0.048,0.187-0.098,0.361-0.148,0.524c-0.052,0.164-0.102,0.306-0.149,0.427l-0.962,2.635
			H165.756z"/>
		<path fill="#FFFFFF" d="M175.898,313.72v7.953h-0.759c-0.117,0-0.216-0.02-0.294-0.058c-0.079-0.039-0.155-0.104-0.229-0.195
			l-4.152-5.303c0.021,0.242,0.033,0.466,0.033,0.672v4.884h-1.304v-7.953h0.775c0.063,0,0.116,0.003,0.162,0.008
			c0.046,0.006,0.086,0.017,0.121,0.033s0.068,0.04,0.102,0.071s0.069,0.073,0.11,0.124l4.169,5.324
			c-0.011-0.129-0.021-0.255-0.027-0.38c-0.008-0.124-0.012-0.24-0.012-0.347v-4.834H175.898z"/>
		<path fill="#FFFFFF" d="M184.731,317.696c0,0.583-0.097,1.118-0.291,1.605c-0.194,0.488-0.468,0.908-0.819,1.26
			c-0.353,0.353-0.776,0.625-1.271,0.819c-0.495,0.194-1.045,0.292-1.65,0.292h-3.03v-7.953h3.03c0.605,0,1.155,0.098,1.65,0.294
			c0.494,0.196,0.918,0.47,1.271,0.819c0.352,0.351,0.625,0.77,0.819,1.257C184.634,316.578,184.731,317.113,184.731,317.696z
			 M183.213,317.696c0-0.437-0.058-0.828-0.174-1.175c-0.115-0.346-0.282-0.64-0.5-0.88c-0.219-0.24-0.482-0.424-0.792-0.553
			c-0.31-0.128-0.659-0.192-1.048-0.192h-1.546v5.6h1.546c0.389,0,0.738-0.064,1.048-0.193c0.31-0.128,0.573-0.313,0.792-0.553
			c0.218-0.24,0.385-0.533,0.5-0.88C183.156,318.523,183.213,318.133,183.213,317.696z"/>
		<path fill="#FFFFFF" d="M197.332,313.72v7.953h-1.304v-5.138c0-0.205,0.011-0.427,0.033-0.665l-2.403,4.516
			c-0.114,0.216-0.288,0.324-0.522,0.324h-0.21c-0.234,0-0.408-0.108-0.522-0.324l-2.431-4.532c0.011,0.121,0.021,0.24,0.027,0.357
			c0.008,0.117,0.012,0.226,0.012,0.324v5.138h-1.304v-7.953h1.116c0.066,0,0.123,0.002,0.171,0.006
			c0.047,0.003,0.091,0.013,0.129,0.027s0.073,0.038,0.104,0.071s0.062,0.077,0.091,0.132l2.382,4.417
			c0.062,0.117,0.12,0.238,0.173,0.362c0.053,0.125,0.105,0.253,0.157,0.386c0.051-0.136,0.104-0.268,0.159-0.394
			c0.055-0.127,0.113-0.249,0.176-0.366l2.349-4.405c0.029-0.055,0.061-0.099,0.094-0.132c0.032-0.033,0.068-0.057,0.106-0.071
			c0.039-0.015,0.082-0.024,0.13-0.027c0.048-0.004,0.104-0.006,0.17-0.006H197.332z"/>
		<path fill="#FFFFFF" d="M206.687,317.696c0,0.583-0.096,1.123-0.288,1.619c-0.193,0.497-0.465,0.927-0.817,1.29
			c-0.352,0.363-0.775,0.646-1.271,0.85c-0.495,0.204-1.045,0.306-1.649,0.306c-0.602,0-1.149-0.102-1.645-0.306
			c-0.495-0.203-0.92-0.486-1.273-0.85c-0.354-0.363-0.628-0.793-0.822-1.29c-0.194-0.496-0.292-1.036-0.292-1.619
			s0.098-1.123,0.292-1.62s0.468-0.927,0.822-1.29c0.354-0.362,0.778-0.646,1.273-0.85c0.495-0.203,1.043-0.305,1.645-0.305
			c0.403,0,0.782,0.047,1.138,0.14c0.356,0.094,0.683,0.226,0.979,0.396c0.297,0.17,0.563,0.378,0.8,0.621
			c0.237,0.244,0.438,0.517,0.603,0.817s0.291,0.627,0.377,0.979C206.644,316.938,206.687,317.308,206.687,317.696z
			 M205.174,317.696c0-0.437-0.059-0.828-0.176-1.175c-0.117-0.346-0.284-0.641-0.5-0.883c-0.217-0.241-0.479-0.427-0.789-0.555
			c-0.311-0.129-0.659-0.193-1.048-0.193s-0.738,0.064-1.048,0.193c-0.311,0.128-0.574,0.313-0.792,0.555
			c-0.219,0.242-0.386,0.537-0.504,0.883c-0.117,0.347-0.176,0.738-0.176,1.175s0.059,0.827,0.176,1.174
			c0.118,0.347,0.285,0.64,0.504,0.88c0.218,0.24,0.481,0.425,0.792,0.553c0.31,0.129,0.659,0.193,1.048,0.193
			s0.737-0.064,1.048-0.193c0.31-0.128,0.572-0.313,0.789-0.553c0.216-0.24,0.383-0.533,0.5-0.88S205.174,318.133,205.174,317.696z"
			/>
		<path fill="#FFFFFF" d="M213.276,314.936h-2.397v6.737h-1.479v-6.737H207v-1.216h6.275V314.936z"/>
		<path fill="#FFFFFF" d="M215.805,321.673h-1.484v-7.953h1.484V321.673z"/>
		<path fill="#FFFFFF" d="M224.397,313.72l-3.212,7.953h-1.337l-3.212-7.953h1.188c0.128,0,0.232,0.031,0.313,0.094
			c0.08,0.063,0.141,0.143,0.181,0.241l1.876,4.852c0.063,0.157,0.122,0.331,0.179,0.52c0.057,0.189,0.111,0.386,0.162,0.592
			c0.044-0.206,0.092-0.402,0.144-0.592c0.051-0.188,0.107-0.362,0.17-0.52l1.864-4.852c0.029-0.084,0.088-0.161,0.174-0.23
			s0.191-0.104,0.316-0.104H224.397z"/>
		<path fill="#FFFFFF" d="M231.404,321.673h-1.145c-0.128,0-0.232-0.032-0.313-0.097c-0.08-0.063-0.141-0.144-0.182-0.239
			l-0.594-1.622h-3.294l-0.595,1.622c-0.029,0.085-0.086,0.161-0.17,0.231c-0.085,0.069-0.189,0.104-0.313,0.104h-1.155l3.13-7.953
			h1.507L231.404,321.673z M228.792,318.67l-0.969-2.646c-0.047-0.117-0.097-0.257-0.148-0.418
			c-0.051-0.162-0.103-0.336-0.153-0.522c-0.048,0.187-0.098,0.361-0.148,0.524c-0.052,0.164-0.102,0.306-0.149,0.427l-0.962,2.635
			H228.792z"/>
		<path fill="#FFFFFF" d="M237.008,314.936h-2.397v6.737h-1.479v-6.737h-2.398v-1.216h6.275V314.936z"/>
		<path fill="#FFFFFF" d="M245.374,317.696c0,0.583-0.096,1.123-0.288,1.619c-0.193,0.497-0.465,0.927-0.817,1.29
			c-0.352,0.363-0.775,0.646-1.271,0.85c-0.495,0.204-1.045,0.306-1.649,0.306c-0.602,0-1.149-0.102-1.645-0.306
			c-0.495-0.203-0.92-0.486-1.273-0.85c-0.354-0.363-0.628-0.793-0.822-1.29c-0.194-0.496-0.292-1.036-0.292-1.619
			s0.098-1.123,0.292-1.62s0.468-0.927,0.822-1.29c0.354-0.362,0.778-0.646,1.273-0.85c0.495-0.203,1.043-0.305,1.645-0.305
			c0.403,0,0.782,0.047,1.138,0.14c0.356,0.094,0.683,0.226,0.979,0.396c0.297,0.17,0.563,0.378,0.8,0.621
			c0.237,0.244,0.438,0.517,0.603,0.817s0.291,0.627,0.377,0.979C245.331,316.938,245.374,317.308,245.374,317.696z
			 M243.861,317.696c0-0.437-0.059-0.828-0.176-1.175c-0.117-0.346-0.284-0.641-0.5-0.883c-0.217-0.241-0.479-0.427-0.789-0.555
			c-0.311-0.129-0.659-0.193-1.048-0.193s-0.738,0.064-1.048,0.193c-0.311,0.128-0.574,0.313-0.792,0.555
			c-0.219,0.242-0.386,0.537-0.504,0.883c-0.117,0.347-0.176,0.738-0.176,1.175s0.059,0.827,0.176,1.174
			c0.118,0.347,0.285,0.64,0.504,0.88c0.218,0.24,0.481,0.425,0.792,0.553c0.31,0.129,0.659,0.193,1.048,0.193
			s0.737-0.064,1.048-0.193c0.31-0.128,0.572-0.313,0.789-0.553c0.216-0.24,0.383-0.533,0.5-0.88S243.861,318.133,243.861,317.696z"
			/>
		<path fill="#FFFFFF" d="M252.886,321.673h-1.336c-0.253,0-0.437-0.1-0.55-0.297l-1.673-2.547
			c-0.063-0.096-0.131-0.163-0.206-0.203c-0.075-0.041-0.186-0.061-0.333-0.061h-0.632v3.107h-1.479v-7.953h2.425
			c0.539,0,1.002,0.056,1.39,0.168c0.387,0.111,0.703,0.269,0.951,0.47c0.247,0.202,0.43,0.443,0.547,0.724s0.176,0.589,0.176,0.927
			c0,0.268-0.039,0.521-0.118,0.759c-0.078,0.238-0.192,0.455-0.341,0.649s-0.332,0.364-0.55,0.511
			c-0.218,0.147-0.467,0.263-0.745,0.347c0.095,0.055,0.184,0.12,0.264,0.195c0.081,0.075,0.154,0.164,0.22,0.267L252.886,321.673z
			 M249.081,317.504c0.278,0,0.521-0.035,0.729-0.104c0.207-0.07,0.378-0.166,0.512-0.289s0.233-0.269,0.3-0.438
			c0.065-0.168,0.099-0.354,0.099-0.556c0-0.403-0.133-0.713-0.398-0.929c-0.266-0.217-0.672-0.325-1.219-0.325h-0.945v2.641
			H249.081z"/>
		<path fill="#FFFFFF" d="M257.985,315.166c-0.044,0.077-0.091,0.133-0.14,0.168c-0.05,0.035-0.111,0.052-0.185,0.052
			c-0.077,0-0.16-0.028-0.25-0.085s-0.197-0.12-0.322-0.189c-0.124-0.07-0.271-0.133-0.437-0.19
			c-0.167-0.057-0.364-0.085-0.592-0.085c-0.205,0-0.385,0.025-0.539,0.074c-0.153,0.05-0.283,0.118-0.388,0.206
			c-0.104,0.089-0.183,0.193-0.233,0.316c-0.052,0.123-0.077,0.258-0.077,0.404c0,0.188,0.052,0.343,0.157,0.468
			c0.104,0.125,0.242,0.23,0.415,0.319c0.172,0.088,0.368,0.166,0.588,0.236c0.221,0.069,0.446,0.144,0.677,0.223
			c0.231,0.079,0.457,0.17,0.677,0.274s0.416,0.237,0.588,0.396c0.173,0.159,0.312,0.354,0.416,0.586
			c0.104,0.23,0.156,0.512,0.156,0.841c0,0.359-0.062,0.696-0.185,1.01c-0.122,0.313-0.302,0.587-0.538,0.819
			c-0.237,0.233-0.525,0.416-0.866,0.55c-0.342,0.134-0.732,0.201-1.172,0.201c-0.253,0-0.503-0.024-0.748-0.074
			c-0.246-0.05-0.481-0.12-0.707-0.212s-0.438-0.201-0.635-0.33c-0.198-0.128-0.374-0.271-0.528-0.429l0.435-0.71
			c0.036-0.051,0.084-0.094,0.143-0.129s0.121-0.053,0.188-0.053c0.092,0,0.19,0.038,0.297,0.113s0.232,0.158,0.38,0.25
			c0.146,0.092,0.317,0.175,0.514,0.25s0.432,0.113,0.707,0.113c0.422,0,0.748-0.1,0.979-0.3c0.231-0.2,0.347-0.487,0.347-0.861
			c0-0.209-0.052-0.379-0.156-0.511s-0.243-0.243-0.415-0.333c-0.173-0.09-0.369-0.166-0.589-0.229s-0.443-0.13-0.671-0.203
			s-0.451-0.161-0.671-0.264c-0.221-0.104-0.416-0.237-0.589-0.402c-0.172-0.165-0.311-0.371-0.415-0.618
			c-0.104-0.248-0.157-0.553-0.157-0.916c0-0.29,0.058-0.572,0.174-0.847c0.115-0.275,0.283-0.52,0.503-0.731
			c0.22-0.213,0.491-0.384,0.814-0.512c0.322-0.128,0.692-0.192,1.11-0.192c0.47,0,0.902,0.073,1.298,0.22
			c0.396,0.146,0.733,0.352,1.013,0.616L257.985,315.166z"/>
	</g>
</g>
</svg>
